<ttFont>
    <TTGlyph name=".notdef" xMin="68" yMin="0" xMax="612" yMax="1365">
      <contour>
        <pt x="68" y="0" on="1"/>
        <pt x="68" y="1365" on="1"/>
        <pt x="612" y="1365" on="1"/>
        <pt x="612" y="0" on="1"/>
      </contour>
      <contour>
        <pt x="136" y="68" on="1"/>
        <pt x="544" y="68" on="1"/>
        <pt x="544" y="1297" on="1"/>
        <pt x="136" y="1297" on="1"/>
      </contour>
    </TTGlyph>
    <TTGlyph name="A" xMin="-28" yMin="-9" xMax="1498" yMax="1509">
      <contour>
        <pt x="-28" y="29" on="1"/>
        <pt x="-28" y="52" on="0"/>
        <pt x="-23" y="66" on="1"/>
        <pt x="3" y="66" on="0"/>
        <pt x="108" y="102" on="0"/>
        <pt x="123" y="123" on="1"/>
        <pt x="168" y="190" on="0"/>
        <pt x="217" y="310" on="1"/>
        <pt x="611" y="1257" on="0"/>
        <pt x="679" y="1434" on="1"/>
        <pt x="686" y="1450" on="0"/>
        <pt x="718" y="1485" on="0"/>
        <pt x="753" y="1509" on="0"/>
        <pt x="764" y="1509" on="1"/>
        <pt x="787" y="1509" on="0"/>
        <pt x="796" y="1500" on="1"/>
        <pt x="1261" y="312" on="1"/>
        <pt x="1272" y="286" on="0"/>
        <pt x="1293" y="232" on="0"/>
        <pt x="1306" y="197" on="0"/>
        <pt x="1319" y="164" on="0"/>
        <pt x="1322" y="155" on="1"/>
        <pt x="1333" y="130" on="0"/>
        <pt x="1384" y="92" on="0"/>
        <pt x="1439" y="76" on="0"/>
        <pt x="1479" y="68" on="0"/>
        <pt x="1489" y="68" on="1"/>
        <pt x="1498" y="56" on="0"/>
        <pt x="1498" y="26" on="1"/>
        <pt x="1498" y="23" on="0"/>
        <pt x="1498" y="21" on="1"/>
        <pt x="1498" y="-4" on="0"/>
        <pt x="1493" y="-9" on="1"/>
        <pt x="1474" y="-8" on="0"/>
        <pt x="1274" y="7" on="0"/>
        <pt x="1215" y="7" on="1"/>
        <pt x="1153" y="7" on="0"/>
        <pt x="922" y="-9" on="0"/>
        <pt x="912" y="-9" on="1"/>
        <pt x="903" y="-1" on="0"/>
        <pt x="903" y="65" on="0"/>
        <pt x="912" y="68" on="1"/>
        <pt x="941" y="68" on="0"/>
        <pt x="1026" y="87" on="0"/>
        <pt x="1044" y="103" on="1"/>
        <pt x="1058" y="116" on="0"/>
        <pt x="1058" y="137" on="1"/>
        <pt x="1058" y="157" on="0"/>
        <pt x="986" y="355" on="0"/>
        <pt x="950" y="444" on="1"/>
        <pt x="914" y="534" on="1"/>
        <pt x="907" y="543" on="0"/>
        <pt x="901" y="543" on="1"/>
        <pt x="868" y="545" on="0"/>
        <pt x="785" y="545" on="0"/>
        <pt x="692" y="543" on="0"/>
        <pt x="675" y="543" on="1"/>
        <pt x="529" y="543" on="0"/>
        <pt x="438" y="538" on="1"/>
        <pt x="435" y="538" on="0"/>
        <pt x="424" y="531" on="0"/>
        <pt x="424" y="529" on="1"/>
        <pt x="362" y="383" on="0"/>
        <pt x="331" y="296" on="1"/>
        <pt x="313" y="248" on="0"/>
        <pt x="290" y="155" on="0"/>
        <pt x="290" y="137" on="1"/>
        <pt x="290" y="117" on="0"/>
        <pt x="334" y="88" on="0"/>
        <pt x="397" y="74" on="0"/>
        <pt x="443" y="68" on="0"/>
        <pt x="454" y="68" on="1"/>
        <pt x="460" y="61" on="0"/>
        <pt x="460" y="1" on="0"/>
        <pt x="456" y="-9" on="1"/>
        <pt x="437" y="-8" on="0"/>
        <pt x="395" y="-4" on="0"/>
        <pt x="364" y="0" on="0"/>
        <pt x="326" y="3" on="0"/>
        <pt x="292" y="5" on="0"/>
        <pt x="247" y="7" on="0"/>
        <pt x="223" y="7" on="1"/>
        <pt x="176" y="7" on="0"/>
        <pt x="102" y="2" on="0"/>
        <pt x="7" y="-7" on="0"/>
        <pt x="-21" y="-9" on="1"/>
        <pt x="-28" y="-2" on="0"/>
      </contour>
      <contour>
        <pt x="472" y="661" on="1"/>
        <pt x="472" y="652" on="0"/>
        <pt x="477" y="652" on="1"/>
        <pt x="555" y="645" on="0"/>
        <pt x="670" y="645" on="1"/>
        <pt x="751" y="645" on="0"/>
        <pt x="857" y="652" on="1"/>
        <pt x="859" y="652" on="0"/>
        <pt x="863" y="658" on="0"/>
        <pt x="863" y="661" on="1"/>
        <pt x="864" y="663" on="1"/>
        <pt x="673" y="1154" on="1"/>
      </contour>
    </TTGlyph>
    <TTGlyph name="AE" xMin="-62" yMin="-7" xMax="1968" yMax="1514">
      <contour>
        <pt x="-62" y="32" on="1"/>
        <pt x="-48" y="39" on="0"/>
        <pt x="16" y="85" on="0"/>
        <pt x="27" y="103" on="1"/>
        <pt x="38" y="111" on="0"/>
        <pt x="92" y="153" on="0"/>
        <pt x="132" y="187" on="0"/>
        <pt x="148" y="205" on="1"/>
        <pt x="165" y="217" on="0"/>
        <pt x="494" y="726" on="0"/>
        <pt x="568" y="844" on="1"/>
        <pt x="882" y="1359" on="1"/>
        <pt x="881" y="1367" on="0"/>
        <pt x="864" y="1381" on="0"/>
        <pt x="844" y="1388" on="0"/>
        <pt x="822" y="1397" on="0"/>
        <pt x="819" y="1400" on="1"/>
        <pt x="816" y="1418" on="0"/>
        <pt x="779" y="1458" on="0"/>
        <pt x="766" y="1468" on="1"/>
        <pt x="773" y="1469" on="0"/>
        <pt x="887" y="1485" on="0"/>
        <pt x="1008" y="1496" on="0"/>
        <pt x="1062" y="1496" on="1"/>
        <pt x="1135" y="1496" on="0"/>
        <pt x="1699" y="1514" on="0"/>
        <pt x="1799" y="1514" on="1"/>
        <pt x="1808" y="1447" on="0"/>
        <pt x="1863" y="1214" on="0"/>
        <pt x="1867" y="1190" on="1"/>
        <pt x="1856" y="1179" on="0"/>
        <pt x="1819" y="1179" on="1"/>
        <pt x="1792" y="1179" on="0"/>
        <pt x="1785" y="1195" on="1"/>
        <pt x="1748" y="1311" on="0"/>
        <pt x="1627" y="1414" on="0"/>
        <pt x="1530" y="1414" on="1"/>
        <pt x="1336" y="1414" on="1"/>
        <pt x="1212" y="1414" on="0"/>
        <pt x="1202" y="1389" on="1"/>
        <pt x="1188" y="1350" on="0"/>
        <pt x="1188" y="1238" on="1"/>
        <pt x="1188" y="825" on="1"/>
        <pt x="1188" y="816" on="0"/>
        <pt x="1247" y="805" on="0"/>
        <pt x="1288" y="805" on="1"/>
        <pt x="1409" y="805" on="1"/>
        <pt x="1444" y="805" on="0"/>
        <pt x="1492" y="807" on="0"/>
        <pt x="1536" y="815" on="0"/>
        <pt x="1562" y="822" on="0"/>
        <pt x="1587" y="844" on="0"/>
        <pt x="1601" y="862" on="0"/>
        <pt x="1617" y="902" on="0"/>
        <pt x="1627" y="936" on="0"/>
        <pt x="1635" y="967" on="1"/>
        <pt x="1638" y="985" on="0"/>
        <pt x="1664" y="985" on="1"/>
        <pt x="1676" y="985" on="0"/>
        <pt x="1702" y="977" on="0"/>
        <pt x="1708" y="971" on="1"/>
        <pt x="1708" y="538" on="1"/>
        <pt x="1699" y="529" on="0"/>
        <pt x="1667" y="529" on="1"/>
        <pt x="1640" y="529" on="0"/>
        <pt x="1632" y="547" on="1"/>
        <pt x="1617" y="603" on="0"/>
        <pt x="1591" y="667" on="0"/>
        <pt x="1574" y="686" on="0"/>
        <pt x="1562" y="693" on="1"/>
        <pt x="1530" y="709" on="0"/>
        <pt x="1354" y="709" on="1"/>
        <pt x="1188" y="709" on="0"/>
        <pt x="1188" y="684" on="1"/>
        <pt x="1188" y="292" on="1"/>
        <pt x="1188" y="272" on="0"/>
        <pt x="1190" y="214" on="0"/>
        <pt x="1199" y="135" on="0"/>
        <pt x="1206" y="123" on="1"/>
        <pt x="1222" y="104" on="0"/>
        <pt x="1296" y="91" on="0"/>
        <pt x="1361" y="91" on="1"/>
        <pt x="1491" y="91" on="1"/>
        <pt x="1536" y="91" on="0"/>
        <pt x="1626" y="105" on="0"/>
        <pt x="1711" y="134" on="0"/>
        <pt x="1740" y="155" on="1"/>
        <pt x="1777" y="185" on="0"/>
        <pt x="1848" y="299" on="0"/>
        <pt x="1874" y="378" on="1"/>
        <pt x="1878" y="392" on="0"/>
        <pt x="1906" y="392" on="1"/>
        <pt x="1923" y="392" on="0"/>
        <pt x="1963" y="384" on="0"/>
        <pt x="1968" y="378" on="1"/>
        <pt x="1960" y="357" on="0"/>
        <pt x="1907" y="211" on="0"/>
        <pt x="1881" y="136" on="0"/>
        <pt x="1850" y="28" on="0"/>
        <pt x="1845" y="-7" on="1"/>
        <pt x="1755" y="-7" on="0"/>
        <pt x="972" y="0" on="0"/>
        <pt x="901" y="0" on="1"/>
        <pt x="877" y="2" on="0"/>
        <pt x="833" y="9" on="0"/>
        <pt x="800" y="17" on="0"/>
        <pt x="776" y="26" on="0"/>
        <pt x="765" y="34" on="0"/>
        <pt x="766" y="36" on="1"/>
        <pt x="769" y="38" on="0"/>
        <pt x="803" y="59" on="0"/>
        <pt x="835" y="81" on="0"/>
        <pt x="839" y="87" on="1"/>
        <pt x="841" y="89" on="0"/>
        <pt x="856" y="104" on="0"/>
        <pt x="866" y="113" on="0"/>
        <pt x="883" y="131" on="0"/>
        <pt x="894" y="146" on="0"/>
        <pt x="907" y="167" on="0"/>
        <pt x="916" y="186" on="0"/>
        <pt x="923" y="210" on="0"/>
        <pt x="923" y="221" on="1"/>
        <pt x="928" y="239" on="0"/>
        <pt x="933" y="377" on="0"/>
        <pt x="933" y="410" on="1"/>
        <pt x="917" y="410" on="0"/>
        <pt x="881" y="479" on="0"/>
        <pt x="850" y="547" on="0"/>
        <pt x="841" y="547" on="1"/>
        <pt x="629" y="547" on="1"/>
        <pt x="600" y="547" on="0"/>
        <pt x="523" y="537" on="0"/>
        <pt x="506" y="536" on="1"/>
        <pt x="505" y="536" on="0"/>
        <pt x="479" y="498" on="0"/>
        <pt x="446" y="448" on="0"/>
        <pt x="438" y="433" on="1"/>
        <pt x="399" y="375" on="0"/>
        <pt x="312" y="223" on="1"/>
        <pt x="307" y="210" on="0"/>
        <pt x="303" y="184" on="0"/>
        <pt x="306" y="161" on="0"/>
        <pt x="311" y="141" on="0"/>
        <pt x="322" y="122" on="0"/>
        <pt x="329" y="111" on="0"/>
        <pt x="339" y="97" on="0"/>
        <pt x="340" y="96" on="1"/>
        <pt x="341" y="83" on="0"/>
        <pt x="365" y="57" on="0"/>
        <pt x="390" y="40" on="0"/>
        <pt x="414" y="26" on="0"/>
        <pt x="415" y="25" on="1"/>
        <pt x="396" y="25" on="0"/>
        <pt x="313" y="3" on="0"/>
        <pt x="290" y="0" on="1"/>
        <pt x="160" y="3" on="0"/>
        <pt x="55" y="-2" on="1"/>
        <pt x="23" y="0" on="0"/>
        <pt x="-44" y="28" on="0"/>
      </contour>
      <contour>
        <pt x="575" y="661" on="1"/>
        <pt x="572" y="652" on="0"/>
        <pt x="577" y="652" on="1"/>
        <pt x="629" y="648" on="0"/>
        <pt x="752" y="648" on="1"/>
        <pt x="878" y="648" on="0"/>
        <pt x="930" y="652" on="1"/>
        <pt x="930" y="1233" on="1"/>
      </contour>
    </TTGlyph>
    <TTGlyph name="Aacute" xMin="-28" yMin="-9" xMax="1498" yMax="1972">
      <contour>
        <pt x="-27" y="-2" on="0"/>
        <pt x="-28" y="51" on="0"/>
        <pt x="-23" y="66" on="1"/>
        <pt x="3" y="66" on="0"/>
        <pt x="108" y="102" on="0"/>
        <pt x="123" y="123" on="1"/>
        <pt x="168" y="190" on="0"/>
        <pt x="217" y="310" on="1"/>
        <pt x="611" y="1257" on="0"/>
        <pt x="679" y="1434" on="1"/>
        <pt x="686" y="1450" on="0"/>
        <pt x="718" y="1485" on="0"/>
        <pt x="753" y="1509" on="0"/>
        <pt x="764" y="1509" on="1"/>
        <pt x="787" y="1509" on="0"/>
        <pt x="796" y="1500" on="1"/>
        <pt x="1261" y="312" on="1"/>
        <pt x="1272" y="286" on="0"/>
        <pt x="1293" y="232" on="0"/>
        <pt x="1306" y="197" on="0"/>
        <pt x="1319" y="164" on="0"/>
        <pt x="1322" y="155" on="1"/>
        <pt x="1333" y="130" on="0"/>
        <pt x="1384" y="92" on="0"/>
        <pt x="1439" y="76" on="0"/>
        <pt x="1479" y="68" on="0"/>
        <pt x="1489" y="68" on="1"/>
        <pt x="1497" y="56" on="0"/>
        <pt x="1498" y="-4" on="0"/>
        <pt x="1493" y="-9" on="1"/>
        <pt x="1474" y="-8" on="0"/>
        <pt x="1274" y="7" on="0"/>
        <pt x="1215" y="7" on="1"/>
        <pt x="1153" y="7" on="0"/>
        <pt x="922" y="-9" on="0"/>
        <pt x="912" y="-9" on="1"/>
        <pt x="903" y="-1" on="0"/>
        <pt x="903" y="65" on="0"/>
        <pt x="912" y="68" on="1"/>
        <pt x="941" y="68" on="0"/>
        <pt x="1026" y="87" on="0"/>
        <pt x="1044" y="103" on="1"/>
        <pt x="1058" y="116" on="0"/>
        <pt x="1058" y="137" on="1"/>
        <pt x="1058" y="157" on="0"/>
        <pt x="986" y="355" on="0"/>
        <pt x="950" y="444" on="1"/>
        <pt x="914" y="534" on="1"/>
        <pt x="907" y="543" on="0"/>
        <pt x="901" y="543" on="1"/>
        <pt x="868" y="545" on="0"/>
        <pt x="785" y="545" on="0"/>
        <pt x="692" y="543" on="0"/>
        <pt x="675" y="543" on="1"/>
        <pt x="529" y="543" on="0"/>
        <pt x="438" y="538" on="1"/>
        <pt x="435" y="538" on="0"/>
        <pt x="424" y="531" on="0"/>
        <pt x="424" y="529" on="1"/>
        <pt x="362" y="383" on="0"/>
        <pt x="331" y="296" on="1"/>
        <pt x="313" y="248" on="0"/>
        <pt x="290" y="155" on="0"/>
        <pt x="290" y="137" on="1"/>
        <pt x="290" y="117" on="0"/>
        <pt x="334" y="88" on="0"/>
        <pt x="397" y="74" on="0"/>
        <pt x="443" y="68" on="0"/>
        <pt x="454" y="68" on="1"/>
        <pt x="460" y="61" on="0"/>
        <pt x="460" y="1" on="0"/>
        <pt x="456" y="-9" on="1"/>
        <pt x="437" y="-8" on="0"/>
        <pt x="395" y="-4" on="0"/>
        <pt x="364" y="0" on="0"/>
        <pt x="326" y="3" on="0"/>
        <pt x="292" y="5" on="0"/>
        <pt x="247" y="7" on="0"/>
        <pt x="223" y="7" on="1"/>
        <pt x="176" y="7" on="0"/>
        <pt x="102" y="2" on="0"/>
        <pt x="7" y="-7" on="0"/>
        <pt x="-21" y="-9" on="1"/>
      </contour>
      <contour>
        <pt x="472" y="661" on="1"/>
        <pt x="472" y="652" on="0"/>
        <pt x="477" y="652" on="1"/>
        <pt x="555" y="645" on="0"/>
        <pt x="670" y="645" on="1"/>
        <pt x="751" y="645" on="0"/>
        <pt x="857" y="652" on="1"/>
        <pt x="859" y="652" on="0"/>
        <pt x="863" y="658" on="0"/>
        <pt x="863" y="661" on="1"/>
        <pt x="864" y="663" on="1"/>
        <pt x="673" y="1154" on="1"/>
      </contour>
      <contour>
        <pt x="695" y="1699" on="1"/>
        <pt x="695" y="1713" on="0"/>
        <pt x="900" y="1915" on="0"/>
        <pt x="967" y="1965" on="1"/>
        <pt x="980" y="1972" on="0"/>
        <pt x="1008" y="1972" on="1"/>
        <pt x="1058" y="1972" on="0"/>
        <pt x="1133" y="1930" on="0"/>
        <pt x="1133" y="1897" on="1"/>
        <pt x="1133" y="1868" on="0"/>
        <pt x="1016" y="1783" on="0"/>
        <pt x="867" y="1712" on="0"/>
        <pt x="737" y="1660" on="0"/>
        <pt x="723" y="1660" on="1"/>
        <pt x="713" y="1660" on="0"/>
        <pt x="695" y="1685" on="0"/>
      </contour>
    </TTGlyph>
    <TTGlyph name="Acircumflex" xMin="-28" yMin="-9" xMax="1498" yMax="1970">
      <contour>
        <pt x="-27" y="-2" on="0"/>
        <pt x="-28" y="51" on="0"/>
        <pt x="-23" y="66" on="1"/>
        <pt x="3" y="66" on="0"/>
        <pt x="108" y="102" on="0"/>
        <pt x="123" y="123" on="1"/>
        <pt x="168" y="190" on="0"/>
        <pt x="217" y="310" on="1"/>
        <pt x="611" y="1257" on="0"/>
        <pt x="679" y="1434" on="1"/>
        <pt x="686" y="1450" on="0"/>
        <pt x="718" y="1485" on="0"/>
        <pt x="753" y="1509" on="0"/>
        <pt x="764" y="1509" on="1"/>
        <pt x="787" y="1509" on="0"/>
        <pt x="796" y="1500" on="1"/>
        <pt x="1261" y="312" on="1"/>
        <pt x="1272" y="286" on="0"/>
        <pt x="1293" y="232" on="0"/>
        <pt x="1306" y="197" on="0"/>
        <pt x="1319" y="164" on="0"/>
        <pt x="1322" y="155" on="1"/>
        <pt x="1333" y="130" on="0"/>
        <pt x="1384" y="92" on="0"/>
        <pt x="1439" y="76" on="0"/>
        <pt x="1479" y="68" on="0"/>
        <pt x="1489" y="68" on="1"/>
        <pt x="1497" y="56" on="0"/>
        <pt x="1498" y="-4" on="0"/>
        <pt x="1493" y="-9" on="1"/>
        <pt x="1474" y="-8" on="0"/>
        <pt x="1274" y="7" on="0"/>
        <pt x="1215" y="7" on="1"/>
        <pt x="1153" y="7" on="0"/>
        <pt x="922" y="-9" on="0"/>
        <pt x="912" y="-9" on="1"/>
        <pt x="903" y="-1" on="0"/>
        <pt x="903" y="65" on="0"/>
        <pt x="912" y="68" on="1"/>
        <pt x="941" y="68" on="0"/>
        <pt x="1026" y="87" on="0"/>
        <pt x="1044" y="103" on="1"/>
        <pt x="1058" y="116" on="0"/>
        <pt x="1058" y="137" on="1"/>
        <pt x="1058" y="157" on="0"/>
        <pt x="986" y="355" on="0"/>
        <pt x="950" y="444" on="1"/>
        <pt x="914" y="534" on="1"/>
        <pt x="907" y="543" on="0"/>
        <pt x="901" y="543" on="1"/>
        <pt x="868" y="545" on="0"/>
        <pt x="785" y="545" on="0"/>
        <pt x="692" y="543" on="0"/>
        <pt x="675" y="543" on="1"/>
        <pt x="529" y="543" on="0"/>
        <pt x="438" y="538" on="1"/>
        <pt x="435" y="538" on="0"/>
        <pt x="424" y="531" on="0"/>
        <pt x="424" y="529" on="1"/>
        <pt x="362" y="383" on="0"/>
        <pt x="331" y="296" on="1"/>
        <pt x="313" y="248" on="0"/>
        <pt x="290" y="155" on="0"/>
        <pt x="290" y="137" on="1"/>
        <pt x="290" y="117" on="0"/>
        <pt x="334" y="88" on="0"/>
        <pt x="397" y="74" on="0"/>
        <pt x="443" y="68" on="0"/>
        <pt x="454" y="68" on="1"/>
        <pt x="460" y="61" on="0"/>
        <pt x="460" y="1" on="0"/>
        <pt x="456" y="-9" on="1"/>
        <pt x="437" y="-8" on="0"/>
        <pt x="395" y="-4" on="0"/>
        <pt x="364" y="0" on="0"/>
        <pt x="326" y="3" on="0"/>
        <pt x="292" y="5" on="0"/>
        <pt x="247" y="7" on="0"/>
        <pt x="223" y="7" on="1"/>
        <pt x="176" y="7" on="0"/>
        <pt x="102" y="2" on="0"/>
        <pt x="7" y="-7" on="0"/>
        <pt x="-21" y="-9" on="1"/>
      </contour>
      <contour>
        <pt x="467" y="1703" on="1"/>
        <pt x="473" y="1709" on="0"/>
        <pt x="516" y="1745" on="0"/>
        <pt x="584" y="1806" on="0"/>
        <pt x="620" y="1842" on="1"/>
        <pt x="687" y="1906" on="0"/>
        <pt x="718" y="1949" on="1"/>
        <pt x="719" y="1951" on="0"/>
        <pt x="724" y="1956" on="0"/>
        <pt x="726" y="1959" on="0"/>
        <pt x="730" y="1963" on="0"/>
        <pt x="731" y="1964" on="0"/>
        <pt x="734" y="1967" on="0"/>
        <pt x="736" y="1968" on="0"/>
        <pt x="739" y="1970" on="0"/>
        <pt x="742" y="1970" on="0"/>
        <pt x="743" y="1970" on="1"/>
        <pt x="757" y="1970" on="0"/>
        <pt x="773" y="1949" on="1"/>
        <pt x="781" y="1940" on="0"/>
        <pt x="815" y="1898" on="0"/>
        <pt x="846" y="1863" on="0"/>
        <pt x="864" y="1845" on="1"/>
        <pt x="885" y="1824" on="0"/>
        <pt x="926" y="1785" on="0"/>
        <pt x="958" y="1757" on="0"/>
        <pt x="988" y="1732" on="0"/>
        <pt x="1008" y="1717" on="0"/>
        <pt x="1022" y="1705" on="0"/>
        <pt x="1024" y="1703" on="1"/>
        <pt x="1024" y="1696" on="0"/>
        <pt x="1020" y="1681" on="0"/>
        <pt x="1015" y="1668" on="0"/>
        <pt x="1006" y="1660" on="0"/>
        <pt x="1001" y="1660" on="1"/>
        <pt x="982" y="1660" on="0"/>
        <pt x="810" y="1755" on="0"/>
        <pt x="746" y="1797" on="1"/>
        <pt x="690" y="1757" on="0"/>
        <pt x="510" y="1660" on="0"/>
        <pt x="490" y="1660" on="1"/>
        <pt x="480" y="1660" on="0"/>
        <pt x="467" y="1690" on="0"/>
      </contour>
      <contour>
        <pt x="472" y="661" on="1"/>
        <pt x="472" y="652" on="0"/>
        <pt x="477" y="652" on="1"/>
        <pt x="555" y="645" on="0"/>
        <pt x="670" y="645" on="1"/>
        <pt x="751" y="645" on="0"/>
        <pt x="857" y="652" on="1"/>
        <pt x="859" y="652" on="0"/>
        <pt x="863" y="658" on="0"/>
        <pt x="863" y="661" on="1"/>
        <pt x="864" y="663" on="1"/>
        <pt x="673" y="1154" on="1"/>
      </contour>
    </TTGlyph>
    <TTGlyph name="Adieresis" xMin="-28" yMin="-9" xMax="1498" yMax="1924">
      <contour>
        <pt x="-27" y="-2" on="0"/>
        <pt x="-28" y="51" on="0"/>
        <pt x="-23" y="66" on="1"/>
        <pt x="3" y="66" on="0"/>
        <pt x="108" y="102" on="0"/>
        <pt x="123" y="123" on="1"/>
        <pt x="168" y="190" on="0"/>
        <pt x="217" y="310" on="1"/>
        <pt x="611" y="1257" on="0"/>
        <pt x="679" y="1434" on="1"/>
        <pt x="686" y="1450" on="0"/>
        <pt x="718" y="1485" on="0"/>
        <pt x="753" y="1509" on="0"/>
        <pt x="764" y="1509" on="1"/>
        <pt x="787" y="1509" on="0"/>
        <pt x="796" y="1500" on="1"/>
        <pt x="1261" y="312" on="1"/>
        <pt x="1272" y="286" on="0"/>
        <pt x="1293" y="232" on="0"/>
        <pt x="1306" y="197" on="0"/>
        <pt x="1319" y="164" on="0"/>
        <pt x="1322" y="155" on="1"/>
        <pt x="1333" y="130" on="0"/>
        <pt x="1384" y="92" on="0"/>
        <pt x="1439" y="76" on="0"/>
        <pt x="1479" y="68" on="0"/>
        <pt x="1489" y="68" on="1"/>
        <pt x="1497" y="56" on="0"/>
        <pt x="1498" y="-4" on="0"/>
        <pt x="1493" y="-9" on="1"/>
        <pt x="1474" y="-8" on="0"/>
        <pt x="1274" y="7" on="0"/>
        <pt x="1215" y="7" on="1"/>
        <pt x="1153" y="7" on="0"/>
        <pt x="922" y="-9" on="0"/>
        <pt x="912" y="-9" on="1"/>
        <pt x="903" y="-1" on="0"/>
        <pt x="903" y="65" on="0"/>
        <pt x="912" y="68" on="1"/>
        <pt x="941" y="68" on="0"/>
        <pt x="1026" y="87" on="0"/>
        <pt x="1044" y="103" on="1"/>
        <pt x="1058" y="116" on="0"/>
        <pt x="1058" y="137" on="1"/>
        <pt x="1058" y="157" on="0"/>
        <pt x="986" y="355" on="0"/>
        <pt x="950" y="444" on="1"/>
        <pt x="914" y="534" on="1"/>
        <pt x="907" y="543" on="0"/>
        <pt x="901" y="543" on="1"/>
        <pt x="868" y="545" on="0"/>
        <pt x="785" y="545" on="0"/>
        <pt x="692" y="543" on="0"/>
        <pt x="675" y="543" on="1"/>
        <pt x="529" y="543" on="0"/>
        <pt x="438" y="538" on="1"/>
        <pt x="435" y="538" on="0"/>
        <pt x="424" y="531" on="0"/>
        <pt x="424" y="529" on="1"/>
        <pt x="362" y="383" on="0"/>
        <pt x="331" y="296" on="1"/>
        <pt x="313" y="248" on="0"/>
        <pt x="290" y="155" on="0"/>
        <pt x="290" y="137" on="1"/>
        <pt x="290" y="117" on="0"/>
        <pt x="334" y="88" on="0"/>
        <pt x="397" y="74" on="0"/>
        <pt x="443" y="68" on="0"/>
        <pt x="454" y="68" on="1"/>
        <pt x="460" y="61" on="0"/>
        <pt x="460" y="1" on="0"/>
        <pt x="456" y="-9" on="1"/>
        <pt x="437" y="-8" on="0"/>
        <pt x="395" y="-4" on="0"/>
        <pt x="364" y="0" on="0"/>
        <pt x="326" y="3" on="0"/>
        <pt x="292" y="5" on="0"/>
        <pt x="247" y="7" on="0"/>
        <pt x="223" y="7" on="1"/>
        <pt x="176" y="7" on="0"/>
        <pt x="102" y="2" on="0"/>
        <pt x="7" y="-7" on="0"/>
        <pt x="-21" y="-9" on="1"/>
      </contour>
      <contour>
        <pt x="388" y="1738" on="0"/>
        <pt x="388" y="1847" on="0"/>
        <pt x="467" y="1924" on="0"/>
        <pt x="577" y="1924" on="0"/>
        <pt x="657" y="1847" on="0"/>
        <pt x="657" y="1738" on="0"/>
        <pt x="577" y="1660" on="0"/>
        <pt x="467" y="1660" on="0"/>
      </contour>
      <contour>
        <pt x="472" y="661" on="1"/>
        <pt x="472" y="652" on="0"/>
        <pt x="477" y="652" on="1"/>
        <pt x="555" y="645" on="0"/>
        <pt x="670" y="645" on="1"/>
        <pt x="751" y="645" on="0"/>
        <pt x="857" y="652" on="1"/>
        <pt x="859" y="652" on="0"/>
        <pt x="863" y="658" on="0"/>
        <pt x="863" y="661" on="1"/>
        <pt x="864" y="663" on="1"/>
        <pt x="673" y="1154" on="1"/>
      </contour>
      <contour>
        <pt x="873" y="1792" on="1"/>
        <pt x="873" y="1847" on="0"/>
        <pt x="953" y="1924" on="0"/>
        <pt x="1063" y="1924" on="0"/>
        <pt x="1142" y="1847" on="0"/>
        <pt x="1142" y="1792" on="1"/>
        <pt x="1142" y="1738" on="0"/>
        <pt x="1061" y="1660" on="0"/>
        <pt x="1005" y="1660" on="1"/>
        <pt x="951" y="1660" on="0"/>
        <pt x="873" y="1737" on="0"/>
      </contour>
    </TTGlyph>
    <TTGlyph name="Agrave" xMin="-28" yMin="-9" xMax="1498" yMax="1972">
      <contour>
        <pt x="-27" y="-2" on="0"/>
        <pt x="-28" y="51" on="0"/>
        <pt x="-23" y="66" on="1"/>
        <pt x="3" y="66" on="0"/>
        <pt x="108" y="102" on="0"/>
        <pt x="123" y="123" on="1"/>
        <pt x="168" y="190" on="0"/>
        <pt x="217" y="310" on="1"/>
        <pt x="611" y="1257" on="0"/>
        <pt x="679" y="1434" on="1"/>
        <pt x="686" y="1450" on="0"/>
        <pt x="718" y="1485" on="0"/>
        <pt x="753" y="1509" on="0"/>
        <pt x="764" y="1509" on="1"/>
        <pt x="787" y="1509" on="0"/>
        <pt x="796" y="1500" on="1"/>
        <pt x="1261" y="312" on="1"/>
        <pt x="1272" y="286" on="0"/>
        <pt x="1293" y="232" on="0"/>
        <pt x="1306" y="197" on="0"/>
        <pt x="1319" y="164" on="0"/>
        <pt x="1322" y="155" on="1"/>
        <pt x="1333" y="130" on="0"/>
        <pt x="1384" y="92" on="0"/>
        <pt x="1439" y="76" on="0"/>
        <pt x="1479" y="68" on="0"/>
        <pt x="1489" y="68" on="1"/>
        <pt x="1497" y="56" on="0"/>
        <pt x="1498" y="-4" on="0"/>
        <pt x="1493" y="-9" on="1"/>
        <pt x="1474" y="-8" on="0"/>
        <pt x="1274" y="7" on="0"/>
        <pt x="1215" y="7" on="1"/>
        <pt x="1153" y="7" on="0"/>
        <pt x="922" y="-9" on="0"/>
        <pt x="912" y="-9" on="1"/>
        <pt x="903" y="-1" on="0"/>
        <pt x="903" y="65" on="0"/>
        <pt x="912" y="68" on="1"/>
        <pt x="941" y="68" on="0"/>
        <pt x="1026" y="87" on="0"/>
        <pt x="1044" y="103" on="1"/>
        <pt x="1058" y="116" on="0"/>
        <pt x="1058" y="137" on="1"/>
        <pt x="1058" y="157" on="0"/>
        <pt x="986" y="355" on="0"/>
        <pt x="950" y="444" on="1"/>
        <pt x="914" y="534" on="1"/>
        <pt x="907" y="543" on="0"/>
        <pt x="901" y="543" on="1"/>
        <pt x="868" y="545" on="0"/>
        <pt x="785" y="545" on="0"/>
        <pt x="692" y="543" on="0"/>
        <pt x="675" y="543" on="1"/>
        <pt x="529" y="543" on="0"/>
        <pt x="438" y="538" on="1"/>
        <pt x="435" y="538" on="0"/>
        <pt x="424" y="531" on="0"/>
        <pt x="424" y="529" on="1"/>
        <pt x="362" y="383" on="0"/>
        <pt x="331" y="296" on="1"/>
        <pt x="313" y="248" on="0"/>
        <pt x="290" y="155" on="0"/>
        <pt x="290" y="137" on="1"/>
        <pt x="290" y="117" on="0"/>
        <pt x="334" y="88" on="0"/>
        <pt x="397" y="74" on="0"/>
        <pt x="443" y="68" on="0"/>
        <pt x="454" y="68" on="1"/>
        <pt x="460" y="61" on="0"/>
        <pt x="460" y="1" on="0"/>
        <pt x="456" y="-9" on="1"/>
        <pt x="437" y="-8" on="0"/>
        <pt x="395" y="-4" on="0"/>
        <pt x="364" y="0" on="0"/>
        <pt x="326" y="3" on="0"/>
        <pt x="292" y="5" on="0"/>
        <pt x="247" y="7" on="0"/>
        <pt x="223" y="7" on="1"/>
        <pt x="176" y="7" on="0"/>
        <pt x="102" y="2" on="0"/>
        <pt x="7" y="-7" on="0"/>
        <pt x="-21" y="-9" on="1"/>
      </contour>
      <contour>
        <pt x="424" y="1897" on="1"/>
        <pt x="424" y="1930" on="0"/>
        <pt x="497" y="1972" on="0"/>
        <pt x="547" y="1972" on="1"/>
        <pt x="575" y="1972" on="0"/>
        <pt x="588" y="1965" on="1"/>
        <pt x="655" y="1915" on="0"/>
        <pt x="862" y="1713" on="0"/>
        <pt x="862" y="1699" on="1"/>
        <pt x="862" y="1685" on="0"/>
        <pt x="843" y="1660" on="0"/>
        <pt x="832" y="1660" on="1"/>
        <pt x="824" y="1660" on="0"/>
        <pt x="772" y="1677" on="0"/>
        <pt x="698" y="1708" on="0"/>
        <pt x="614" y="1747" on="0"/>
        <pt x="532" y="1792" on="0"/>
        <pt x="465" y="1836" on="0"/>
        <pt x="424" y="1880" on="0"/>
      </contour>
      <contour>
        <pt x="472" y="661" on="1"/>
        <pt x="472" y="652" on="0"/>
        <pt x="477" y="652" on="1"/>
        <pt x="555" y="645" on="0"/>
        <pt x="670" y="645" on="1"/>
        <pt x="751" y="645" on="0"/>
        <pt x="857" y="652" on="1"/>
        <pt x="859" y="652" on="0"/>
        <pt x="863" y="658" on="0"/>
        <pt x="863" y="661" on="1"/>
        <pt x="864" y="663" on="1"/>
        <pt x="673" y="1154" on="1"/>
      </contour>
    </TTGlyph>
    <TTGlyph name="Aring" xMin="-28" yMin="-9" xMax="1498" yMax="1936">
      <contour>
        <pt x="-27" y="-2" on="0"/>
        <pt x="-28" y="51" on="0"/>
        <pt x="-23" y="66" on="1"/>
        <pt x="3" y="66" on="0"/>
        <pt x="108" y="102" on="0"/>
        <pt x="123" y="123" on="1"/>
        <pt x="168" y="190" on="0"/>
        <pt x="217" y="310" on="1"/>
        <pt x="611" y="1257" on="0"/>
        <pt x="679" y="1434" on="1"/>
        <pt x="686" y="1450" on="0"/>
        <pt x="718" y="1485" on="0"/>
        <pt x="753" y="1509" on="0"/>
        <pt x="764" y="1509" on="1"/>
        <pt x="787" y="1509" on="0"/>
        <pt x="796" y="1500" on="1"/>
        <pt x="1261" y="312" on="1"/>
        <pt x="1272" y="286" on="0"/>
        <pt x="1293" y="232" on="0"/>
        <pt x="1306" y="197" on="0"/>
        <pt x="1319" y="164" on="0"/>
        <pt x="1322" y="155" on="1"/>
        <pt x="1333" y="130" on="0"/>
        <pt x="1384" y="92" on="0"/>
        <pt x="1439" y="76" on="0"/>
        <pt x="1479" y="68" on="0"/>
        <pt x="1489" y="68" on="1"/>
        <pt x="1497" y="56" on="0"/>
        <pt x="1498" y="-4" on="0"/>
        <pt x="1493" y="-9" on="1"/>
        <pt x="1474" y="-8" on="0"/>
        <pt x="1274" y="7" on="0"/>
        <pt x="1215" y="7" on="1"/>
        <pt x="1153" y="7" on="0"/>
        <pt x="922" y="-9" on="0"/>
        <pt x="912" y="-9" on="1"/>
        <pt x="903" y="-1" on="0"/>
        <pt x="903" y="65" on="0"/>
        <pt x="912" y="68" on="1"/>
        <pt x="941" y="68" on="0"/>
        <pt x="1026" y="87" on="0"/>
        <pt x="1044" y="103" on="1"/>
        <pt x="1058" y="116" on="0"/>
        <pt x="1058" y="137" on="1"/>
        <pt x="1058" y="157" on="0"/>
        <pt x="986" y="355" on="0"/>
        <pt x="950" y="444" on="1"/>
        <pt x="914" y="534" on="1"/>
        <pt x="907" y="543" on="0"/>
        <pt x="901" y="543" on="1"/>
        <pt x="868" y="545" on="0"/>
        <pt x="785" y="545" on="0"/>
        <pt x="692" y="543" on="0"/>
        <pt x="675" y="543" on="1"/>
        <pt x="529" y="543" on="0"/>
        <pt x="438" y="538" on="1"/>
        <pt x="435" y="538" on="0"/>
        <pt x="424" y="531" on="0"/>
        <pt x="424" y="529" on="1"/>
        <pt x="362" y="383" on="0"/>
        <pt x="331" y="296" on="1"/>
        <pt x="313" y="248" on="0"/>
        <pt x="290" y="155" on="0"/>
        <pt x="290" y="137" on="1"/>
        <pt x="290" y="117" on="0"/>
        <pt x="334" y="88" on="0"/>
        <pt x="397" y="74" on="0"/>
        <pt x="443" y="68" on="0"/>
        <pt x="454" y="68" on="1"/>
        <pt x="460" y="61" on="0"/>
        <pt x="460" y="1" on="0"/>
        <pt x="456" y="-9" on="1"/>
        <pt x="437" y="-8" on="0"/>
        <pt x="395" y="-4" on="0"/>
        <pt x="364" y="0" on="0"/>
        <pt x="326" y="3" on="0"/>
        <pt x="292" y="5" on="0"/>
        <pt x="247" y="7" on="0"/>
        <pt x="223" y="7" on="1"/>
        <pt x="176" y="7" on="0"/>
        <pt x="102" y="2" on="0"/>
        <pt x="7" y="-7" on="0"/>
        <pt x="-21" y="-9" on="1"/>
      </contour>
      <contour>
        <pt x="472" y="661" on="1"/>
        <pt x="472" y="652" on="0"/>
        <pt x="477" y="652" on="1"/>
        <pt x="555" y="645" on="0"/>
        <pt x="670" y="645" on="1"/>
        <pt x="751" y="645" on="0"/>
        <pt x="857" y="652" on="1"/>
        <pt x="859" y="652" on="0"/>
        <pt x="863" y="658" on="0"/>
        <pt x="863" y="661" on="1"/>
        <pt x="864" y="663" on="1"/>
        <pt x="673" y="1154" on="1"/>
      </contour>
      <contour>
        <pt x="552" y="1724" on="1"/>
        <pt x="552" y="1812" on="0"/>
        <pt x="678" y="1936" on="0"/>
        <pt x="766" y="1936" on="1"/>
        <pt x="854" y="1936" on="0"/>
        <pt x="978" y="1812" on="0"/>
        <pt x="978" y="1724" on="1"/>
        <pt x="978" y="1635" on="0"/>
        <pt x="853" y="1507" on="0"/>
        <pt x="766" y="1507" on="1"/>
        <pt x="679" y="1507" on="0"/>
        <pt x="552" y="1635" on="0"/>
      </contour>
      <contour>
        <pt x="643" y="1724" on="1"/>
        <pt x="643" y="1672" on="0"/>
        <pt x="715" y="1598" on="0"/>
        <pt x="817" y="1598" on="0"/>
        <pt x="889" y="1672" on="0"/>
        <pt x="889" y="1724" on="1"/>
        <pt x="889" y="1775" on="0"/>
        <pt x="817" y="1847" on="0"/>
        <pt x="715" y="1847" on="0"/>
        <pt x="643" y="1775" on="0"/>
      </contour>
    </TTGlyph>
    <TTGlyph name="Atilde" xMin="-28" yMin="-9" xMax="1498" yMax="1899">
      <contour>
        <pt x="-27" y="-2" on="0"/>
        <pt x="-28" y="51" on="0"/>
        <pt x="-23" y="66" on="1"/>
        <pt x="3" y="66" on="0"/>
        <pt x="108" y="102" on="0"/>
        <pt x="123" y="123" on="1"/>
        <pt x="168" y="190" on="0"/>
        <pt x="217" y="310" on="1"/>
        <pt x="611" y="1257" on="0"/>
        <pt x="679" y="1434" on="1"/>
        <pt x="686" y="1450" on="0"/>
        <pt x="718" y="1485" on="0"/>
        <pt x="753" y="1509" on="0"/>
        <pt x="764" y="1509" on="1"/>
        <pt x="787" y="1509" on="0"/>
        <pt x="796" y="1500" on="1"/>
        <pt x="1261" y="312" on="1"/>
        <pt x="1272" y="286" on="0"/>
        <pt x="1293" y="232" on="0"/>
        <pt x="1306" y="197" on="0"/>
        <pt x="1319" y="164" on="0"/>
        <pt x="1322" y="155" on="1"/>
        <pt x="1333" y="130" on="0"/>
        <pt x="1384" y="92" on="0"/>
        <pt x="1439" y="76" on="0"/>
        <pt x="1479" y="68" on="0"/>
        <pt x="1489" y="68" on="1"/>
        <pt x="1497" y="56" on="0"/>
        <pt x="1498" y="-4" on="0"/>
        <pt x="1493" y="-9" on="1"/>
        <pt x="1474" y="-8" on="0"/>
        <pt x="1274" y="7" on="0"/>
        <pt x="1215" y="7" on="1"/>
        <pt x="1153" y="7" on="0"/>
        <pt x="922" y="-9" on="0"/>
        <pt x="912" y="-9" on="1"/>
        <pt x="903" y="-1" on="0"/>
        <pt x="903" y="65" on="0"/>
        <pt x="912" y="68" on="1"/>
        <pt x="941" y="68" on="0"/>
        <pt x="1026" y="87" on="0"/>
        <pt x="1044" y="103" on="1"/>
        <pt x="1058" y="116" on="0"/>
        <pt x="1058" y="137" on="1"/>
        <pt x="1058" y="157" on="0"/>
        <pt x="986" y="355" on="0"/>
        <pt x="950" y="444" on="1"/>
        <pt x="914" y="534" on="1"/>
        <pt x="907" y="543" on="0"/>
        <pt x="901" y="543" on="1"/>
        <pt x="868" y="545" on="0"/>
        <pt x="785" y="545" on="0"/>
        <pt x="692" y="543" on="0"/>
        <pt x="675" y="543" on="1"/>
        <pt x="529" y="543" on="0"/>
        <pt x="438" y="538" on="1"/>
        <pt x="435" y="538" on="0"/>
        <pt x="424" y="531" on="0"/>
        <pt x="424" y="529" on="1"/>
        <pt x="362" y="383" on="0"/>
        <pt x="331" y="296" on="1"/>
        <pt x="313" y="248" on="0"/>
        <pt x="290" y="155" on="0"/>
        <pt x="290" y="137" on="1"/>
        <pt x="290" y="117" on="0"/>
        <pt x="334" y="88" on="0"/>
        <pt x="397" y="74" on="0"/>
        <pt x="443" y="68" on="0"/>
        <pt x="454" y="68" on="1"/>
        <pt x="460" y="61" on="0"/>
        <pt x="460" y="1" on="0"/>
        <pt x="456" y="-9" on="1"/>
        <pt x="437" y="-8" on="0"/>
        <pt x="395" y="-4" on="0"/>
        <pt x="364" y="0" on="0"/>
        <pt x="326" y="3" on="0"/>
        <pt x="292" y="5" on="0"/>
        <pt x="247" y="7" on="0"/>
        <pt x="223" y="7" on="1"/>
        <pt x="176" y="7" on="0"/>
        <pt x="102" y="2" on="0"/>
        <pt x="7" y="-7" on="0"/>
        <pt x="-21" y="-9" on="1"/>
      </contour>
      <contour>
        <pt x="388" y="1708" on="1"/>
        <pt x="388" y="1732" on="0"/>
        <pt x="409" y="1785" on="0"/>
        <pt x="424" y="1803" on="1"/>
        <pt x="502" y="1899" on="0"/>
        <pt x="609" y="1899" on="1"/>
        <pt x="643" y="1899" on="0"/>
        <pt x="711" y="1881" on="0"/>
        <pt x="754" y="1861" on="0"/>
        <pt x="789" y="1842" on="1"/>
        <pt x="903" y="1778" on="0"/>
        <pt x="953" y="1778" on="1"/>
        <pt x="990" y="1778" on="0"/>
        <pt x="1054" y="1808" on="0"/>
        <pt x="1088" y="1842" on="0"/>
        <pt x="1119" y="1876" on="0"/>
        <pt x="1124" y="1879" on="1"/>
        <pt x="1130" y="1879" on="0"/>
        <pt x="1142" y="1859" on="0"/>
        <pt x="1142" y="1851" on="1"/>
        <pt x="1142" y="1804" on="0"/>
        <pt x="1104" y="1756" on="1"/>
        <pt x="1025" y="1660" on="0"/>
        <pt x="919" y="1660" on="1"/>
        <pt x="885" y="1660" on="0"/>
        <pt x="817" y="1678" on="0"/>
        <pt x="777" y="1697" on="0"/>
        <pt x="741" y="1717" on="1"/>
        <pt x="737" y="1719" on="0"/>
        <pt x="703" y="1738" on="0"/>
        <pt x="693" y="1744" on="0"/>
        <pt x="663" y="1759" on="0"/>
        <pt x="650" y="1765" on="0"/>
        <pt x="624" y="1775" on="0"/>
        <pt x="607" y="1779" on="0"/>
        <pt x="585" y="1783" on="0"/>
        <pt x="575" y="1783" on="1"/>
        <pt x="538" y="1783" on="0"/>
        <pt x="474" y="1752" on="0"/>
        <pt x="439" y="1716" on="0"/>
        <pt x="409" y="1680" on="0"/>
        <pt x="404" y="1678" on="1"/>
        <pt x="397" y="1678" on="0"/>
        <pt x="388" y="1700" on="0"/>
      </contour>
      <contour>
        <pt x="472" y="661" on="1"/>
        <pt x="472" y="652" on="0"/>
        <pt x="477" y="652" on="1"/>
        <pt x="555" y="645" on="0"/>
        <pt x="670" y="645" on="1"/>
        <pt x="751" y="645" on="0"/>
        <pt x="857" y="652" on="1"/>
        <pt x="859" y="652" on="0"/>
        <pt x="863" y="658" on="0"/>
        <pt x="863" y="661" on="1"/>
        <pt x="864" y="663" on="1"/>
        <pt x="673" y="1154" on="1"/>
      </contour>
    </TTGlyph>
    <TTGlyph name="B" xMin="91" yMin="-7" xMax="1297" yMax="1507">
      <contour>
        <pt x="91" y="3" on="0"/>
        <pt x="91" y="58" on="0"/>
        <pt x="98" y="68" on="1"/>
        <pt x="134" y="68" on="0"/>
        <pt x="243" y="87" on="0"/>
        <pt x="249" y="105" on="1"/>
        <pt x="264" y="153" on="0"/>
        <pt x="264" y="296" on="1"/>
        <pt x="264" y="1204" on="1"/>
        <pt x="264" y="1347" on="0"/>
        <pt x="249" y="1395" on="1"/>
        <pt x="244" y="1408" on="0"/>
        <pt x="178" y="1426" on="0"/>
        <pt x="117" y="1432" on="0"/>
        <pt x="98" y="1432" on="1"/>
        <pt x="91" y="1442" on="0"/>
        <pt x="91" y="1497" on="0"/>
        <pt x="98" y="1507" on="1"/>
        <pt x="294" y="1498" on="0"/>
        <pt x="394" y="1498" on="1"/>
        <pt x="435" y="1498" on="0"/>
        <pt x="661" y="1505" on="0"/>
        <pt x="732" y="1505" on="1"/>
        <pt x="798" y="1505" on="0"/>
        <pt x="923" y="1483" on="0"/>
        <pt x="1045" y="1430" on="0"/>
        <pt x="1136" y="1352" on="0"/>
        <pt x="1192" y="1229" on="0"/>
        <pt x="1192" y="1154" on="1"/>
        <pt x="1192" y="1103" on="0"/>
        <pt x="1156" y="1008" on="0"/>
        <pt x="1102" y="940" on="0"/>
        <pt x="1034" y="882" on="0"/>
        <pt x="977" y="848" on="0"/>
        <pt x="953" y="839" on="1"/>
        <pt x="948" y="837" on="0"/>
        <pt x="943" y="831" on="0"/>
        <pt x="944" y="827" on="0"/>
        <pt x="946" y="825" on="1"/>
        <pt x="982" y="823" on="0"/>
        <pt x="1071" y="788" on="0"/>
        <pt x="1167" y="722" on="0"/>
        <pt x="1246" y="635" on="0"/>
        <pt x="1297" y="513" on="0"/>
        <pt x="1297" y="447" on="1"/>
        <pt x="1297" y="343" on="0"/>
        <pt x="1180" y="146" on="0"/>
        <pt x="1088" y="87" on="1"/>
        <pt x="1028" y="48" on="0"/>
        <pt x="868" y="5" on="0"/>
        <pt x="725" y="-7" on="0"/>
        <pt x="625" y="-7" on="1"/>
        <pt x="98" y="-7" on="1"/>
      </contour>
      <contour>
        <pt x="524" y="260" on="1"/>
        <pt x="524" y="137" on="0"/>
        <pt x="543" y="114" on="1"/>
        <pt x="561" y="92" on="0"/>
        <pt x="638" y="80" on="0"/>
        <pt x="705" y="80" on="1"/>
        <pt x="749" y="80" on="0"/>
        <pt x="829" y="97" on="0"/>
        <pt x="910" y="142" on="0"/>
        <pt x="969" y="213" on="0"/>
        <pt x="1005" y="328" on="0"/>
        <pt x="1005" y="401" on="1"/>
        <pt x="1005" y="456" on="0"/>
        <pt x="987" y="553" on="0"/>
        <pt x="938" y="649" on="0"/>
        <pt x="860" y="717" on="0"/>
        <pt x="734" y="759" on="0"/>
        <pt x="652" y="759" on="1"/>
        <pt x="524" y="759" on="1"/>
      </contour>
      <contour>
        <pt x="524" y="846" on="1"/>
        <pt x="698" y="846" on="1"/>
        <pt x="800" y="846" on="0"/>
        <pt x="919" y="995" on="0"/>
        <pt x="919" y="1110" on="1"/>
        <pt x="919" y="1263" on="0"/>
        <pt x="775" y="1418" on="0"/>
        <pt x="648" y="1418" on="1"/>
        <pt x="544" y="1418" on="0"/>
        <pt x="534" y="1393" on="1"/>
        <pt x="531" y="1387" on="0"/>
        <pt x="528" y="1372" on="0"/>
        <pt x="526" y="1352" on="0"/>
        <pt x="525" y="1334" on="0"/>
        <pt x="524" y="1304" on="0"/>
        <pt x="524" y="1285" on="0"/>
        <pt x="524" y="1248" on="0"/>
        <pt x="524" y="1238" on="1"/>
      </contour>
    </TTGlyph>
    <TTGlyph name="C" xMin="103" yMin="-14" xMax="1459" yMax="1521">
      <contour>
        <pt x="103" y="734" on="1"/>
        <pt x="103" y="894" on="0"/>
        <pt x="223" y="1185" on="0"/>
        <pt x="429" y="1396" on="0"/>
        <pt x="720" y="1521" on="0"/>
        <pt x="882" y="1521" on="1"/>
        <pt x="1146" y="1521" on="0"/>
        <pt x="1361" y="1475" on="1"/>
        <pt x="1362" y="1473" on="0"/>
        <pt x="1396" y="1309" on="0"/>
        <pt x="1427" y="1147" on="0"/>
        <pt x="1427" y="1135" on="1"/>
        <pt x="1427" y="1122" on="0"/>
        <pt x="1392" y="1099" on="0"/>
        <pt x="1373" y="1099" on="1"/>
        <pt x="1349" y="1099" on="0"/>
        <pt x="1341" y="1110" on="1"/>
        <pt x="1336" y="1133" on="0"/>
        <pt x="1322" y="1174" on="0"/>
        <pt x="1290" y="1242" on="0"/>
        <pt x="1249" y="1298" on="0"/>
        <pt x="1179" y="1359" on="0"/>
        <pt x="1094" y="1402" on="0"/>
        <pt x="971" y="1430" on="0"/>
        <pt x="898" y="1430" on="1"/>
        <pt x="818" y="1430" on="0"/>
        <pt x="677" y="1380" on="0"/>
        <pt x="569" y="1291" on="0"/>
        <pt x="483" y="1171" on="0"/>
        <pt x="428" y="1029" on="0"/>
        <pt x="399" y="874" on="0"/>
        <pt x="399" y="793" on="1"/>
        <pt x="399" y="685" on="0"/>
        <pt x="440" y="480" on="0"/>
        <pt x="527" y="296" on="0"/>
        <pt x="652" y="158" on="0"/>
        <pt x="832" y="78" on="0"/>
        <pt x="939" y="78" on="1"/>
        <pt x="1119" y="78" on="0"/>
        <pt x="1231" y="178" on="1"/>
        <pt x="1274" y="215" on="0"/>
        <pt x="1344" y="335" on="0"/>
        <pt x="1376" y="421" on="0"/>
        <pt x="1382" y="451" on="1"/>
        <pt x="1404" y="451" on="0"/>
        <pt x="1452" y="436" on="0"/>
        <pt x="1459" y="429" on="1"/>
        <pt x="1459" y="409" on="0"/>
        <pt x="1429" y="255" on="0"/>
        <pt x="1385" y="101" on="0"/>
        <pt x="1370" y="91" on="1"/>
        <pt x="1260" y="41" on="0"/>
        <pt x="1023" y="-14" on="0"/>
        <pt x="876" y="-14" on="1"/>
        <pt x="713" y="-14" on="0"/>
        <pt x="426" y="103" on="0"/>
        <pt x="221" y="303" on="0"/>
        <pt x="103" y="580" on="0"/>
      </contour>
    </TTGlyph>
    <TTGlyph name="Ccedilla" xMin="103" yMin="-388" xMax="1459" yMax="1521">
      <contour>
        <pt x="103" y="734" on="1"/>
        <pt x="103" y="894" on="0"/>
        <pt x="223" y="1185" on="0"/>
        <pt x="429" y="1396" on="0"/>
        <pt x="720" y="1521" on="0"/>
        <pt x="882" y="1521" on="1"/>
        <pt x="1146" y="1521" on="0"/>
        <pt x="1361" y="1475" on="1"/>
        <pt x="1362" y="1473" on="0"/>
        <pt x="1396" y="1309" on="0"/>
        <pt x="1427" y="1147" on="0"/>
        <pt x="1427" y="1135" on="1"/>
        <pt x="1427" y="1122" on="0"/>
        <pt x="1392" y="1099" on="0"/>
        <pt x="1373" y="1099" on="1"/>
        <pt x="1349" y="1099" on="0"/>
        <pt x="1341" y="1110" on="1"/>
        <pt x="1336" y="1133" on="0"/>
        <pt x="1322" y="1174" on="0"/>
        <pt x="1290" y="1242" on="0"/>
        <pt x="1249" y="1298" on="0"/>
        <pt x="1179" y="1359" on="0"/>
        <pt x="1094" y="1402" on="0"/>
        <pt x="971" y="1430" on="0"/>
        <pt x="898" y="1430" on="1"/>
        <pt x="818" y="1430" on="0"/>
        <pt x="677" y="1380" on="0"/>
        <pt x="569" y="1291" on="0"/>
        <pt x="483" y="1171" on="0"/>
        <pt x="428" y="1029" on="0"/>
        <pt x="399" y="874" on="0"/>
        <pt x="399" y="793" on="1"/>
        <pt x="399" y="685" on="0"/>
        <pt x="440" y="480" on="0"/>
        <pt x="527" y="296" on="0"/>
        <pt x="652" y="158" on="0"/>
        <pt x="832" y="78" on="0"/>
        <pt x="939" y="78" on="1"/>
        <pt x="1119" y="78" on="0"/>
        <pt x="1231" y="178" on="1"/>
        <pt x="1274" y="215" on="0"/>
        <pt x="1344" y="335" on="0"/>
        <pt x="1376" y="421" on="0"/>
        <pt x="1382" y="451" on="1"/>
        <pt x="1404" y="451" on="0"/>
        <pt x="1452" y="436" on="0"/>
        <pt x="1459" y="429" on="1"/>
        <pt x="1459" y="409" on="0"/>
        <pt x="1429" y="255" on="0"/>
        <pt x="1385" y="101" on="0"/>
        <pt x="1370" y="91" on="1"/>
        <pt x="1260" y="41" on="0"/>
        <pt x="1023" y="-14" on="0"/>
        <pt x="876" y="-14" on="1"/>
        <pt x="713" y="-14" on="0"/>
        <pt x="426" y="103" on="0"/>
        <pt x="221" y="303" on="0"/>
        <pt x="103" y="580" on="0"/>
      </contour>
      <contour>
        <pt x="716" y="-315" on="1"/>
        <pt x="716" y="-303" on="0"/>
        <pt x="731" y="-287" on="0"/>
        <pt x="739" y="-287" on="1"/>
        <pt x="744" y="-288" on="0"/>
        <pt x="816" y="-321" on="0"/>
        <pt x="844" y="-321" on="1"/>
        <pt x="899" y="-321" on="0"/>
        <pt x="958" y="-275" on="0"/>
        <pt x="958" y="-242" on="1"/>
        <pt x="958" y="-204" on="0"/>
        <pt x="917" y="-155" on="0"/>
        <pt x="885" y="-155" on="1"/>
        <pt x="877" y="-155" on="0"/>
        <pt x="859" y="-159" on="0"/>
        <pt x="847" y="-162" on="0"/>
        <pt x="823" y="-171" on="0"/>
        <pt x="816" y="-173" on="1"/>
        <pt x="812" y="-173" on="0"/>
        <pt x="787" y="-146" on="0"/>
        <pt x="789" y="-137" on="1"/>
        <pt x="857" y="-21" on="0"/>
        <pt x="866" y="-2" on="1"/>
        <pt x="933" y="-2" on="1"/>
        <pt x="896" y="-50" on="0"/>
        <pt x="891" y="-62" on="1"/>
        <pt x="896" y="-62" on="0"/>
        <pt x="947" y="-59" on="0"/>
        <pt x="953" y="-59" on="1"/>
        <pt x="1004" y="-59" on="0"/>
        <pt x="1074" y="-133" on="0"/>
        <pt x="1074" y="-185" on="1"/>
        <pt x="1074" y="-243" on="0"/>
        <pt x="1012" y="-336" on="0"/>
        <pt x="901" y="-388" on="0"/>
        <pt x="830" y="-388" on="1"/>
        <pt x="809" y="-388" on="0"/>
        <pt x="766" y="-378" on="0"/>
        <pt x="735" y="-365" on="0"/>
        <pt x="725" y="-358" on="1"/>
        <pt x="716" y="-340" on="0"/>
      </contour>
    </TTGlyph>
    <TTGlyph name="D" xMin="91" yMin="-7" xMax="1573" yMax="1507">
      <contour>
        <pt x="91" y="3" on="0"/>
        <pt x="91" y="58" on="0"/>
        <pt x="98" y="68" on="1"/>
        <pt x="134" y="68" on="0"/>
        <pt x="243" y="87" on="0"/>
        <pt x="249" y="105" on="1"/>
        <pt x="264" y="153" on="0"/>
        <pt x="264" y="296" on="1"/>
        <pt x="264" y="1204" on="1"/>
        <pt x="264" y="1347" on="0"/>
        <pt x="249" y="1395" on="1"/>
        <pt x="244" y="1408" on="0"/>
        <pt x="178" y="1426" on="0"/>
        <pt x="117" y="1432" on="0"/>
        <pt x="98" y="1432" on="1"/>
        <pt x="91" y="1442" on="0"/>
        <pt x="91" y="1497" on="0"/>
        <pt x="98" y="1507" on="1"/>
        <pt x="294" y="1498" on="0"/>
        <pt x="394" y="1498" on="1"/>
        <pt x="437" y="1498" on="0"/>
        <pt x="671" y="1503" on="0"/>
        <pt x="734" y="1503" on="1"/>
        <pt x="924" y="1503" on="0"/>
        <pt x="1238" y="1396" on="0"/>
        <pt x="1455" y="1204" on="0"/>
        <pt x="1573" y="929" on="0"/>
        <pt x="1573" y="764" on="1"/>
        <pt x="1573" y="590" on="0"/>
        <pt x="1462" y="308" on="0"/>
        <pt x="1249" y="104" on="0"/>
        <pt x="921" y="-7" on="0"/>
        <pt x="711" y="-7" on="1"/>
        <pt x="98" y="-7" on="1"/>
      </contour>
      <contour>
        <pt x="524" y="296" on="1"/>
        <pt x="524" y="277" on="0"/>
        <pt x="526" y="217" on="0"/>
        <pt x="534" y="136" on="0"/>
        <pt x="540" y="123" on="1"/>
        <pt x="552" y="103" on="0"/>
        <pt x="647" y="80" on="0"/>
        <pt x="705" y="80" on="1"/>
        <pt x="836" y="80" on="0"/>
        <pt x="1045" y="158" on="0"/>
        <pt x="1198" y="315" on="0"/>
        <pt x="1279" y="564" on="0"/>
        <pt x="1279" y="727" on="1"/>
        <pt x="1279" y="868" on="0"/>
        <pt x="1216" y="1099" on="0"/>
        <pt x="1105" y="1259" on="0"/>
        <pt x="951" y="1368" on="0"/>
        <pt x="772" y="1418" on="0"/>
        <pt x="670" y="1418" on="1"/>
        <pt x="626" y="1418" on="0"/>
        <pt x="542" y="1406" on="0"/>
        <pt x="536" y="1391" on="1"/>
        <pt x="524" y="1359" on="0"/>
        <pt x="524" y="1238" on="1"/>
      </contour>
    </TTGlyph>
    <TTGlyph name="E" xMin="91" yMin="-7" xMax="1302" yMax="1514">
      <contour>
        <pt x="91" y="3" on="0"/>
        <pt x="91" y="58" on="0"/>
        <pt x="98" y="68" on="1"/>
        <pt x="134" y="68" on="0"/>
        <pt x="243" y="87" on="0"/>
        <pt x="249" y="105" on="1"/>
        <pt x="264" y="153" on="0"/>
        <pt x="264" y="296" on="1"/>
        <pt x="264" y="1204" on="1"/>
        <pt x="264" y="1347" on="0"/>
        <pt x="249" y="1395" on="1"/>
        <pt x="245" y="1405" on="0"/>
        <pt x="205" y="1421" on="0"/>
        <pt x="154" y="1429" on="0"/>
        <pt x="110" y="1434" on="0"/>
        <pt x="98" y="1434" on="1"/>
        <pt x="91" y="1444" on="0"/>
        <pt x="91" y="1499" on="0"/>
        <pt x="98" y="1509" on="1"/>
        <pt x="280" y="1496" on="0"/>
        <pt x="394" y="1496" on="1"/>
        <pt x="467" y="1496" on="0"/>
        <pt x="1033" y="1514" on="0"/>
        <pt x="1133" y="1514" on="1"/>
        <pt x="1143" y="1446" on="0"/>
        <pt x="1197" y="1202" on="0"/>
        <pt x="1199" y="1190" on="1"/>
        <pt x="1188" y="1179" on="0"/>
        <pt x="1151" y="1179" on="1"/>
        <pt x="1124" y="1179" on="0"/>
        <pt x="1117" y="1195" on="1"/>
        <pt x="1080" y="1311" on="0"/>
        <pt x="959" y="1414" on="0"/>
        <pt x="862" y="1414" on="1"/>
        <pt x="670" y="1414" on="1"/>
        <pt x="544" y="1414" on="0"/>
        <pt x="534" y="1389" on="1"/>
        <pt x="531" y="1381" on="0"/>
        <pt x="527" y="1359" on="0"/>
        <pt x="525" y="1341" on="0"/>
        <pt x="524" y="1308" on="0"/>
        <pt x="524" y="1290" on="0"/>
        <pt x="524" y="1247" on="0"/>
        <pt x="524" y="1238" on="1"/>
        <pt x="524" y="825" on="1"/>
        <pt x="524" y="816" on="0"/>
        <pt x="580" y="805" on="0"/>
        <pt x="620" y="805" on="1"/>
        <pt x="741" y="805" on="1"/>
        <pt x="769" y="805" on="0"/>
        <pt x="810" y="806" on="0"/>
        <pt x="848" y="811" on="0"/>
        <pt x="874" y="815" on="0"/>
        <pt x="899" y="827" on="0"/>
        <pt x="915" y="838" on="0"/>
        <pt x="931" y="860" on="0"/>
        <pt x="940" y="878" on="0"/>
        <pt x="952" y="913" on="0"/>
        <pt x="960" y="942" on="0"/>
        <pt x="967" y="967" on="1"/>
        <pt x="970" y="985" on="0"/>
        <pt x="999" y="985" on="1"/>
        <pt x="1026" y="985" on="0"/>
        <pt x="1040" y="971" on="1"/>
        <pt x="1040" y="538" on="1"/>
        <pt x="1031" y="529" on="0"/>
        <pt x="1001" y="529" on="1"/>
        <pt x="974" y="529" on="0"/>
        <pt x="967" y="547" on="1"/>
        <pt x="952" y="603" on="0"/>
        <pt x="924" y="667" on="0"/>
        <pt x="907" y="686" on="0"/>
        <pt x="894" y="693" on="1"/>
        <pt x="862" y="709" on="0"/>
        <pt x="686" y="709" on="1"/>
        <pt x="524" y="709" on="0"/>
        <pt x="524" y="684" on="1"/>
        <pt x="524" y="296" on="1"/>
        <pt x="524" y="147" on="0"/>
        <pt x="538" y="123" on="1"/>
        <pt x="554" y="104" on="0"/>
        <pt x="628" y="91" on="0"/>
        <pt x="693" y="92" on="1"/>
        <pt x="834" y="92" on="1"/>
        <pt x="995" y="92" on="0"/>
        <pt x="1074" y="155" on="1"/>
        <pt x="1155" y="222" on="0"/>
        <pt x="1206" y="378" on="1"/>
        <pt x="1210" y="392" on="0"/>
        <pt x="1238" y="392" on="1"/>
        <pt x="1256" y="392" on="0"/>
        <pt x="1297" y="384" on="0"/>
        <pt x="1302" y="378" on="1"/>
        <pt x="1294" y="357" on="0"/>
        <pt x="1242" y="211" on="0"/>
        <pt x="1216" y="136" on="0"/>
        <pt x="1184" y="28" on="0"/>
        <pt x="1179" y="-7" on="1"/>
        <pt x="1120" y="-7" on="0"/>
        <pt x="568" y="-2" on="0"/>
        <pt x="397" y="-2" on="1"/>
        <pt x="320" y="-2" on="0"/>
        <pt x="118" y="-7" on="0"/>
        <pt x="98" y="-7" on="1"/>
      </contour>
    </TTGlyph>
    <TTGlyph name="Eacute" xMin="91" yMin="-7" xMax="1302" yMax="1972">
      <contour>
        <pt x="91" y="3" on="0"/>
        <pt x="91" y="58" on="0"/>
        <pt x="98" y="68" on="1"/>
        <pt x="134" y="68" on="0"/>
        <pt x="243" y="87" on="0"/>
        <pt x="249" y="105" on="1"/>
        <pt x="264" y="153" on="0"/>
        <pt x="264" y="296" on="1"/>
        <pt x="264" y="1204" on="1"/>
        <pt x="264" y="1347" on="0"/>
        <pt x="249" y="1395" on="1"/>
        <pt x="245" y="1405" on="0"/>
        <pt x="205" y="1421" on="0"/>
        <pt x="154" y="1429" on="0"/>
        <pt x="110" y="1434" on="0"/>
        <pt x="98" y="1434" on="1"/>
        <pt x="91" y="1444" on="0"/>
        <pt x="91" y="1499" on="0"/>
        <pt x="98" y="1509" on="1"/>
        <pt x="280" y="1496" on="0"/>
        <pt x="394" y="1496" on="1"/>
        <pt x="467" y="1496" on="0"/>
        <pt x="1033" y="1514" on="0"/>
        <pt x="1133" y="1514" on="1"/>
        <pt x="1143" y="1446" on="0"/>
        <pt x="1197" y="1202" on="0"/>
        <pt x="1199" y="1190" on="1"/>
        <pt x="1188" y="1179" on="0"/>
        <pt x="1151" y="1179" on="1"/>
        <pt x="1124" y="1179" on="0"/>
        <pt x="1117" y="1195" on="1"/>
        <pt x="1080" y="1311" on="0"/>
        <pt x="959" y="1414" on="0"/>
        <pt x="862" y="1414" on="1"/>
        <pt x="670" y="1414" on="1"/>
        <pt x="544" y="1414" on="0"/>
        <pt x="534" y="1389" on="1"/>
        <pt x="531" y="1381" on="0"/>
        <pt x="527" y="1359" on="0"/>
        <pt x="525" y="1341" on="0"/>
        <pt x="524" y="1308" on="0"/>
        <pt x="524" y="1290" on="0"/>
        <pt x="524" y="1247" on="0"/>
        <pt x="524" y="1238" on="1"/>
        <pt x="524" y="825" on="1"/>
        <pt x="524" y="816" on="0"/>
        <pt x="580" y="805" on="0"/>
        <pt x="620" y="805" on="1"/>
        <pt x="741" y="805" on="1"/>
        <pt x="769" y="805" on="0"/>
        <pt x="810" y="806" on="0"/>
        <pt x="848" y="811" on="0"/>
        <pt x="874" y="815" on="0"/>
        <pt x="899" y="827" on="0"/>
        <pt x="915" y="838" on="0"/>
        <pt x="931" y="860" on="0"/>
        <pt x="940" y="878" on="0"/>
        <pt x="952" y="913" on="0"/>
        <pt x="960" y="942" on="0"/>
        <pt x="967" y="967" on="1"/>
        <pt x="970" y="985" on="0"/>
        <pt x="999" y="985" on="1"/>
        <pt x="1026" y="985" on="0"/>
        <pt x="1040" y="971" on="1"/>
        <pt x="1040" y="538" on="1"/>
        <pt x="1031" y="529" on="0"/>
        <pt x="1001" y="529" on="1"/>
        <pt x="974" y="529" on="0"/>
        <pt x="967" y="547" on="1"/>
        <pt x="952" y="603" on="0"/>
        <pt x="924" y="667" on="0"/>
        <pt x="907" y="686" on="0"/>
        <pt x="894" y="693" on="1"/>
        <pt x="862" y="709" on="0"/>
        <pt x="686" y="709" on="1"/>
        <pt x="524" y="709" on="0"/>
        <pt x="524" y="684" on="1"/>
        <pt x="524" y="296" on="1"/>
        <pt x="524" y="147" on="0"/>
        <pt x="538" y="123" on="1"/>
        <pt x="554" y="104" on="0"/>
        <pt x="628" y="91" on="0"/>
        <pt x="693" y="91" on="1"/>
        <pt x="834" y="91" on="1"/>
        <pt x="995" y="91" on="0"/>
        <pt x="1074" y="155" on="1"/>
        <pt x="1155" y="222" on="0"/>
        <pt x="1206" y="378" on="1"/>
        <pt x="1210" y="392" on="0"/>
        <pt x="1238" y="392" on="1"/>
        <pt x="1256" y="392" on="0"/>
        <pt x="1297" y="384" on="0"/>
        <pt x="1302" y="378" on="1"/>
        <pt x="1294" y="357" on="0"/>
        <pt x="1242" y="211" on="0"/>
        <pt x="1216" y="136" on="0"/>
        <pt x="1184" y="28" on="0"/>
        <pt x="1179" y="-7" on="1"/>
        <pt x="1120" y="-7" on="0"/>
        <pt x="568" y="-2" on="0"/>
        <pt x="397" y="-2" on="1"/>
        <pt x="320" y="-2" on="0"/>
        <pt x="118" y="-7" on="0"/>
        <pt x="98" y="-7" on="1"/>
      </contour>
      <contour>
        <pt x="563" y="1699" on="1"/>
        <pt x="563" y="1713" on="0"/>
        <pt x="768" y="1915" on="0"/>
        <pt x="834" y="1965" on="1"/>
        <pt x="848" y="1972" on="0"/>
        <pt x="876" y="1972" on="1"/>
        <pt x="926" y="1972" on="0"/>
        <pt x="1001" y="1930" on="0"/>
        <pt x="1001" y="1897" on="1"/>
        <pt x="1001" y="1868" on="0"/>
        <pt x="883" y="1783" on="0"/>
        <pt x="735" y="1712" on="0"/>
        <pt x="605" y="1660" on="0"/>
        <pt x="591" y="1660" on="1"/>
        <pt x="580" y="1660" on="0"/>
        <pt x="563" y="1685" on="0"/>
      </contour>
    </TTGlyph>
    <TTGlyph name="Ecircumflex" xMin="91" yMin="-7" xMax="1302" yMax="1970">
      <contour>
        <pt x="91" y="3" on="0"/>
        <pt x="91" y="58" on="0"/>
        <pt x="98" y="68" on="1"/>
        <pt x="134" y="68" on="0"/>
        <pt x="243" y="87" on="0"/>
        <pt x="249" y="105" on="1"/>
        <pt x="264" y="153" on="0"/>
        <pt x="264" y="296" on="1"/>
        <pt x="264" y="1204" on="1"/>
        <pt x="264" y="1347" on="0"/>
        <pt x="249" y="1395" on="1"/>
        <pt x="245" y="1405" on="0"/>
        <pt x="205" y="1421" on="0"/>
        <pt x="154" y="1429" on="0"/>
        <pt x="110" y="1434" on="0"/>
        <pt x="98" y="1434" on="1"/>
        <pt x="91" y="1444" on="0"/>
        <pt x="91" y="1499" on="0"/>
        <pt x="98" y="1509" on="1"/>
        <pt x="280" y="1496" on="0"/>
        <pt x="394" y="1496" on="1"/>
        <pt x="467" y="1496" on="0"/>
        <pt x="1033" y="1514" on="0"/>
        <pt x="1133" y="1514" on="1"/>
        <pt x="1143" y="1446" on="0"/>
        <pt x="1197" y="1202" on="0"/>
        <pt x="1199" y="1190" on="1"/>
        <pt x="1188" y="1179" on="0"/>
        <pt x="1151" y="1179" on="1"/>
        <pt x="1124" y="1179" on="0"/>
        <pt x="1117" y="1195" on="1"/>
        <pt x="1080" y="1311" on="0"/>
        <pt x="959" y="1414" on="0"/>
        <pt x="862" y="1414" on="1"/>
        <pt x="670" y="1414" on="1"/>
        <pt x="544" y="1414" on="0"/>
        <pt x="534" y="1389" on="1"/>
        <pt x="531" y="1381" on="0"/>
        <pt x="527" y="1359" on="0"/>
        <pt x="525" y="1341" on="0"/>
        <pt x="524" y="1308" on="0"/>
        <pt x="524" y="1290" on="0"/>
        <pt x="524" y="1247" on="0"/>
        <pt x="524" y="1238" on="1"/>
        <pt x="524" y="825" on="1"/>
        <pt x="524" y="816" on="0"/>
        <pt x="580" y="805" on="0"/>
        <pt x="620" y="805" on="1"/>
        <pt x="741" y="805" on="1"/>
        <pt x="769" y="805" on="0"/>
        <pt x="810" y="806" on="0"/>
        <pt x="848" y="811" on="0"/>
        <pt x="874" y="815" on="0"/>
        <pt x="899" y="827" on="0"/>
        <pt x="915" y="838" on="0"/>
        <pt x="931" y="860" on="0"/>
        <pt x="940" y="878" on="0"/>
        <pt x="952" y="913" on="0"/>
        <pt x="960" y="942" on="0"/>
        <pt x="967" y="967" on="1"/>
        <pt x="970" y="985" on="0"/>
        <pt x="999" y="985" on="1"/>
        <pt x="1026" y="985" on="0"/>
        <pt x="1040" y="971" on="1"/>
        <pt x="1040" y="538" on="1"/>
        <pt x="1031" y="529" on="0"/>
        <pt x="1001" y="529" on="1"/>
        <pt x="974" y="529" on="0"/>
        <pt x="967" y="547" on="1"/>
        <pt x="952" y="603" on="0"/>
        <pt x="924" y="667" on="0"/>
        <pt x="907" y="686" on="0"/>
        <pt x="894" y="693" on="1"/>
        <pt x="862" y="709" on="0"/>
        <pt x="686" y="709" on="1"/>
        <pt x="524" y="709" on="0"/>
        <pt x="524" y="684" on="1"/>
        <pt x="524" y="296" on="1"/>
        <pt x="524" y="147" on="0"/>
        <pt x="538" y="123" on="1"/>
        <pt x="554" y="104" on="0"/>
        <pt x="628" y="91" on="0"/>
        <pt x="693" y="91" on="1"/>
        <pt x="834" y="91" on="1"/>
        <pt x="995" y="91" on="0"/>
        <pt x="1074" y="155" on="1"/>
        <pt x="1155" y="222" on="0"/>
        <pt x="1206" y="378" on="1"/>
        <pt x="1210" y="392" on="0"/>
        <pt x="1238" y="392" on="1"/>
        <pt x="1256" y="392" on="0"/>
        <pt x="1297" y="384" on="0"/>
        <pt x="1302" y="378" on="1"/>
        <pt x="1294" y="357" on="0"/>
        <pt x="1242" y="211" on="0"/>
        <pt x="1216" y="136" on="0"/>
        <pt x="1184" y="28" on="0"/>
        <pt x="1179" y="-7" on="1"/>
        <pt x="1120" y="-7" on="0"/>
        <pt x="568" y="-2" on="0"/>
        <pt x="397" y="-2" on="1"/>
        <pt x="320" y="-2" on="0"/>
        <pt x="118" y="-7" on="0"/>
        <pt x="98" y="-7" on="1"/>
      </contour>
      <contour>
        <pt x="408" y="1703" on="1"/>
        <pt x="409" y="1704" on="0"/>
        <pt x="512" y="1793" on="0"/>
        <pt x="561" y="1842" on="1"/>
        <pt x="628" y="1906" on="0"/>
        <pt x="659" y="1949" on="1"/>
        <pt x="660" y="1951" on="0"/>
        <pt x="665" y="1956" on="0"/>
        <pt x="667" y="1959" on="0"/>
        <pt x="670" y="1963" on="0"/>
        <pt x="672" y="1964" on="0"/>
        <pt x="675" y="1967" on="0"/>
        <pt x="677" y="1968" on="0"/>
        <pt x="680" y="1970" on="0"/>
        <pt x="682" y="1970" on="0"/>
        <pt x="684" y="1970" on="1"/>
        <pt x="697" y="1970" on="0"/>
        <pt x="714" y="1949" on="1"/>
        <pt x="721" y="1940" on="0"/>
        <pt x="745" y="1911" on="0"/>
        <pt x="763" y="1889" on="0"/>
        <pt x="791" y="1859" on="0"/>
        <pt x="805" y="1845" on="1"/>
        <pt x="843" y="1806" on="0"/>
        <pt x="918" y="1740" on="0"/>
        <pt x="963" y="1705" on="0"/>
        <pt x="964" y="1703" on="1"/>
        <pt x="964" y="1688" on="0"/>
        <pt x="951" y="1660" on="0"/>
        <pt x="932" y="1660" on="0"/>
        <pt x="869" y="1690" on="0"/>
        <pt x="791" y="1733" on="0"/>
        <pt x="714" y="1779" on="0"/>
        <pt x="686" y="1797" on="1"/>
        <pt x="631" y="1757" on="0"/>
        <pt x="451" y="1660" on="0"/>
        <pt x="431" y="1660" on="1"/>
        <pt x="420" y="1660" on="0"/>
        <pt x="408" y="1690" on="0"/>
      </contour>
    </TTGlyph>
    <TTGlyph name="Edieresis" xMin="91" yMin="-7" xMax="1302" yMax="1924">
      <contour>
        <pt x="91" y="3" on="0"/>
        <pt x="91" y="58" on="0"/>
        <pt x="98" y="68" on="1"/>
        <pt x="134" y="68" on="0"/>
        <pt x="243" y="87" on="0"/>
        <pt x="249" y="105" on="1"/>
        <pt x="264" y="153" on="0"/>
        <pt x="264" y="296" on="1"/>
        <pt x="264" y="1204" on="1"/>
        <pt x="264" y="1347" on="0"/>
        <pt x="249" y="1395" on="1"/>
        <pt x="245" y="1405" on="0"/>
        <pt x="205" y="1421" on="0"/>
        <pt x="154" y="1429" on="0"/>
        <pt x="110" y="1434" on="0"/>
        <pt x="98" y="1434" on="1"/>
        <pt x="91" y="1444" on="0"/>
        <pt x="91" y="1499" on="0"/>
        <pt x="98" y="1509" on="1"/>
        <pt x="280" y="1496" on="0"/>
        <pt x="394" y="1496" on="1"/>
        <pt x="467" y="1496" on="0"/>
        <pt x="1033" y="1514" on="0"/>
        <pt x="1133" y="1514" on="1"/>
        <pt x="1143" y="1446" on="0"/>
        <pt x="1197" y="1202" on="0"/>
        <pt x="1199" y="1190" on="1"/>
        <pt x="1188" y="1179" on="0"/>
        <pt x="1151" y="1179" on="1"/>
        <pt x="1124" y="1179" on="0"/>
        <pt x="1117" y="1195" on="1"/>
        <pt x="1080" y="1311" on="0"/>
        <pt x="959" y="1414" on="0"/>
        <pt x="862" y="1414" on="1"/>
        <pt x="670" y="1414" on="1"/>
        <pt x="544" y="1414" on="0"/>
        <pt x="534" y="1389" on="1"/>
        <pt x="531" y="1381" on="0"/>
        <pt x="527" y="1359" on="0"/>
        <pt x="525" y="1341" on="0"/>
        <pt x="524" y="1308" on="0"/>
        <pt x="524" y="1290" on="0"/>
        <pt x="524" y="1247" on="0"/>
        <pt x="524" y="1238" on="1"/>
        <pt x="524" y="825" on="1"/>
        <pt x="524" y="816" on="0"/>
        <pt x="580" y="805" on="0"/>
        <pt x="620" y="805" on="1"/>
        <pt x="741" y="805" on="1"/>
        <pt x="769" y="805" on="0"/>
        <pt x="810" y="806" on="0"/>
        <pt x="848" y="811" on="0"/>
        <pt x="874" y="815" on="0"/>
        <pt x="899" y="827" on="0"/>
        <pt x="915" y="838" on="0"/>
        <pt x="931" y="860" on="0"/>
        <pt x="940" y="878" on="0"/>
        <pt x="952" y="913" on="0"/>
        <pt x="960" y="942" on="0"/>
        <pt x="967" y="967" on="1"/>
        <pt x="970" y="985" on="0"/>
        <pt x="999" y="985" on="1"/>
        <pt x="1026" y="985" on="0"/>
        <pt x="1040" y="971" on="1"/>
        <pt x="1040" y="538" on="1"/>
        <pt x="1031" y="529" on="0"/>
        <pt x="1001" y="529" on="1"/>
        <pt x="974" y="529" on="0"/>
        <pt x="967" y="547" on="1"/>
        <pt x="952" y="603" on="0"/>
        <pt x="924" y="667" on="0"/>
        <pt x="907" y="686" on="0"/>
        <pt x="894" y="693" on="1"/>
        <pt x="862" y="709" on="0"/>
        <pt x="686" y="709" on="1"/>
        <pt x="524" y="709" on="0"/>
        <pt x="524" y="684" on="1"/>
        <pt x="524" y="296" on="1"/>
        <pt x="524" y="147" on="0"/>
        <pt x="538" y="123" on="1"/>
        <pt x="554" y="104" on="0"/>
        <pt x="628" y="91" on="0"/>
        <pt x="693" y="91" on="1"/>
        <pt x="834" y="91" on="1"/>
        <pt x="995" y="91" on="0"/>
        <pt x="1074" y="155" on="1"/>
        <pt x="1155" y="222" on="0"/>
        <pt x="1206" y="378" on="1"/>
        <pt x="1210" y="392" on="0"/>
        <pt x="1238" y="392" on="1"/>
        <pt x="1256" y="392" on="0"/>
        <pt x="1297" y="384" on="0"/>
        <pt x="1302" y="378" on="1"/>
        <pt x="1294" y="357" on="0"/>
        <pt x="1242" y="211" on="0"/>
        <pt x="1216" y="136" on="0"/>
        <pt x="1184" y="28" on="0"/>
        <pt x="1179" y="-7" on="1"/>
        <pt x="1120" y="-7" on="0"/>
        <pt x="568" y="-2" on="0"/>
        <pt x="397" y="-2" on="1"/>
        <pt x="320" y="-2" on="0"/>
        <pt x="118" y="-7" on="0"/>
        <pt x="98" y="-7" on="1"/>
      </contour>
      <contour>
        <pt x="296" y="1792" on="1"/>
        <pt x="296" y="1847" on="0"/>
        <pt x="376" y="1924" on="0"/>
        <pt x="431" y="1924" on="1"/>
        <pt x="467" y="1924" on="0"/>
        <pt x="529" y="1889" on="0"/>
        <pt x="565" y="1828" on="0"/>
        <pt x="565" y="1792" on="1"/>
        <pt x="565" y="1738" on="0"/>
        <pt x="486" y="1660" on="0"/>
        <pt x="431" y="1660" on="1"/>
        <pt x="395" y="1660" on="0"/>
        <pt x="333" y="1695" on="0"/>
        <pt x="296" y="1756" on="0"/>
      </contour>
      <contour>
        <pt x="782" y="1792" on="1"/>
        <pt x="782" y="1847" on="0"/>
        <pt x="862" y="1924" on="0"/>
        <pt x="971" y="1924" on="0"/>
        <pt x="1051" y="1847" on="0"/>
        <pt x="1051" y="1792" on="1"/>
        <pt x="1051" y="1738" on="0"/>
        <pt x="969" y="1660" on="0"/>
        <pt x="914" y="1660" on="1"/>
        <pt x="860" y="1660" on="0"/>
        <pt x="782" y="1737" on="0"/>
      </contour>
    </TTGlyph>
    <TTGlyph name="Egrave" xMin="91" yMin="-7" xMax="1302" yMax="1972">
      <contour>
        <pt x="91" y="3" on="0"/>
        <pt x="91" y="58" on="0"/>
        <pt x="98" y="68" on="1"/>
        <pt x="134" y="68" on="0"/>
        <pt x="243" y="87" on="0"/>
        <pt x="249" y="105" on="1"/>
        <pt x="264" y="153" on="0"/>
        <pt x="264" y="296" on="1"/>
        <pt x="264" y="1204" on="1"/>
        <pt x="264" y="1347" on="0"/>
        <pt x="249" y="1395" on="1"/>
        <pt x="245" y="1405" on="0"/>
        <pt x="205" y="1421" on="0"/>
        <pt x="154" y="1429" on="0"/>
        <pt x="110" y="1434" on="0"/>
        <pt x="98" y="1434" on="1"/>
        <pt x="91" y="1444" on="0"/>
        <pt x="91" y="1499" on="0"/>
        <pt x="98" y="1509" on="1"/>
        <pt x="280" y="1496" on="0"/>
        <pt x="394" y="1496" on="1"/>
        <pt x="467" y="1496" on="0"/>
        <pt x="1033" y="1514" on="0"/>
        <pt x="1133" y="1514" on="1"/>
        <pt x="1143" y="1446" on="0"/>
        <pt x="1197" y="1202" on="0"/>
        <pt x="1199" y="1190" on="1"/>
        <pt x="1188" y="1179" on="0"/>
        <pt x="1151" y="1179" on="1"/>
        <pt x="1124" y="1179" on="0"/>
        <pt x="1117" y="1195" on="1"/>
        <pt x="1080" y="1311" on="0"/>
        <pt x="959" y="1414" on="0"/>
        <pt x="862" y="1414" on="1"/>
        <pt x="670" y="1414" on="1"/>
        <pt x="544" y="1414" on="0"/>
        <pt x="534" y="1389" on="1"/>
        <pt x="531" y="1381" on="0"/>
        <pt x="527" y="1359" on="0"/>
        <pt x="525" y="1341" on="0"/>
        <pt x="524" y="1308" on="0"/>
        <pt x="524" y="1290" on="0"/>
        <pt x="524" y="1247" on="0"/>
        <pt x="524" y="1238" on="1"/>
        <pt x="524" y="825" on="1"/>
        <pt x="524" y="816" on="0"/>
        <pt x="580" y="805" on="0"/>
        <pt x="620" y="805" on="1"/>
        <pt x="741" y="805" on="1"/>
        <pt x="769" y="805" on="0"/>
        <pt x="810" y="806" on="0"/>
        <pt x="848" y="811" on="0"/>
        <pt x="874" y="815" on="0"/>
        <pt x="899" y="827" on="0"/>
        <pt x="915" y="838" on="0"/>
        <pt x="931" y="860" on="0"/>
        <pt x="940" y="878" on="0"/>
        <pt x="952" y="913" on="0"/>
        <pt x="960" y="942" on="0"/>
        <pt x="967" y="967" on="1"/>
        <pt x="970" y="985" on="0"/>
        <pt x="999" y="985" on="1"/>
        <pt x="1026" y="985" on="0"/>
        <pt x="1040" y="971" on="1"/>
        <pt x="1040" y="538" on="1"/>
        <pt x="1031" y="529" on="0"/>
        <pt x="1001" y="529" on="1"/>
        <pt x="974" y="529" on="0"/>
        <pt x="967" y="547" on="1"/>
        <pt x="952" y="603" on="0"/>
        <pt x="924" y="667" on="0"/>
        <pt x="907" y="686" on="0"/>
        <pt x="894" y="693" on="1"/>
        <pt x="862" y="709" on="0"/>
        <pt x="686" y="709" on="1"/>
        <pt x="524" y="709" on="0"/>
        <pt x="524" y="684" on="1"/>
        <pt x="524" y="296" on="1"/>
        <pt x="524" y="147" on="0"/>
        <pt x="538" y="123" on="1"/>
        <pt x="554" y="104" on="0"/>
        <pt x="628" y="91" on="0"/>
        <pt x="693" y="91" on="1"/>
        <pt x="834" y="91" on="1"/>
        <pt x="995" y="91" on="0"/>
        <pt x="1074" y="155" on="1"/>
        <pt x="1155" y="222" on="0"/>
        <pt x="1206" y="378" on="1"/>
        <pt x="1210" y="392" on="0"/>
        <pt x="1238" y="392" on="1"/>
        <pt x="1256" y="392" on="0"/>
        <pt x="1297" y="384" on="0"/>
        <pt x="1302" y="378" on="1"/>
        <pt x="1294" y="357" on="0"/>
        <pt x="1242" y="211" on="0"/>
        <pt x="1216" y="136" on="0"/>
        <pt x="1184" y="28" on="0"/>
        <pt x="1179" y="-7" on="1"/>
        <pt x="1120" y="-7" on="0"/>
        <pt x="568" y="-2" on="0"/>
        <pt x="397" y="-2" on="1"/>
        <pt x="320" y="-2" on="0"/>
        <pt x="118" y="-7" on="0"/>
        <pt x="98" y="-7" on="1"/>
      </contour>
      <contour>
        <pt x="376" y="1897" on="1"/>
        <pt x="376" y="1930" on="0"/>
        <pt x="450" y="1972" on="0"/>
        <pt x="499" y="1972" on="1"/>
        <pt x="527" y="1972" on="0"/>
        <pt x="540" y="1965" on="1"/>
        <pt x="607" y="1915" on="0"/>
        <pt x="814" y="1713" on="0"/>
        <pt x="814" y="1699" on="1"/>
        <pt x="814" y="1685" on="0"/>
        <pt x="795" y="1660" on="0"/>
        <pt x="784" y="1660" on="1"/>
        <pt x="776" y="1660" on="0"/>
        <pt x="724" y="1677" on="0"/>
        <pt x="651" y="1708" on="0"/>
        <pt x="566" y="1747" on="0"/>
        <pt x="484" y="1792" on="0"/>
        <pt x="417" y="1836" on="0"/>
        <pt x="376" y="1880" on="0"/>
      </contour>
    </TTGlyph>
    <TTGlyph name="Eth" xMin="87" yMin="-7" xMax="1580" yMax="1507">
      <contour>
        <pt x="91" y="707" on="0"/>
        <pt x="87" y="741" on="0"/>
        <pt x="92" y="784" on="0"/>
        <pt x="98" y="793" on="1"/>
        <pt x="855" y="793" on="1"/>
        <pt x="858" y="793" on="0"/>
        <pt x="861" y="780" on="0"/>
        <pt x="862" y="758" on="0"/>
        <pt x="861" y="735" on="0"/>
        <pt x="858" y="713" on="0"/>
        <pt x="855" y="707" on="1"/>
        <pt x="96" y="707" on="1"/>
      </contour>
      <contour>
        <pt x="98" y="3" on="0"/>
        <pt x="98" y="58" on="0"/>
        <pt x="105" y="68" on="1"/>
        <pt x="141" y="68" on="0"/>
        <pt x="249" y="87" on="0"/>
        <pt x="255" y="105" on="1"/>
        <pt x="271" y="153" on="0"/>
        <pt x="271" y="296" on="1"/>
        <pt x="271" y="1204" on="1"/>
        <pt x="271" y="1347" on="0"/>
        <pt x="255" y="1395" on="1"/>
        <pt x="251" y="1408" on="0"/>
        <pt x="185" y="1426" on="0"/>
        <pt x="124" y="1432" on="0"/>
        <pt x="105" y="1432" on="1"/>
        <pt x="98" y="1442" on="0"/>
        <pt x="98" y="1497" on="0"/>
        <pt x="105" y="1507" on="1"/>
        <pt x="301" y="1498" on="0"/>
        <pt x="401" y="1498" on="1"/>
        <pt x="443" y="1498" on="0"/>
        <pt x="678" y="1503" on="0"/>
        <pt x="741" y="1503" on="1"/>
        <pt x="931" y="1503" on="0"/>
        <pt x="1245" y="1396" on="0"/>
        <pt x="1461" y="1204" on="0"/>
        <pt x="1580" y="929" on="0"/>
        <pt x="1580" y="764" on="1"/>
        <pt x="1580" y="590" on="0"/>
        <pt x="1469" y="308" on="0"/>
        <pt x="1256" y="104" on="0"/>
        <pt x="928" y="-7" on="0"/>
        <pt x="718" y="-7" on="1"/>
        <pt x="105" y="-7" on="1"/>
      </contour>
      <contour>
        <pt x="531" y="296" on="1"/>
        <pt x="531" y="277" on="0"/>
        <pt x="533" y="217" on="0"/>
        <pt x="541" y="136" on="0"/>
        <pt x="547" y="123" on="1"/>
        <pt x="559" y="103" on="0"/>
        <pt x="654" y="80" on="0"/>
        <pt x="711" y="80" on="1"/>
        <pt x="843" y="80" on="0"/>
        <pt x="1052" y="158" on="0"/>
        <pt x="1204" y="315" on="0"/>
        <pt x="1286" y="564" on="0"/>
        <pt x="1286" y="727" on="1"/>
        <pt x="1286" y="868" on="0"/>
        <pt x="1223" y="1099" on="0"/>
        <pt x="1112" y="1259" on="0"/>
        <pt x="958" y="1368" on="0"/>
        <pt x="779" y="1418" on="0"/>
        <pt x="677" y="1418" on="1"/>
        <pt x="633" y="1418" on="0"/>
        <pt x="549" y="1406" on="0"/>
        <pt x="543" y="1391" on="1"/>
        <pt x="531" y="1359" on="0"/>
        <pt x="531" y="1238" on="1"/>
      </contour>
    </TTGlyph>
    <TTGlyph name="Euro" xMin="8" yMin="-14" xMax="1427" yMax="1461">
      <contour>
        <pt x="18" y="556" on="1"/>
        <pt x="8" y="567" on="0"/>
        <pt x="49" y="654" on="0"/>
        <pt x="64" y="654" on="1"/>
        <pt x="125" y="654" on="1"/>
        <pt x="123" y="673" on="0"/>
        <pt x="123" y="707" on="1"/>
        <pt x="123" y="755" on="0"/>
        <pt x="125" y="780" on="1"/>
        <pt x="18" y="780" on="1"/>
        <pt x="8" y="790" on="0"/>
        <pt x="49" y="878" on="0"/>
        <pt x="64" y="878" on="1"/>
        <pt x="141" y="878" on="1"/>
        <pt x="169" y="1003" on="0"/>
        <pt x="303" y="1218" on="0"/>
        <pt x="492" y="1373" on="0"/>
        <pt x="738" y="1461" on="0"/>
        <pt x="873" y="1461" on="1"/>
        <pt x="1132" y="1461" on="0"/>
        <pt x="1334" y="1420" on="1"/>
        <pt x="1334" y="1417" on="0"/>
        <pt x="1355" y="1317" on="0"/>
        <pt x="1378" y="1204" on="0"/>
        <pt x="1398" y="1101" on="0"/>
        <pt x="1398" y="1092" on="1"/>
        <pt x="1398" y="1083" on="0"/>
        <pt x="1382" y="1067" on="0"/>
        <pt x="1358" y="1058" on="0"/>
        <pt x="1345" y="1058" on="1"/>
        <pt x="1322" y="1058" on="0"/>
        <pt x="1313" y="1069" on="1"/>
        <pt x="1308" y="1091" on="0"/>
        <pt x="1296" y="1131" on="0"/>
        <pt x="1265" y="1196" on="0"/>
        <pt x="1225" y="1249" on="0"/>
        <pt x="1158" y="1308" on="0"/>
        <pt x="1077" y="1348" on="0"/>
        <pt x="959" y="1375" on="0"/>
        <pt x="889" y="1375" on="1"/>
        <pt x="788" y="1375" on="0"/>
        <pt x="619" y="1295" on="0"/>
        <pt x="503" y="1156" on="0"/>
        <pt x="429" y="979" on="0"/>
        <pt x="415" y="878" on="1"/>
        <pt x="880" y="878" on="1"/>
        <pt x="896" y="864" on="0"/>
        <pt x="887" y="822" on="0"/>
        <pt x="865" y="785" on="0"/>
        <pt x="857" y="780" on="1"/>
        <pt x="408" y="780" on="1"/>
        <pt x="408" y="764" on="1"/>
        <pt x="408" y="727" on="0"/>
        <pt x="413" y="654" on="1"/>
        <pt x="880" y="654" on="1"/>
        <pt x="896" y="641" on="0"/>
        <pt x="887" y="599" on="0"/>
        <pt x="865" y="562" on="0"/>
        <pt x="857" y="556" on="1"/>
        <pt x="429" y="556" on="1"/>
        <pt x="445" y="476" on="0"/>
        <pt x="503" y="335" on="0"/>
        <pt x="591" y="212" on="0"/>
        <pt x="701" y="123" on="0"/>
        <pt x="845" y="73" on="0"/>
        <pt x="928" y="73" on="1"/>
        <pt x="1098" y="73" on="0"/>
        <pt x="1208" y="171" on="1"/>
        <pt x="1267" y="223" on="0"/>
        <pt x="1344" y="383" on="0"/>
        <pt x="1354" y="433" on="1"/>
        <pt x="1376" y="433" on="0"/>
        <pt x="1420" y="420" on="0"/>
        <pt x="1427" y="413" on="1"/>
        <pt x="1427" y="394" on="0"/>
        <pt x="1398" y="245" on="0"/>
        <pt x="1356" y="96" on="0"/>
        <pt x="1343" y="87" on="1"/>
        <pt x="1236" y="38" on="0"/>
        <pt x="1009" y="-14" on="0"/>
        <pt x="866" y="-14" on="1"/>
        <pt x="730" y="-14" on="0"/>
        <pt x="484" y="72" on="0"/>
        <pt x="295" y="224" on="0"/>
        <pt x="165" y="434" on="0"/>
        <pt x="139" y="556" on="1"/>
      </contour>
    </TTGlyph>
    <TTGlyph name="F" xMin="91" yMin="-9" xMax="1199" yMax="1514">
      <contour>
        <pt x="91" y="1" on="0"/>
        <pt x="91" y="56" on="0"/>
        <pt x="98" y="66" on="1"/>
        <pt x="116" y="66" on="0"/>
        <pt x="179" y="73" on="0"/>
        <pt x="244" y="92" on="0"/>
        <pt x="249" y="105" on="1"/>
        <pt x="264" y="153" on="0"/>
        <pt x="264" y="296" on="1"/>
        <pt x="264" y="1204" on="1"/>
        <pt x="264" y="1347" on="0"/>
        <pt x="249" y="1395" on="1"/>
        <pt x="244" y="1408" on="0"/>
        <pt x="178" y="1426" on="0"/>
        <pt x="117" y="1432" on="0"/>
        <pt x="98" y="1432" on="1"/>
        <pt x="91" y="1442" on="0"/>
        <pt x="91" y="1497" on="0"/>
        <pt x="98" y="1507" on="1"/>
        <pt x="343" y="1496" on="0"/>
        <pt x="394" y="1496" on="1"/>
        <pt x="467" y="1496" on="0"/>
        <pt x="1033" y="1514" on="0"/>
        <pt x="1133" y="1514" on="1"/>
        <pt x="1143" y="1446" on="0"/>
        <pt x="1197" y="1202" on="0"/>
        <pt x="1199" y="1190" on="1"/>
        <pt x="1188" y="1179" on="0"/>
        <pt x="1151" y="1179" on="1"/>
        <pt x="1124" y="1179" on="0"/>
        <pt x="1117" y="1195" on="1"/>
        <pt x="1080" y="1311" on="0"/>
        <pt x="959" y="1414" on="0"/>
        <pt x="862" y="1414" on="1"/>
        <pt x="670" y="1414" on="1"/>
        <pt x="544" y="1414" on="0"/>
        <pt x="534" y="1389" on="1"/>
        <pt x="531" y="1381" on="0"/>
        <pt x="527" y="1359" on="0"/>
        <pt x="525" y="1341" on="0"/>
        <pt x="524" y="1308" on="0"/>
        <pt x="524" y="1290" on="0"/>
        <pt x="524" y="1247" on="0"/>
        <pt x="524" y="1238" on="1"/>
        <pt x="524" y="821" on="1"/>
        <pt x="524" y="811" on="0"/>
        <pt x="580" y="800" on="0"/>
        <pt x="620" y="800" on="1"/>
        <pt x="741" y="800" on="1"/>
        <pt x="769" y="800" on="0"/>
        <pt x="810" y="801" on="0"/>
        <pt x="848" y="806" on="0"/>
        <pt x="874" y="811" on="0"/>
        <pt x="899" y="823" on="0"/>
        <pt x="915" y="833" on="0"/>
        <pt x="931" y="855" on="0"/>
        <pt x="940" y="874" on="0"/>
        <pt x="952" y="909" on="0"/>
        <pt x="960" y="938" on="0"/>
        <pt x="967" y="962" on="1"/>
        <pt x="970" y="980" on="0"/>
        <pt x="999" y="980" on="1"/>
        <pt x="1026" y="980" on="0"/>
        <pt x="1040" y="967" on="1"/>
        <pt x="1040" y="534" on="1"/>
        <pt x="1031" y="524" on="0"/>
        <pt x="1001" y="524" on="1"/>
        <pt x="974" y="524" on="0"/>
        <pt x="967" y="543" on="1"/>
        <pt x="952" y="598" on="0"/>
        <pt x="924" y="663" on="0"/>
        <pt x="907" y="681" on="0"/>
        <pt x="894" y="689" on="1"/>
        <pt x="862" y="705" on="0"/>
        <pt x="686" y="705" on="1"/>
        <pt x="524" y="705" on="0"/>
        <pt x="524" y="679" on="1"/>
        <pt x="524" y="296" on="1"/>
        <pt x="524" y="146" on="0"/>
        <pt x="538" y="105" on="1"/>
        <pt x="544" y="87" on="0"/>
        <pt x="674" y="66" on="0"/>
        <pt x="711" y="66" on="1"/>
        <pt x="718" y="56" on="0"/>
        <pt x="718" y="1" on="0"/>
        <pt x="711" y="-9" on="1"/>
        <pt x="529" y="5" on="0"/>
        <pt x="392" y="5" on="1"/>
        <pt x="347" y="5" on="0"/>
        <pt x="248" y="0" on="0"/>
        <pt x="122" y="-8" on="0"/>
        <pt x="98" y="-9" on="1"/>
      </contour>
    </TTGlyph>
    <TTGlyph name="G" xMin="100" yMin="-14" xMax="1596" yMax="1521">
      <contour>
        <pt x="100" y="734" on="1"/>
        <pt x="100" y="892" on="0"/>
        <pt x="221" y="1181" on="0"/>
        <pt x="427" y="1394" on="0"/>
        <pt x="718" y="1521" on="0"/>
        <pt x="880" y="1521" on="1"/>
        <pt x="1144" y="1521" on="0"/>
        <pt x="1359" y="1475" on="1"/>
        <pt x="1359" y="1473" on="0"/>
        <pt x="1392" y="1308" on="0"/>
        <pt x="1423" y="1147" on="0"/>
        <pt x="1423" y="1135" on="1"/>
        <pt x="1423" y="1122" on="0"/>
        <pt x="1389" y="1099" on="0"/>
        <pt x="1370" y="1099" on="1"/>
        <pt x="1347" y="1099" on="0"/>
        <pt x="1338" y="1110" on="1"/>
        <pt x="1333" y="1133" on="0"/>
        <pt x="1320" y="1174" on="0"/>
        <pt x="1289" y="1242" on="0"/>
        <pt x="1248" y="1298" on="0"/>
        <pt x="1178" y="1360" on="0"/>
        <pt x="1094" y="1402" on="0"/>
        <pt x="971" y="1430" on="0"/>
        <pt x="898" y="1430" on="1"/>
        <pt x="828" y="1430" on="0"/>
        <pt x="701" y="1392" on="0"/>
        <pt x="601" y="1324" on="0"/>
        <pt x="518" y="1230" on="0"/>
        <pt x="458" y="1117" on="0"/>
        <pt x="417" y="990" on="0"/>
        <pt x="397" y="856" on="0"/>
        <pt x="397" y="787" on="1"/>
        <pt x="397" y="697" on="0"/>
        <pt x="427" y="524" on="0"/>
        <pt x="484" y="365" on="0"/>
        <pt x="575" y="232" on="0"/>
        <pt x="691" y="133" on="0"/>
        <pt x="845" y="78" on="0"/>
        <pt x="933" y="78" on="1"/>
        <pt x="1060" y="78" on="0"/>
        <pt x="1161" y="128" on="1"/>
        <pt x="1179" y="135" on="0"/>
        <pt x="1179" y="160" on="1"/>
        <pt x="1179" y="408" on="1"/>
        <pt x="1179" y="414" on="0"/>
        <pt x="1179" y="456" on="0"/>
        <pt x="1179" y="468" on="0"/>
        <pt x="1178" y="500" on="0"/>
        <pt x="1175" y="517" on="0"/>
        <pt x="1171" y="541" on="0"/>
        <pt x="1167" y="552" on="1"/>
        <pt x="1162" y="570" on="0"/>
        <pt x="1090" y="594" on="0"/>
        <pt x="1030" y="600" on="0"/>
        <pt x="1008" y="600" on="1"/>
        <pt x="1001" y="603" on="0"/>
        <pt x="997" y="666" on="0"/>
        <pt x="1005" y="675" on="1"/>
        <pt x="1040" y="673" on="0"/>
        <pt x="1170" y="666" on="0"/>
        <pt x="1275" y="661" on="0"/>
        <pt x="1320" y="661" on="1"/>
        <pt x="1361" y="661" on="0"/>
        <pt x="1450" y="666" on="0"/>
        <pt x="1558" y="673" on="0"/>
        <pt x="1589" y="675" on="1"/>
        <pt x="1596" y="659" on="0"/>
        <pt x="1596" y="603" on="0"/>
        <pt x="1589" y="600" on="1"/>
        <pt x="1564" y="600" on="0"/>
        <pt x="1463" y="579" on="0"/>
        <pt x="1452" y="565" on="1"/>
        <pt x="1434" y="535" on="0"/>
        <pt x="1434" y="433" on="1"/>
        <pt x="1434" y="230" on="1"/>
        <pt x="1434" y="211" on="0"/>
        <pt x="1452" y="158" on="0"/>
        <pt x="1452" y="150" on="1"/>
        <pt x="1452" y="130" on="0"/>
        <pt x="1389" y="100" on="1"/>
        <pt x="1343" y="80" on="0"/>
        <pt x="1282" y="54" on="0"/>
        <pt x="1177" y="20" on="0"/>
        <pt x="1081" y="1" on="0"/>
        <pt x="947" y="-14" on="0"/>
        <pt x="873" y="-14" on="1"/>
        <pt x="710" y="-14" on="0"/>
        <pt x="422" y="103" on="0"/>
        <pt x="218" y="303" on="0"/>
        <pt x="100" y="580" on="0"/>
      </contour>
    </TTGlyph>
    <TTGlyph name="H" xMin="91" yMin="-9" xMax="1587" yMax="1509">
      <contour>
        <pt x="91" y="1" on="0"/>
        <pt x="91" y="58" on="0"/>
        <pt x="98" y="68" on="1"/>
        <pt x="131" y="68" on="0"/>
        <pt x="243" y="92" on="0"/>
        <pt x="249" y="109" on="1"/>
        <pt x="264" y="157" on="0"/>
        <pt x="264" y="301" on="1"/>
        <pt x="264" y="1199" on="1"/>
        <pt x="264" y="1343" on="0"/>
        <pt x="249" y="1391" on="1"/>
        <pt x="243" y="1409" on="0"/>
        <pt x="131" y="1432" on="0"/>
        <pt x="98" y="1432" on="1"/>
        <pt x="91" y="1442" on="0"/>
        <pt x="91" y="1499" on="0"/>
        <pt x="98" y="1509" on="1"/>
        <pt x="280" y="1496" on="0"/>
        <pt x="394" y="1496" on="1"/>
        <pt x="506" y="1496" on="0"/>
        <pt x="689" y="1509" on="1"/>
        <pt x="695" y="1499" on="0"/>
        <pt x="695" y="1442" on="0"/>
        <pt x="689" y="1432" on="1"/>
        <pt x="671" y="1432" on="0"/>
        <pt x="608" y="1423" on="0"/>
        <pt x="542" y="1403" on="0"/>
        <pt x="538" y="1391" on="1"/>
        <pt x="524" y="1350" on="0"/>
        <pt x="524" y="1199" on="1"/>
        <pt x="524" y="839" on="1"/>
        <pt x="527" y="832" on="1"/>
        <pt x="828" y="825" on="0"/>
        <pt x="844" y="825" on="1"/>
        <pt x="878" y="825" on="0"/>
        <pt x="1151" y="832" on="1"/>
        <pt x="1156" y="837" on="0"/>
        <pt x="1156" y="841" on="1"/>
        <pt x="1156" y="1199" on="1"/>
        <pt x="1156" y="1343" on="0"/>
        <pt x="1140" y="1391" on="1"/>
        <pt x="1134" y="1409" on="0"/>
        <pt x="1022" y="1432" on="0"/>
        <pt x="990" y="1432" on="1"/>
        <pt x="983" y="1442" on="0"/>
        <pt x="983" y="1499" on="0"/>
        <pt x="990" y="1509" on="1"/>
        <pt x="1172" y="1496" on="0"/>
        <pt x="1286" y="1496" on="1"/>
        <pt x="1398" y="1496" on="0"/>
        <pt x="1580" y="1509" on="1"/>
        <pt x="1587" y="1499" on="0"/>
        <pt x="1587" y="1442" on="0"/>
        <pt x="1580" y="1432" on="1"/>
        <pt x="1548" y="1432" on="0"/>
        <pt x="1436" y="1409" on="0"/>
        <pt x="1430" y="1391" on="1"/>
        <pt x="1416" y="1350" on="0"/>
        <pt x="1416" y="1199" on="1"/>
        <pt x="1416" y="301" on="1"/>
        <pt x="1416" y="150" on="0"/>
        <pt x="1430" y="109" on="1"/>
        <pt x="1436" y="92" on="0"/>
        <pt x="1548" y="68" on="0"/>
        <pt x="1580" y="68" on="1"/>
        <pt x="1587" y="58" on="0"/>
        <pt x="1587" y="1" on="0"/>
        <pt x="1580" y="-9" on="1"/>
        <pt x="1398" y="5" on="0"/>
        <pt x="1284" y="5" on="1"/>
        <pt x="1172" y="5" on="0"/>
        <pt x="990" y="-9" on="1"/>
        <pt x="983" y="1" on="0"/>
        <pt x="983" y="58" on="0"/>
        <pt x="990" y="68" on="1"/>
        <pt x="1022" y="68" on="0"/>
        <pt x="1134" y="92" on="0"/>
        <pt x="1140" y="109" on="1"/>
        <pt x="1156" y="157" on="0"/>
        <pt x="1156" y="301" on="1"/>
        <pt x="1156" y="716" on="1"/>
        <pt x="1156" y="718" on="0"/>
        <pt x="1154" y="723" on="0"/>
        <pt x="1153" y="724" on="1"/>
        <pt x="1151" y="725" on="1"/>
        <pt x="864" y="732" on="0"/>
        <pt x="844" y="732" on="1"/>
        <pt x="547" y="732" on="0"/>
        <pt x="524" y="720" on="1"/>
        <pt x="524" y="714" on="1"/>
        <pt x="524" y="301" on="1"/>
        <pt x="524" y="150" on="0"/>
        <pt x="538" y="109" on="1"/>
        <pt x="544" y="92" on="0"/>
        <pt x="656" y="68" on="0"/>
        <pt x="689" y="68" on="1"/>
        <pt x="695" y="58" on="0"/>
        <pt x="695" y="1" on="0"/>
        <pt x="689" y="-9" on="1"/>
        <pt x="506" y="5" on="0"/>
        <pt x="392" y="5" on="1"/>
        <pt x="280" y="5" on="0"/>
        <pt x="98" y="-9" on="1"/>
      </contour>
    </TTGlyph>
    <TTGlyph name="I" xMin="91" yMin="-9" xMax="695" yMax="1509">
      <contour>
        <pt x="91" y="1" on="0"/>
        <pt x="91" y="56" on="0"/>
        <pt x="98" y="66" on="1"/>
        <pt x="116" y="66" on="0"/>
        <pt x="179" y="73" on="0"/>
        <pt x="244" y="92" on="0"/>
        <pt x="249" y="105" on="1"/>
        <pt x="264" y="153" on="0"/>
        <pt x="264" y="296" on="1"/>
        <pt x="264" y="1204" on="1"/>
        <pt x="264" y="1347" on="0"/>
        <pt x="249" y="1395" on="1"/>
        <pt x="245" y="1405" on="0"/>
        <pt x="205" y="1421" on="0"/>
        <pt x="154" y="1429" on="0"/>
        <pt x="110" y="1434" on="0"/>
        <pt x="98" y="1434" on="1"/>
        <pt x="91" y="1444" on="0"/>
        <pt x="91" y="1499" on="0"/>
        <pt x="98" y="1509" on="1"/>
        <pt x="280" y="1496" on="0"/>
        <pt x="394" y="1496" on="1"/>
        <pt x="506" y="1496" on="0"/>
        <pt x="689" y="1509" on="1"/>
        <pt x="695" y="1499" on="0"/>
        <pt x="695" y="1444" on="0"/>
        <pt x="689" y="1434" on="1"/>
        <pt x="655" y="1434" on="0"/>
        <pt x="544" y="1413" on="0"/>
        <pt x="538" y="1395" on="1"/>
        <pt x="524" y="1354" on="0"/>
        <pt x="524" y="1204" on="1"/>
        <pt x="524" y="296" on="1"/>
        <pt x="524" y="146" on="0"/>
        <pt x="538" y="105" on="1"/>
        <pt x="544" y="87" on="0"/>
        <pt x="655" y="66" on="0"/>
        <pt x="689" y="66" on="1"/>
        <pt x="695" y="56" on="0"/>
        <pt x="695" y="1" on="0"/>
        <pt x="689" y="-9" on="1"/>
        <pt x="506" y="5" on="0"/>
        <pt x="392" y="5" on="1"/>
        <pt x="280" y="5" on="0"/>
        <pt x="98" y="-9" on="1"/>
      </contour>
    </TTGlyph>
    <TTGlyph name="Iacute" xMin="91" yMin="-9" xMax="695" yMax="1972">
      <contour>
        <pt x="91" y="1" on="0"/>
        <pt x="91" y="56" on="0"/>
        <pt x="98" y="66" on="1"/>
        <pt x="116" y="66" on="0"/>
        <pt x="179" y="73" on="0"/>
        <pt x="244" y="92" on="0"/>
        <pt x="249" y="105" on="1"/>
        <pt x="264" y="153" on="0"/>
        <pt x="264" y="296" on="1"/>
        <pt x="264" y="1204" on="1"/>
        <pt x="264" y="1347" on="0"/>
        <pt x="249" y="1395" on="1"/>
        <pt x="245" y="1405" on="0"/>
        <pt x="205" y="1421" on="0"/>
        <pt x="154" y="1429" on="0"/>
        <pt x="110" y="1434" on="0"/>
        <pt x="98" y="1434" on="1"/>
        <pt x="91" y="1444" on="0"/>
        <pt x="91" y="1499" on="0"/>
        <pt x="98" y="1509" on="1"/>
        <pt x="280" y="1496" on="0"/>
        <pt x="394" y="1496" on="1"/>
        <pt x="506" y="1496" on="0"/>
        <pt x="689" y="1509" on="1"/>
        <pt x="695" y="1499" on="0"/>
        <pt x="695" y="1444" on="0"/>
        <pt x="689" y="1434" on="1"/>
        <pt x="655" y="1434" on="0"/>
        <pt x="544" y="1413" on="0"/>
        <pt x="538" y="1395" on="1"/>
        <pt x="524" y="1354" on="0"/>
        <pt x="524" y="1204" on="1"/>
        <pt x="524" y="296" on="1"/>
        <pt x="524" y="146" on="0"/>
        <pt x="538" y="105" on="1"/>
        <pt x="544" y="87" on="0"/>
        <pt x="655" y="66" on="0"/>
        <pt x="689" y="66" on="1"/>
        <pt x="695" y="56" on="0"/>
        <pt x="695" y="1" on="0"/>
        <pt x="689" y="-9" on="1"/>
        <pt x="506" y="5" on="0"/>
        <pt x="392" y="5" on="1"/>
        <pt x="280" y="5" on="0"/>
        <pt x="98" y="-9" on="1"/>
      </contour>
      <contour>
        <pt x="239" y="1699" on="1"/>
        <pt x="239" y="1713" on="0"/>
        <pt x="444" y="1915" on="0"/>
        <pt x="511" y="1965" on="1"/>
        <pt x="524" y="1972" on="0"/>
        <pt x="552" y="1972" on="1"/>
        <pt x="584" y="1972" on="0"/>
        <pt x="641" y="1954" on="0"/>
        <pt x="677" y="1919" on="0"/>
        <pt x="677" y="1897" on="1"/>
        <pt x="677" y="1868" on="0"/>
        <pt x="560" y="1783" on="0"/>
        <pt x="411" y="1712" on="0"/>
        <pt x="281" y="1660" on="0"/>
        <pt x="267" y="1660" on="1"/>
        <pt x="260" y="1660" on="0"/>
        <pt x="247" y="1672" on="0"/>
        <pt x="239" y="1690" on="0"/>
      </contour>
    </TTGlyph>
    <TTGlyph name="Icircumflex" xMin="91" yMin="-9" xMax="695" yMax="1970">
      <contour>
        <pt x="91" y="1" on="0"/>
        <pt x="91" y="56" on="0"/>
        <pt x="98" y="66" on="1"/>
        <pt x="116" y="66" on="0"/>
        <pt x="179" y="73" on="0"/>
        <pt x="244" y="92" on="0"/>
        <pt x="249" y="105" on="1"/>
        <pt x="264" y="153" on="0"/>
        <pt x="264" y="296" on="1"/>
        <pt x="264" y="1204" on="1"/>
        <pt x="264" y="1347" on="0"/>
        <pt x="249" y="1395" on="1"/>
        <pt x="245" y="1405" on="0"/>
        <pt x="205" y="1421" on="0"/>
        <pt x="154" y="1429" on="0"/>
        <pt x="110" y="1434" on="0"/>
        <pt x="98" y="1434" on="1"/>
        <pt x="91" y="1444" on="0"/>
        <pt x="91" y="1499" on="0"/>
        <pt x="98" y="1509" on="1"/>
        <pt x="280" y="1496" on="0"/>
        <pt x="394" y="1496" on="1"/>
        <pt x="506" y="1496" on="0"/>
        <pt x="689" y="1509" on="1"/>
        <pt x="695" y="1499" on="0"/>
        <pt x="695" y="1444" on="0"/>
        <pt x="689" y="1434" on="1"/>
        <pt x="655" y="1434" on="0"/>
        <pt x="544" y="1413" on="0"/>
        <pt x="538" y="1395" on="1"/>
        <pt x="524" y="1354" on="0"/>
        <pt x="524" y="1204" on="1"/>
        <pt x="524" y="296" on="1"/>
        <pt x="524" y="146" on="0"/>
        <pt x="538" y="105" on="1"/>
        <pt x="544" y="87" on="0"/>
        <pt x="655" y="66" on="0"/>
        <pt x="689" y="66" on="1"/>
        <pt x="695" y="56" on="0"/>
        <pt x="695" y="1" on="0"/>
        <pt x="689" y="-9" on="1"/>
        <pt x="506" y="5" on="0"/>
        <pt x="392" y="5" on="1"/>
        <pt x="280" y="5" on="0"/>
        <pt x="98" y="-9" on="1"/>
      </contour>
      <contour>
        <pt x="121" y="1703" on="1"/>
        <pt x="122" y="1704" on="0"/>
        <pt x="225" y="1793" on="0"/>
        <pt x="274" y="1842" on="1"/>
        <pt x="340" y="1906" on="0"/>
        <pt x="372" y="1949" on="1"/>
        <pt x="373" y="1951" on="0"/>
        <pt x="377" y="1956" on="0"/>
        <pt x="379" y="1959" on="0"/>
        <pt x="383" y="1963" on="0"/>
        <pt x="385" y="1964" on="0"/>
        <pt x="388" y="1967" on="0"/>
        <pt x="390" y="1968" on="0"/>
        <pt x="393" y="1970" on="0"/>
        <pt x="395" y="1970" on="0"/>
        <pt x="397" y="1970" on="1"/>
        <pt x="410" y="1970" on="0"/>
        <pt x="426" y="1949" on="1"/>
        <pt x="434" y="1940" on="0"/>
        <pt x="468" y="1898" on="0"/>
        <pt x="499" y="1863" on="0"/>
        <pt x="518" y="1845" on="1"/>
        <pt x="556" y="1806" on="0"/>
        <pt x="631" y="1740" on="0"/>
        <pt x="676" y="1705" on="0"/>
        <pt x="677" y="1703" on="1"/>
        <pt x="677" y="1696" on="0"/>
        <pt x="674" y="1681" on="0"/>
        <pt x="668" y="1668" on="0"/>
        <pt x="659" y="1660" on="0"/>
        <pt x="654" y="1660" on="1"/>
        <pt x="636" y="1660" on="0"/>
        <pt x="464" y="1755" on="0"/>
        <pt x="399" y="1797" on="1"/>
        <pt x="344" y="1757" on="0"/>
        <pt x="163" y="1660" on="0"/>
        <pt x="144" y="1660" on="1"/>
        <pt x="133" y="1660" on="0"/>
        <pt x="121" y="1690" on="0"/>
      </contour>
    </TTGlyph>
    <TTGlyph name="Idieresis" xMin="16" yMin="-9" xMax="771" yMax="1924">
      <contour>
        <pt x="16" y="1738" on="0"/>
        <pt x="16" y="1847" on="0"/>
        <pt x="96" y="1924" on="0"/>
        <pt x="205" y="1924" on="0"/>
        <pt x="285" y="1847" on="0"/>
        <pt x="285" y="1738" on="0"/>
        <pt x="205" y="1660" on="0"/>
        <pt x="96" y="1660" on="0"/>
      </contour>
      <contour>
        <pt x="91" y="1" on="0"/>
        <pt x="91" y="56" on="0"/>
        <pt x="98" y="66" on="1"/>
        <pt x="116" y="66" on="0"/>
        <pt x="179" y="73" on="0"/>
        <pt x="244" y="92" on="0"/>
        <pt x="249" y="105" on="1"/>
        <pt x="264" y="153" on="0"/>
        <pt x="264" y="296" on="1"/>
        <pt x="264" y="1204" on="1"/>
        <pt x="264" y="1347" on="0"/>
        <pt x="249" y="1395" on="1"/>
        <pt x="245" y="1405" on="0"/>
        <pt x="205" y="1421" on="0"/>
        <pt x="154" y="1429" on="0"/>
        <pt x="110" y="1434" on="0"/>
        <pt x="98" y="1434" on="1"/>
        <pt x="91" y="1444" on="0"/>
        <pt x="91" y="1499" on="0"/>
        <pt x="98" y="1509" on="1"/>
        <pt x="280" y="1496" on="0"/>
        <pt x="394" y="1496" on="1"/>
        <pt x="506" y="1496" on="0"/>
        <pt x="689" y="1509" on="1"/>
        <pt x="695" y="1499" on="0"/>
        <pt x="695" y="1444" on="0"/>
        <pt x="689" y="1434" on="1"/>
        <pt x="655" y="1434" on="0"/>
        <pt x="544" y="1413" on="0"/>
        <pt x="538" y="1395" on="1"/>
        <pt x="524" y="1354" on="0"/>
        <pt x="524" y="1204" on="1"/>
        <pt x="524" y="296" on="1"/>
        <pt x="524" y="146" on="0"/>
        <pt x="538" y="105" on="1"/>
        <pt x="544" y="87" on="0"/>
        <pt x="655" y="66" on="0"/>
        <pt x="689" y="66" on="1"/>
        <pt x="695" y="56" on="0"/>
        <pt x="695" y="1" on="0"/>
        <pt x="689" y="-9" on="1"/>
        <pt x="506" y="5" on="0"/>
        <pt x="392" y="5" on="1"/>
        <pt x="280" y="5" on="0"/>
        <pt x="98" y="-9" on="1"/>
      </contour>
      <contour>
        <pt x="502" y="1792" on="1"/>
        <pt x="502" y="1847" on="0"/>
        <pt x="581" y="1924" on="0"/>
        <pt x="691" y="1924" on="0"/>
        <pt x="771" y="1847" on="0"/>
        <pt x="771" y="1792" on="1"/>
        <pt x="771" y="1756" on="0"/>
        <pt x="733" y="1695" on="0"/>
        <pt x="670" y="1660" on="0"/>
        <pt x="634" y="1660" on="1"/>
        <pt x="579" y="1660" on="0"/>
        <pt x="502" y="1737" on="0"/>
      </contour>
    </TTGlyph>
    <TTGlyph name="Igrave" xMin="91" yMin="-9" xMax="695" yMax="1972">
      <contour>
        <pt x="91" y="1" on="0"/>
        <pt x="91" y="56" on="0"/>
        <pt x="98" y="66" on="1"/>
        <pt x="116" y="66" on="0"/>
        <pt x="179" y="73" on="0"/>
        <pt x="244" y="92" on="0"/>
        <pt x="249" y="105" on="1"/>
        <pt x="264" y="153" on="0"/>
        <pt x="264" y="296" on="1"/>
        <pt x="264" y="1204" on="1"/>
        <pt x="264" y="1347" on="0"/>
        <pt x="249" y="1395" on="1"/>
        <pt x="245" y="1405" on="0"/>
        <pt x="205" y="1421" on="0"/>
        <pt x="154" y="1429" on="0"/>
        <pt x="110" y="1434" on="0"/>
        <pt x="98" y="1434" on="1"/>
        <pt x="91" y="1444" on="0"/>
        <pt x="91" y="1499" on="0"/>
        <pt x="98" y="1509" on="1"/>
        <pt x="280" y="1496" on="0"/>
        <pt x="394" y="1496" on="1"/>
        <pt x="506" y="1496" on="0"/>
        <pt x="689" y="1509" on="1"/>
        <pt x="695" y="1499" on="0"/>
        <pt x="695" y="1444" on="0"/>
        <pt x="689" y="1434" on="1"/>
        <pt x="655" y="1434" on="0"/>
        <pt x="544" y="1413" on="0"/>
        <pt x="538" y="1395" on="1"/>
        <pt x="524" y="1354" on="0"/>
        <pt x="524" y="1204" on="1"/>
        <pt x="524" y="296" on="1"/>
        <pt x="524" y="146" on="0"/>
        <pt x="538" y="105" on="1"/>
        <pt x="544" y="87" on="0"/>
        <pt x="655" y="66" on="0"/>
        <pt x="689" y="66" on="1"/>
        <pt x="695" y="56" on="0"/>
        <pt x="695" y="1" on="0"/>
        <pt x="689" y="-9" on="1"/>
        <pt x="506" y="5" on="0"/>
        <pt x="392" y="5" on="1"/>
        <pt x="280" y="5" on="0"/>
        <pt x="98" y="-9" on="1"/>
      </contour>
      <contour>
        <pt x="121" y="1897" on="1"/>
        <pt x="121" y="1930" on="0"/>
        <pt x="194" y="1972" on="0"/>
        <pt x="244" y="1972" on="1"/>
        <pt x="271" y="1972" on="0"/>
        <pt x="285" y="1965" on="1"/>
        <pt x="352" y="1915" on="0"/>
        <pt x="559" y="1713" on="0"/>
        <pt x="559" y="1699" on="1"/>
        <pt x="559" y="1685" on="0"/>
        <pt x="539" y="1660" on="0"/>
        <pt x="529" y="1660" on="1"/>
        <pt x="514" y="1660" on="0"/>
        <pt x="385" y="1712" on="0"/>
        <pt x="238" y="1783" on="0"/>
        <pt x="121" y="1868" on="0"/>
      </contour>
    </TTGlyph>
    <TTGlyph name="J" xMin="-262" yMin="-506" xMax="679" yMax="1509">
      <contour>
        <pt x="-262" y="-392" on="1"/>
        <pt x="-262" y="-336" on="0"/>
        <pt x="-188" y="-251" on="0"/>
        <pt x="-135" y="-251" on="1"/>
        <pt x="-104" y="-251" on="0"/>
        <pt x="-50" y="-288" on="0"/>
        <pt x="-16" y="-321" on="1"/>
        <pt x="46" y="-383" on="0"/>
        <pt x="84" y="-383" on="1"/>
        <pt x="167" y="-383" on="0"/>
        <pt x="249" y="-58" on="0"/>
        <pt x="249" y="287" on="1"/>
        <pt x="249" y="1204" on="1"/>
        <pt x="249" y="1354" on="0"/>
        <pt x="235" y="1395" on="1"/>
        <pt x="229" y="1413" on="0"/>
        <pt x="116" y="1434" on="0"/>
        <pt x="82" y="1434" on="1"/>
        <pt x="75" y="1444" on="0"/>
        <pt x="75" y="1499" on="0"/>
        <pt x="82" y="1509" on="1"/>
        <pt x="264" y="1496" on="0"/>
        <pt x="381" y="1496" on="1"/>
        <pt x="490" y="1496" on="0"/>
        <pt x="673" y="1509" on="1"/>
        <pt x="679" y="1499" on="0"/>
        <pt x="679" y="1444" on="0"/>
        <pt x="673" y="1434" on="1"/>
        <pt x="639" y="1434" on="0"/>
        <pt x="528" y="1413" on="0"/>
        <pt x="522" y="1395" on="1"/>
        <pt x="508" y="1354" on="0"/>
        <pt x="508" y="1204" on="1"/>
        <pt x="508" y="296" on="1"/>
        <pt x="508" y="50" on="0"/>
        <pt x="362" y="-313" on="0"/>
        <pt x="88" y="-506" on="0"/>
        <pt x="-98" y="-506" on="1"/>
        <pt x="-131" y="-506" on="0"/>
        <pt x="-217" y="-479" on="0"/>
        <pt x="-235" y="-465" on="1"/>
        <pt x="-262" y="-429" on="0"/>
      </contour>
    </TTGlyph>
    <TTGlyph name="K" xMin="91" yMin="-10" xMax="1592" yMax="1509">
      <contour>
        <pt x="91" y="1" on="0"/>
        <pt x="91" y="58" on="0"/>
        <pt x="98" y="68" on="1"/>
        <pt x="131" y="68" on="0"/>
        <pt x="243" y="92" on="0"/>
        <pt x="249" y="109" on="1"/>
        <pt x="264" y="157" on="0"/>
        <pt x="264" y="301" on="1"/>
        <pt x="264" y="1199" on="1"/>
        <pt x="264" y="1343" on="0"/>
        <pt x="249" y="1391" on="1"/>
        <pt x="243" y="1409" on="0"/>
        <pt x="131" y="1432" on="0"/>
        <pt x="98" y="1432" on="1"/>
        <pt x="91" y="1442" on="0"/>
        <pt x="91" y="1499" on="0"/>
        <pt x="98" y="1509" on="1"/>
        <pt x="280" y="1496" on="0"/>
        <pt x="394" y="1496" on="1"/>
        <pt x="506" y="1496" on="0"/>
        <pt x="689" y="1509" on="1"/>
        <pt x="695" y="1499" on="0"/>
        <pt x="695" y="1442" on="0"/>
        <pt x="689" y="1432" on="1"/>
        <pt x="671" y="1432" on="0"/>
        <pt x="608" y="1423" on="0"/>
        <pt x="542" y="1403" on="0"/>
        <pt x="538" y="1391" on="1"/>
        <pt x="524" y="1350" on="0"/>
        <pt x="524" y="1199" on="1"/>
        <pt x="524" y="775" on="1"/>
        <pt x="643" y="864" on="0"/>
        <pt x="771" y="992" on="1"/>
        <pt x="797" y="1018" on="0"/>
        <pt x="880" y="1101" on="0"/>
        <pt x="910" y="1131" on="0"/>
        <pt x="963" y="1186" on="0"/>
        <pt x="994" y="1222" on="0"/>
        <pt x="1037" y="1276" on="0"/>
        <pt x="1062" y="1309" on="1"/>
        <pt x="1075" y="1325" on="0"/>
        <pt x="1090" y="1367" on="0"/>
        <pt x="1090" y="1382" on="1"/>
        <pt x="1090" y="1432" on="0"/>
        <pt x="962" y="1432" on="1"/>
        <pt x="956" y="1443" on="0"/>
        <pt x="955" y="1494" on="0"/>
        <pt x="960" y="1509" on="1"/>
        <pt x="983" y="1508" on="0"/>
        <pt x="1070" y="1503" on="0"/>
        <pt x="1132" y="1499" on="0"/>
        <pt x="1211" y="1496" on="0"/>
        <pt x="1240" y="1496" on="1"/>
        <pt x="1332" y="1496" on="0"/>
        <pt x="1505" y="1509" on="1"/>
        <pt x="1509" y="1500" on="0"/>
        <pt x="1508" y="1439" on="0"/>
        <pt x="1500" y="1434" on="1"/>
        <pt x="1499" y="1434" on="0"/>
        <pt x="1495" y="1434" on="1"/>
        <pt x="1473" y="1431" on="0"/>
        <pt x="1434" y="1425" on="0"/>
        <pt x="1357" y="1406" on="0"/>
        <pt x="1285" y="1367" on="0"/>
        <pt x="1259" y="1341" on="1"/>
        <pt x="1216" y="1294" on="0"/>
        <pt x="1065" y="1142" on="0"/>
        <pt x="852" y="933" on="0"/>
        <pt x="782" y="862" on="1"/>
        <pt x="766" y="846" on="0"/>
        <pt x="782" y="825" on="1"/>
        <pt x="802" y="800" on="0"/>
        <pt x="985" y="571" on="0"/>
        <pt x="1051" y="489" on="0"/>
        <pt x="1177" y="335" on="0"/>
        <pt x="1250" y="254" on="0"/>
        <pt x="1275" y="230" on="1"/>
        <pt x="1404" y="80" on="0"/>
        <pt x="1587" y="68" on="1"/>
        <pt x="1592" y="58" on="0"/>
        <pt x="1592" y="38" on="1"/>
        <pt x="1592" y="32" on="0"/>
        <pt x="1592" y="26" on="1"/>
        <pt x="1590" y="-3" on="0"/>
        <pt x="1587" y="-9" on="1"/>
        <pt x="1531" y="-10" on="0"/>
        <pt x="1484" y="-10" on="1"/>
        <pt x="1350" y="-10" on="0"/>
        <pt x="1275" y="0" on="1"/>
        <pt x="1200" y="3" on="0"/>
        <pt x="1072" y="77" on="0"/>
        <pt x="1024" y="135" on="1"/>
        <pt x="1001" y="161" on="0"/>
        <pt x="852" y="343" on="0"/>
        <pt x="639" y="603" on="0"/>
        <pt x="565" y="691" on="1"/>
        <pt x="561" y="698" on="0"/>
        <pt x="545" y="698" on="1"/>
        <pt x="534" y="698" on="0"/>
        <pt x="524" y="689" on="1"/>
        <pt x="524" y="301" on="1"/>
        <pt x="524" y="150" on="0"/>
        <pt x="538" y="109" on="1"/>
        <pt x="544" y="92" on="0"/>
        <pt x="656" y="68" on="0"/>
        <pt x="689" y="68" on="1"/>
        <pt x="695" y="58" on="0"/>
        <pt x="695" y="1" on="0"/>
        <pt x="689" y="-9" on="1"/>
        <pt x="506" y="5" on="0"/>
        <pt x="392" y="5" on="1"/>
        <pt x="280" y="5" on="0"/>
        <pt x="98" y="-9" on="1"/>
      </contour>
    </TTGlyph>
    <TTGlyph name="L" xMin="91" yMin="-7" xMax="1302" yMax="1509">
      <contour>
        <pt x="91" y="3" on="0"/>
        <pt x="91" y="58" on="0"/>
        <pt x="98" y="68" on="1"/>
        <pt x="134" y="68" on="0"/>
        <pt x="243" y="87" on="0"/>
        <pt x="249" y="105" on="1"/>
        <pt x="264" y="153" on="0"/>
        <pt x="264" y="296" on="1"/>
        <pt x="264" y="1204" on="1"/>
        <pt x="264" y="1347" on="0"/>
        <pt x="249" y="1395" on="1"/>
        <pt x="245" y="1405" on="0"/>
        <pt x="205" y="1421" on="0"/>
        <pt x="154" y="1429" on="0"/>
        <pt x="110" y="1434" on="0"/>
        <pt x="98" y="1434" on="1"/>
        <pt x="91" y="1444" on="0"/>
        <pt x="91" y="1499" on="0"/>
        <pt x="98" y="1509" on="1"/>
        <pt x="280" y="1496" on="0"/>
        <pt x="394" y="1496" on="1"/>
        <pt x="506" y="1496" on="0"/>
        <pt x="689" y="1509" on="1"/>
        <pt x="695" y="1499" on="0"/>
        <pt x="695" y="1444" on="0"/>
        <pt x="689" y="1434" on="1"/>
        <pt x="655" y="1434" on="0"/>
        <pt x="544" y="1413" on="0"/>
        <pt x="538" y="1395" on="1"/>
        <pt x="524" y="1354" on="0"/>
        <pt x="524" y="1204" on="1"/>
        <pt x="524" y="296" on="1"/>
        <pt x="524" y="147" on="0"/>
        <pt x="538" y="123" on="1"/>
        <pt x="554" y="104" on="0"/>
        <pt x="628" y="91" on="0"/>
        <pt x="693" y="92" on="1"/>
        <pt x="834" y="92" on="1"/>
        <pt x="995" y="92" on="0"/>
        <pt x="1074" y="155" on="1"/>
        <pt x="1155" y="222" on="0"/>
        <pt x="1206" y="378" on="1"/>
        <pt x="1210" y="392" on="0"/>
        <pt x="1238" y="392" on="1"/>
        <pt x="1256" y="392" on="0"/>
        <pt x="1297" y="384" on="0"/>
        <pt x="1302" y="378" on="1"/>
        <pt x="1294" y="357" on="0"/>
        <pt x="1242" y="211" on="0"/>
        <pt x="1216" y="136" on="0"/>
        <pt x="1184" y="28" on="0"/>
        <pt x="1179" y="-7" on="1"/>
        <pt x="1120" y="-7" on="0"/>
        <pt x="568" y="-2" on="0"/>
        <pt x="397" y="-2" on="1"/>
        <pt x="320" y="-2" on="0"/>
        <pt x="118" y="-7" on="0"/>
        <pt x="98" y="-7" on="1"/>
      </contour>
    </TTGlyph>
    <TTGlyph name="M" xMin="48" yMin="-9" xMax="2005" yMax="1509">
      <contour>
        <pt x="48" y="26" on="1"/>
        <pt x="48" y="49" on="0"/>
        <pt x="55" y="64" on="1"/>
        <pt x="92" y="64" on="0"/>
        <pt x="229" y="98" on="0"/>
        <pt x="244" y="128" on="1"/>
        <pt x="253" y="146" on="0"/>
        <pt x="269" y="248" on="0"/>
        <pt x="271" y="285" on="1"/>
        <pt x="276" y="381" on="0"/>
        <pt x="284" y="613" on="0"/>
        <pt x="291" y="818" on="0"/>
        <pt x="298" y="1030" on="0"/>
        <pt x="302" y="1179" on="0"/>
        <pt x="305" y="1301" on="0"/>
        <pt x="306" y="1313" on="1"/>
        <pt x="306" y="1314" on="0"/>
        <pt x="306" y="1339" on="0"/>
        <pt x="305" y="1348" on="0"/>
        <pt x="304" y="1367" on="0"/>
        <pt x="300" y="1380" on="0"/>
        <pt x="296" y="1386" on="1"/>
        <pt x="287" y="1405" on="0"/>
        <pt x="173" y="1434" on="0"/>
        <pt x="141" y="1434" on="1"/>
        <pt x="135" y="1442" on="0"/>
        <pt x="137" y="1505" on="0"/>
        <pt x="141" y="1509" on="1"/>
        <pt x="179" y="1508" on="0"/>
        <pt x="324" y="1496" on="0"/>
        <pt x="383" y="1496" on="1"/>
        <pt x="401" y="1496" on="0"/>
        <pt x="440" y="1497" on="0"/>
        <pt x="473" y="1499" on="0"/>
        <pt x="510" y="1502" on="0"/>
        <pt x="541" y="1505" on="0"/>
        <pt x="579" y="1508" on="0"/>
        <pt x="595" y="1509" on="1"/>
        <pt x="619" y="1446" on="0"/>
        <pt x="770" y="1094" on="0"/>
        <pt x="985" y="595" on="0"/>
        <pt x="1051" y="438" on="1"/>
        <pt x="1051" y="433" on="0"/>
        <pt x="1060" y="433" on="1"/>
        <pt x="1061" y="433" on="0"/>
        <pt x="1067" y="437" on="0"/>
        <pt x="1072" y="442" on="0"/>
        <pt x="1072" y="445" on="1"/>
        <pt x="1210" y="795" on="0"/>
        <pt x="1379" y="1240" on="1"/>
        <pt x="1387" y="1261" on="0"/>
        <pt x="1406" y="1312" on="0"/>
        <pt x="1422" y="1361" on="0"/>
        <pt x="1439" y="1411" on="0"/>
        <pt x="1452" y="1453" on="0"/>
        <pt x="1463" y="1486" on="0"/>
        <pt x="1465" y="1496" on="1"/>
        <pt x="1468" y="1505" on="1"/>
        <pt x="1560" y="1496" on="0"/>
        <pt x="1680" y="1496" on="1"/>
        <pt x="1724" y="1496" on="0"/>
        <pt x="1943" y="1509" on="1"/>
        <pt x="1946" y="1502" on="0"/>
        <pt x="1953" y="1438" on="0"/>
        <pt x="1949" y="1432" on="1"/>
        <pt x="1924" y="1432" on="0"/>
        <pt x="1822" y="1412" on="0"/>
        <pt x="1810" y="1400" on="1"/>
        <pt x="1790" y="1376" on="0"/>
        <pt x="1790" y="1309" on="1"/>
        <pt x="1791" y="1260" on="0"/>
        <pt x="1802" y="870" on="0"/>
        <pt x="1813" y="463" on="0"/>
        <pt x="1817" y="333" on="1"/>
        <pt x="1818" y="320" on="0"/>
        <pt x="1820" y="260" on="0"/>
        <pt x="1822" y="233" on="0"/>
        <pt x="1826" y="185" on="0"/>
        <pt x="1831" y="156" on="0"/>
        <pt x="1839" y="121" on="0"/>
        <pt x="1845" y="107" on="1"/>
        <pt x="1853" y="87" on="0"/>
        <pt x="1964" y="68" on="0"/>
        <pt x="1997" y="68" on="1"/>
        <pt x="2004" y="54" on="0"/>
        <pt x="2005" y="27" on="1"/>
        <pt x="2005" y="22" on="0"/>
        <pt x="2005" y="17" on="1"/>
        <pt x="2005" y="-2" on="0"/>
        <pt x="2002" y="-9" on="1"/>
        <pt x="1989" y="-8" on="0"/>
        <pt x="1769" y="7" on="0"/>
        <pt x="1710" y="7" on="1"/>
        <pt x="1649" y="7" on="0"/>
        <pt x="1422" y="-8" on="0"/>
        <pt x="1395" y="-9" on="1"/>
        <pt x="1390" y="-4" on="0"/>
        <pt x="1387" y="54" on="0"/>
        <pt x="1393" y="68" on="1"/>
        <pt x="1425" y="68" on="0"/>
        <pt x="1531" y="85" on="0"/>
        <pt x="1546" y="100" on="1"/>
        <pt x="1555" y="110" on="0"/>
        <pt x="1566" y="165" on="0"/>
        <pt x="1566" y="189" on="1"/>
        <pt x="1566" y="202" on="0"/>
        <pt x="1562" y="304" on="0"/>
        <pt x="1562" y="324" on="1"/>
        <pt x="1539" y="1163" on="0"/>
        <pt x="1537" y="1211" on="1"/>
        <pt x="1537" y="1215" on="0"/>
        <pt x="1535" y="1229" on="0"/>
        <pt x="1532" y="1249" on="0"/>
        <pt x="1524" y="1263" on="0"/>
        <pt x="1518" y="1263" on="1"/>
        <pt x="1513" y="1263" on="0"/>
        <pt x="1507" y="1247" on="1"/>
        <pt x="1458" y="1124" on="0"/>
        <pt x="1105" y="203" on="0"/>
        <pt x="1065" y="100" on="1"/>
        <pt x="1054" y="75" on="0"/>
        <pt x="994" y="-3" on="0"/>
        <pt x="974" y="-5" on="1"/>
        <pt x="967" y="-5" on="0"/>
        <pt x="953" y="0" on="1"/>
        <pt x="420" y="1263" on="1"/>
        <pt x="393" y="335" on="0"/>
        <pt x="390" y="237" on="1"/>
        <pt x="390" y="160" on="0"/>
        <pt x="399" y="123" on="1"/>
        <pt x="408" y="97" on="0"/>
        <pt x="553" y="68" on="0"/>
        <pt x="588" y="68" on="1"/>
        <pt x="595" y="59" on="0"/>
        <pt x="597" y="0" on="0"/>
        <pt x="593" y="-9" on="1"/>
        <pt x="568" y="-8" on="0"/>
        <pt x="389" y="7" on="0"/>
        <pt x="331" y="7" on="1"/>
        <pt x="271" y="7" on="0"/>
        <pt x="92" y="-8" on="0"/>
        <pt x="55" y="-9" on="1"/>
        <pt x="48" y="-2" on="0"/>
      </contour>
    </TTGlyph>
    <TTGlyph name="N" xMin="75" yMin="-11" xMax="1702" yMax="1512">
      <contour>
        <pt x="75" y="3" on="0"/>
        <pt x="75" y="56" on="0"/>
        <pt x="82" y="66" on="1"/>
        <pt x="116" y="66" on="0"/>
        <pt x="250" y="96" on="0"/>
        <pt x="262" y="119" on="1"/>
        <pt x="287" y="166" on="0"/>
        <pt x="287" y="312" on="1"/>
        <pt x="287" y="1211" on="1"/>
        <pt x="287" y="1341" on="0"/>
        <pt x="255" y="1391" on="1"/>
        <pt x="243" y="1409" on="0"/>
        <pt x="121" y="1436" on="0"/>
        <pt x="91" y="1436" on="1"/>
        <pt x="83" y="1446" on="0"/>
        <pt x="82" y="1503" on="0"/>
        <pt x="89" y="1512" on="1"/>
        <pt x="112" y="1510" on="0"/>
        <pt x="219" y="1504" on="0"/>
        <pt x="296" y="1500" on="0"/>
        <pt x="337" y="1500" on="1"/>
        <pt x="442" y="1500" on="0"/>
        <pt x="547" y="1509" on="1"/>
        <pt x="582" y="1448" on="0"/>
        <pt x="781" y="1189" on="0"/>
        <pt x="999" y="925" on="0"/>
        <pt x="1276" y="584" on="0"/>
        <pt x="1361" y="472" on="1"/>
        <pt x="1363" y="481" on="0"/>
        <pt x="1363" y="584" on="1"/>
        <pt x="1363" y="1163" on="1"/>
        <pt x="1363" y="1338" on="0"/>
        <pt x="1338" y="1389" on="1"/>
        <pt x="1328" y="1409" on="0"/>
        <pt x="1198" y="1436" on="0"/>
        <pt x="1161" y="1436" on="1"/>
        <pt x="1154" y="1443" on="0"/>
        <pt x="1152" y="1498" on="0"/>
        <pt x="1158" y="1512" on="1"/>
        <pt x="1189" y="1510" on="0"/>
        <pt x="1368" y="1496" on="0"/>
        <pt x="1486" y="1496" on="0"/>
        <pt x="1665" y="1510" on="0"/>
        <pt x="1696" y="1512" on="1"/>
        <pt x="1702" y="1494" on="0"/>
        <pt x="1702" y="1474" on="1"/>
        <pt x="1702" y="1456" on="0"/>
        <pt x="1694" y="1436" on="1"/>
        <pt x="1659" y="1436" on="0"/>
        <pt x="1521" y="1410" on="0"/>
        <pt x="1509" y="1386" on="1"/>
        <pt x="1487" y="1341" on="0"/>
        <pt x="1487" y="1167" on="1"/>
        <pt x="1487" y="317" on="1"/>
        <pt x="1487" y="235" on="0"/>
        <pt x="1496" y="-2" on="1"/>
        <pt x="1487" y="-11" on="0"/>
        <pt x="1446" y="-11" on="1"/>
        <pt x="1430" y="-11" on="0"/>
        <pt x="1389" y="17" on="0"/>
        <pt x="1373" y="41" on="1"/>
        <pt x="413" y="1240" on="1"/>
        <pt x="413" y="310" on="1"/>
        <pt x="413" y="164" on="0"/>
        <pt x="435" y="121" on="1"/>
        <pt x="444" y="100" on="0"/>
        <pt x="583" y="68" on="0"/>
        <pt x="616" y="68" on="1"/>
        <pt x="625" y="56" on="0"/>
        <pt x="625" y="5" on="0"/>
        <pt x="620" y="-9" on="1"/>
        <pt x="599" y="-8" on="0"/>
        <pt x="405" y="7" on="0"/>
        <pt x="347" y="7" on="1"/>
        <pt x="287" y="7" on="0"/>
        <pt x="121" y="-7" on="0"/>
        <pt x="82" y="-9" on="1"/>
      </contour>
    </TTGlyph>
    <TTGlyph name="Ntilde" xMin="75" yMin="-11" xMax="1703" yMax="1899">
      <contour>
        <pt x="75" y="3" on="0"/>
        <pt x="75" y="56" on="0"/>
        <pt x="82" y="66" on="1"/>
        <pt x="116" y="66" on="0"/>
        <pt x="250" y="96" on="0"/>
        <pt x="262" y="119" on="1"/>
        <pt x="287" y="166" on="0"/>
        <pt x="287" y="312" on="1"/>
        <pt x="287" y="1211" on="1"/>
        <pt x="287" y="1341" on="0"/>
        <pt x="255" y="1391" on="1"/>
        <pt x="243" y="1409" on="0"/>
        <pt x="121" y="1436" on="0"/>
        <pt x="91" y="1436" on="1"/>
        <pt x="83" y="1446" on="0"/>
        <pt x="82" y="1503" on="0"/>
        <pt x="89" y="1512" on="1"/>
        <pt x="112" y="1510" on="0"/>
        <pt x="219" y="1504" on="0"/>
        <pt x="296" y="1500" on="0"/>
        <pt x="337" y="1500" on="1"/>
        <pt x="442" y="1500" on="0"/>
        <pt x="547" y="1509" on="1"/>
        <pt x="582" y="1448" on="0"/>
        <pt x="781" y="1189" on="0"/>
        <pt x="999" y="925" on="0"/>
        <pt x="1276" y="584" on="0"/>
        <pt x="1361" y="472" on="1"/>
        <pt x="1363" y="481" on="0"/>
        <pt x="1363" y="584" on="1"/>
        <pt x="1363" y="1163" on="1"/>
        <pt x="1363" y="1338" on="0"/>
        <pt x="1338" y="1389" on="1"/>
        <pt x="1328" y="1409" on="0"/>
        <pt x="1198" y="1436" on="0"/>
        <pt x="1161" y="1436" on="1"/>
        <pt x="1154" y="1443" on="0"/>
        <pt x="1152" y="1498" on="0"/>
        <pt x="1158" y="1512" on="1"/>
        <pt x="1189" y="1510" on="0"/>
        <pt x="1368" y="1496" on="0"/>
        <pt x="1486" y="1496" on="0"/>
        <pt x="1665" y="1510" on="0"/>
        <pt x="1696" y="1512" on="1"/>
        <pt x="1701" y="1497" on="0"/>
        <pt x="1703" y="1458" on="0"/>
        <pt x="1694" y="1436" on="1"/>
        <pt x="1659" y="1436" on="0"/>
        <pt x="1521" y="1410" on="0"/>
        <pt x="1509" y="1386" on="1"/>
        <pt x="1487" y="1341" on="0"/>
        <pt x="1487" y="1167" on="1"/>
        <pt x="1487" y="317" on="1"/>
        <pt x="1487" y="235" on="0"/>
        <pt x="1496" y="-2" on="1"/>
        <pt x="1487" y="-11" on="0"/>
        <pt x="1446" y="-11" on="1"/>
        <pt x="1430" y="-11" on="0"/>
        <pt x="1389" y="17" on="0"/>
        <pt x="1373" y="41" on="1"/>
        <pt x="413" y="1240" on="1"/>
        <pt x="413" y="310" on="1"/>
        <pt x="413" y="164" on="0"/>
        <pt x="435" y="121" on="1"/>
        <pt x="444" y="100" on="0"/>
        <pt x="583" y="68" on="0"/>
        <pt x="616" y="68" on="1"/>
        <pt x="625" y="56" on="0"/>
        <pt x="625" y="5" on="0"/>
        <pt x="620" y="-9" on="1"/>
        <pt x="599" y="-8" on="0"/>
        <pt x="405" y="7" on="0"/>
        <pt x="347" y="7" on="1"/>
        <pt x="287" y="7" on="0"/>
        <pt x="121" y="-7" on="0"/>
        <pt x="82" y="-9" on="1"/>
      </contour>
      <contour>
        <pt x="515" y="1708" on="1"/>
        <pt x="515" y="1732" on="0"/>
        <pt x="537" y="1785" on="0"/>
        <pt x="552" y="1803" on="1"/>
        <pt x="630" y="1899" on="0"/>
        <pt x="736" y="1899" on="1"/>
        <pt x="771" y="1899" on="0"/>
        <pt x="839" y="1881" on="0"/>
        <pt x="882" y="1861" on="0"/>
        <pt x="917" y="1842" on="1"/>
        <pt x="1031" y="1778" on="0"/>
        <pt x="1081" y="1778" on="1"/>
        <pt x="1118" y="1778" on="0"/>
        <pt x="1182" y="1808" on="0"/>
        <pt x="1216" y="1842" on="0"/>
        <pt x="1246" y="1876" on="0"/>
        <pt x="1252" y="1879" on="1"/>
        <pt x="1258" y="1879" on="0"/>
        <pt x="1270" y="1859" on="0"/>
        <pt x="1270" y="1851" on="1"/>
        <pt x="1270" y="1804" on="0"/>
        <pt x="1231" y="1756" on="1"/>
        <pt x="1153" y="1660" on="0"/>
        <pt x="1047" y="1660" on="1"/>
        <pt x="1012" y="1660" on="0"/>
        <pt x="944" y="1678" on="0"/>
        <pt x="905" y="1697" on="0"/>
        <pt x="869" y="1717" on="1"/>
        <pt x="865" y="1719" on="0"/>
        <pt x="831" y="1738" on="0"/>
        <pt x="821" y="1744" on="0"/>
        <pt x="791" y="1759" on="0"/>
        <pt x="777" y="1765" on="0"/>
        <pt x="751" y="1775" on="0"/>
        <pt x="734" y="1779" on="0"/>
        <pt x="712" y="1783" on="0"/>
        <pt x="702" y="1783" on="1"/>
        <pt x="665" y="1783" on="0"/>
        <pt x="601" y="1752" on="0"/>
        <pt x="567" y="1716" on="0"/>
        <pt x="537" y="1680" on="0"/>
        <pt x="531" y="1678" on="1"/>
        <pt x="525" y="1678" on="0"/>
        <pt x="515" y="1700" on="0"/>
      </contour>
    </TTGlyph>
    <TTGlyph name="O" xMin="100" yMin="-23" xMax="1617" yMax="1521">
      <contour>
        <pt x="100" y="748" on="1"/>
        <pt x="100" y="852" on="0"/>
        <pt x="157" y="1053" on="0"/>
        <pt x="257" y="1222" on="0"/>
        <pt x="399" y="1366" on="0"/>
        <pt x="566" y="1465" on="0"/>
        <pt x="758" y="1521" on="0"/>
        <pt x="857" y="1521" on="1"/>
        <pt x="942" y="1521" on="0"/>
        <pt x="1109" y="1482" on="0"/>
        <pt x="1258" y="1407" on="0"/>
        <pt x="1391" y="1303" on="0"/>
        <pt x="1497" y="1170" on="0"/>
        <pt x="1575" y="1018" on="0"/>
        <pt x="1617" y="841" on="0"/>
        <pt x="1617" y="748" on="1"/>
        <pt x="1617" y="643" on="0"/>
        <pt x="1559" y="443" on="0"/>
        <pt x="1458" y="274" on="0"/>
        <pt x="1316" y="132" on="0"/>
        <pt x="1149" y="33" on="0"/>
        <pt x="956" y="-23" on="0"/>
        <pt x="857" y="-23" on="1"/>
        <pt x="758" y="-23" on="0"/>
        <pt x="566" y="31" on="0"/>
        <pt x="399" y="128" on="0"/>
        <pt x="258" y="269" on="0"/>
        <pt x="157" y="437" on="0"/>
        <pt x="100" y="640" on="0"/>
      </contour>
      <contour>
        <pt x="397" y="812" on="1"/>
        <pt x="397" y="722" on="0"/>
        <pt x="424" y="547" on="0"/>
        <pt x="476" y="379" on="0"/>
        <pt x="561" y="237" on="0"/>
        <pt x="670" y="129" on="0"/>
        <pt x="816" y="68" on="0"/>
        <pt x="901" y="68" on="1"/>
        <pt x="989" y="68" on="0"/>
        <pt x="1133" y="141" on="0"/>
        <pt x="1228" y="261" on="0"/>
        <pt x="1292" y="422" on="0"/>
        <pt x="1320" y="593" on="0"/>
        <pt x="1320" y="684" on="1"/>
        <pt x="1320" y="773" on="0"/>
        <pt x="1293" y="949" on="0"/>
        <pt x="1240" y="1117" on="0"/>
        <pt x="1154" y="1260" on="0"/>
        <pt x="1045" y="1368" on="0"/>
        <pt x="898" y="1430" on="0"/>
        <pt x="814" y="1430" on="1"/>
        <pt x="726" y="1430" on="0"/>
        <pt x="582" y="1357" on="0"/>
        <pt x="488" y="1236" on="0"/>
        <pt x="424" y="1074" on="0"/>
        <pt x="397" y="903" on="0"/>
      </contour>
    </TTGlyph>
    <TTGlyph name="OE" xMin="103" yMin="-11" xMax="2259" yMax="1516">
      <contour>
        <pt x="103" y="748" on="1"/>
        <pt x="103" y="852" on="0"/>
        <pt x="159" y="1053" on="0"/>
        <pt x="259" y="1221" on="0"/>
        <pt x="400" y="1363" on="0"/>
        <pt x="564" y="1461" on="0"/>
        <pt x="754" y="1516" on="0"/>
        <pt x="850" y="1516" on="1"/>
        <pt x="923" y="1516" on="0"/>
        <pt x="1293" y="1496" on="0"/>
        <pt x="1352" y="1496" on="1"/>
        <pt x="1425" y="1496" on="0"/>
        <pt x="1990" y="1514" on="0"/>
        <pt x="2091" y="1514" on="1"/>
        <pt x="2100" y="1447" on="0"/>
        <pt x="2154" y="1214" on="0"/>
        <pt x="2159" y="1190" on="1"/>
        <pt x="2157" y="1188" on="0"/>
        <pt x="2145" y="1183" on="0"/>
        <pt x="2130" y="1180" on="0"/>
        <pt x="2115" y="1179" on="0"/>
        <pt x="2109" y="1179" on="1"/>
        <pt x="2083" y="1179" on="0"/>
        <pt x="2077" y="1195" on="1"/>
        <pt x="2040" y="1311" on="0"/>
        <pt x="1919" y="1414" on="0"/>
        <pt x="1822" y="1414" on="1"/>
        <pt x="1628" y="1414" on="1"/>
        <pt x="1503" y="1414" on="0"/>
        <pt x="1493" y="1389" on="1"/>
        <pt x="1482" y="1357" on="0"/>
        <pt x="1482" y="1238" on="1"/>
        <pt x="1482" y="825" on="1"/>
        <pt x="1482" y="816" on="0"/>
        <pt x="1540" y="805" on="0"/>
        <pt x="1580" y="805" on="1"/>
        <pt x="1699" y="805" on="1"/>
        <pt x="1746" y="805" on="0"/>
        <pt x="1804" y="808" on="0"/>
        <pt x="1853" y="824" on="0"/>
        <pt x="1878" y="841" on="0"/>
        <pt x="1903" y="884" on="0"/>
        <pt x="1916" y="926" on="0"/>
        <pt x="1927" y="967" on="1"/>
        <pt x="1930" y="985" on="0"/>
        <pt x="1956" y="985" on="1"/>
        <pt x="1968" y="985" on="0"/>
        <pt x="1994" y="977" on="0"/>
        <pt x="2000" y="971" on="1"/>
        <pt x="2000" y="538" on="1"/>
        <pt x="1990" y="529" on="0"/>
        <pt x="1959" y="529" on="1"/>
        <pt x="1932" y="529" on="0"/>
        <pt x="1924" y="547" on="1"/>
        <pt x="1909" y="603" on="0"/>
        <pt x="1883" y="667" on="0"/>
        <pt x="1866" y="686" on="0"/>
        <pt x="1854" y="693" on="1"/>
        <pt x="1822" y="709" on="0"/>
        <pt x="1644" y="709" on="1"/>
        <pt x="1482" y="709" on="0"/>
        <pt x="1482" y="684" on="1"/>
        <pt x="1482" y="292" on="1"/>
        <pt x="1482" y="150" on="0"/>
        <pt x="1498" y="123" on="1"/>
        <pt x="1526" y="89" on="0"/>
        <pt x="1653" y="89" on="1"/>
        <pt x="1781" y="89" on="1"/>
        <pt x="1814" y="89" on="0"/>
        <pt x="1883" y="98" on="0"/>
        <pt x="1949" y="114" on="0"/>
        <pt x="2010" y="139" on="0"/>
        <pt x="2031" y="155" on="1"/>
        <pt x="2112" y="219" on="0"/>
        <pt x="2164" y="378" on="1"/>
        <pt x="2167" y="392" on="0"/>
        <pt x="2196" y="392" on="1"/>
        <pt x="2213" y="392" on="0"/>
        <pt x="2254" y="384" on="0"/>
        <pt x="2259" y="378" on="1"/>
        <pt x="2252" y="357" on="0"/>
        <pt x="2199" y="211" on="0"/>
        <pt x="2173" y="136" on="0"/>
        <pt x="2142" y="28" on="0"/>
        <pt x="2136" y="-7" on="1"/>
        <pt x="2078" y="-7" on="0"/>
        <pt x="1519" y="-2" on="0"/>
        <pt x="1347" y="-2" on="1"/>
        <pt x="1151" y="-2" on="0"/>
        <pt x="1056" y="-7" on="1"/>
        <pt x="1044" y="-7" on="0"/>
        <pt x="1030" y="-8" on="0"/>
        <pt x="1013" y="-10" on="0"/>
        <pt x="924" y="-11" on="0"/>
        <pt x="846" y="-11" on="1"/>
        <pt x="698" y="-11" on="0"/>
        <pt x="424" y="107" on="0"/>
        <pt x="223" y="308" on="0"/>
        <pt x="103" y="591" on="0"/>
      </contour>
      <contour>
        <pt x="388" y="812" on="1"/>
        <pt x="388" y="723" on="0"/>
        <pt x="415" y="547" on="0"/>
        <pt x="469" y="381" on="0"/>
        <pt x="555" y="240" on="0"/>
        <pt x="665" y="133" on="0"/>
        <pt x="812" y="73" on="0"/>
        <pt x="896" y="73" on="1"/>
        <pt x="1110" y="73" on="0"/>
        <pt x="1170" y="155" on="1"/>
        <pt x="1201" y="198" on="0"/>
        <pt x="1222" y="301" on="0"/>
        <pt x="1222" y="388" on="1"/>
        <pt x="1222" y="1104" on="1"/>
        <pt x="1222" y="1260" on="0"/>
        <pt x="1145" y="1332" on="1"/>
        <pt x="1045" y="1427" on="0"/>
        <pt x="807" y="1427" on="1"/>
        <pt x="720" y="1427" on="0"/>
        <pt x="577" y="1355" on="0"/>
        <pt x="482" y="1235" on="0"/>
        <pt x="416" y="1074" on="0"/>
        <pt x="388" y="902" on="0"/>
      </contour>
    </TTGlyph>
    <TTGlyph name="Oacute" xMin="100" yMin="-23" xMax="1617" yMax="1972">
      <contour>
        <pt x="100" y="748" on="1"/>
        <pt x="100" y="852" on="0"/>
        <pt x="157" y="1053" on="0"/>
        <pt x="257" y="1222" on="0"/>
        <pt x="399" y="1366" on="0"/>
        <pt x="566" y="1465" on="0"/>
        <pt x="758" y="1521" on="0"/>
        <pt x="857" y="1521" on="1"/>
        <pt x="942" y="1521" on="0"/>
        <pt x="1109" y="1482" on="0"/>
        <pt x="1258" y="1407" on="0"/>
        <pt x="1391" y="1303" on="0"/>
        <pt x="1497" y="1170" on="0"/>
        <pt x="1575" y="1018" on="0"/>
        <pt x="1617" y="841" on="0"/>
        <pt x="1617" y="748" on="1"/>
        <pt x="1617" y="643" on="0"/>
        <pt x="1559" y="443" on="0"/>
        <pt x="1458" y="274" on="0"/>
        <pt x="1316" y="132" on="0"/>
        <pt x="1149" y="33" on="0"/>
        <pt x="956" y="-23" on="0"/>
        <pt x="857" y="-23" on="1"/>
        <pt x="758" y="-23" on="0"/>
        <pt x="566" y="31" on="0"/>
        <pt x="399" y="128" on="0"/>
        <pt x="258" y="269" on="0"/>
        <pt x="157" y="437" on="0"/>
        <pt x="100" y="640" on="0"/>
      </contour>
      <contour>
        <pt x="397" y="812" on="1"/>
        <pt x="397" y="722" on="0"/>
        <pt x="424" y="547" on="0"/>
        <pt x="476" y="379" on="0"/>
        <pt x="561" y="237" on="0"/>
        <pt x="670" y="129" on="0"/>
        <pt x="816" y="68" on="0"/>
        <pt x="901" y="68" on="1"/>
        <pt x="989" y="68" on="0"/>
        <pt x="1133" y="141" on="0"/>
        <pt x="1228" y="261" on="0"/>
        <pt x="1292" y="422" on="0"/>
        <pt x="1320" y="593" on="0"/>
        <pt x="1320" y="684" on="1"/>
        <pt x="1320" y="773" on="0"/>
        <pt x="1293" y="949" on="0"/>
        <pt x="1240" y="1117" on="0"/>
        <pt x="1154" y="1260" on="0"/>
        <pt x="1045" y="1368" on="0"/>
        <pt x="898" y="1430" on="0"/>
        <pt x="814" y="1430" on="1"/>
        <pt x="726" y="1430" on="0"/>
        <pt x="582" y="1357" on="0"/>
        <pt x="488" y="1236" on="0"/>
        <pt x="424" y="1074" on="0"/>
        <pt x="397" y="903" on="0"/>
      </contour>
      <contour>
        <pt x="746" y="1699" on="1"/>
        <pt x="746" y="1713" on="0"/>
        <pt x="950" y="1915" on="0"/>
        <pt x="1017" y="1965" on="1"/>
        <pt x="1031" y="1972" on="0"/>
        <pt x="1058" y="1972" on="1"/>
        <pt x="1108" y="1972" on="0"/>
        <pt x="1183" y="1930" on="0"/>
        <pt x="1183" y="1897" on="1"/>
        <pt x="1183" y="1868" on="0"/>
        <pt x="1066" y="1783" on="0"/>
        <pt x="918" y="1712" on="0"/>
        <pt x="788" y="1660" on="0"/>
        <pt x="773" y="1660" on="1"/>
        <pt x="763" y="1660" on="0"/>
        <pt x="746" y="1685" on="0"/>
      </contour>
    </TTGlyph>
    <TTGlyph name="Ocircumflex" xMin="100" yMin="-23" xMax="1617" yMax="1970">
      <contour>
        <pt x="100" y="748" on="1"/>
        <pt x="100" y="852" on="0"/>
        <pt x="157" y="1053" on="0"/>
        <pt x="257" y="1222" on="0"/>
        <pt x="399" y="1366" on="0"/>
        <pt x="566" y="1465" on="0"/>
        <pt x="758" y="1521" on="0"/>
        <pt x="857" y="1521" on="1"/>
        <pt x="942" y="1521" on="0"/>
        <pt x="1109" y="1482" on="0"/>
        <pt x="1258" y="1407" on="0"/>
        <pt x="1391" y="1303" on="0"/>
        <pt x="1497" y="1170" on="0"/>
        <pt x="1575" y="1018" on="0"/>
        <pt x="1617" y="841" on="0"/>
        <pt x="1617" y="748" on="1"/>
        <pt x="1617" y="643" on="0"/>
        <pt x="1559" y="443" on="0"/>
        <pt x="1458" y="274" on="0"/>
        <pt x="1316" y="132" on="0"/>
        <pt x="1149" y="33" on="0"/>
        <pt x="956" y="-23" on="0"/>
        <pt x="857" y="-23" on="1"/>
        <pt x="758" y="-23" on="0"/>
        <pt x="566" y="31" on="0"/>
        <pt x="399" y="128" on="0"/>
        <pt x="258" y="269" on="0"/>
        <pt x="157" y="437" on="0"/>
        <pt x="100" y="640" on="0"/>
      </contour>
      <contour>
        <pt x="397" y="812" on="1"/>
        <pt x="397" y="722" on="0"/>
        <pt x="424" y="547" on="0"/>
        <pt x="476" y="379" on="0"/>
        <pt x="561" y="237" on="0"/>
        <pt x="670" y="129" on="0"/>
        <pt x="816" y="68" on="0"/>
        <pt x="901" y="68" on="1"/>
        <pt x="989" y="68" on="0"/>
        <pt x="1133" y="141" on="0"/>
        <pt x="1228" y="261" on="0"/>
        <pt x="1292" y="422" on="0"/>
        <pt x="1320" y="593" on="0"/>
        <pt x="1320" y="684" on="1"/>
        <pt x="1320" y="773" on="0"/>
        <pt x="1293" y="949" on="0"/>
        <pt x="1240" y="1117" on="0"/>
        <pt x="1154" y="1260" on="0"/>
        <pt x="1045" y="1368" on="0"/>
        <pt x="898" y="1430" on="0"/>
        <pt x="814" y="1430" on="1"/>
        <pt x="726" y="1430" on="0"/>
        <pt x="582" y="1357" on="0"/>
        <pt x="488" y="1236" on="0"/>
        <pt x="424" y="1074" on="0"/>
        <pt x="397" y="903" on="0"/>
      </contour>
      <contour>
        <pt x="579" y="1703" on="1"/>
        <pt x="580" y="1704" on="0"/>
        <pt x="683" y="1793" on="0"/>
        <pt x="732" y="1842" on="1"/>
        <pt x="799" y="1906" on="0"/>
        <pt x="830" y="1949" on="1"/>
        <pt x="831" y="1951" on="0"/>
        <pt x="836" y="1956" on="0"/>
        <pt x="838" y="1959" on="0"/>
        <pt x="841" y="1963" on="0"/>
        <pt x="843" y="1964" on="0"/>
        <pt x="846" y="1967" on="0"/>
        <pt x="848" y="1968" on="0"/>
        <pt x="851" y="1970" on="0"/>
        <pt x="853" y="1970" on="0"/>
        <pt x="855" y="1970" on="1"/>
        <pt x="868" y="1970" on="0"/>
        <pt x="885" y="1949" on="1"/>
        <pt x="892" y="1940" on="0"/>
        <pt x="926" y="1898" on="0"/>
        <pt x="957" y="1863" on="0"/>
        <pt x="976" y="1845" on="1"/>
        <pt x="1014" y="1806" on="0"/>
        <pt x="1089" y="1740" on="0"/>
        <pt x="1134" y="1705" on="0"/>
        <pt x="1135" y="1703" on="1"/>
        <pt x="1135" y="1688" on="0"/>
        <pt x="1122" y="1660" on="0"/>
        <pt x="1113" y="1660" on="1"/>
        <pt x="1100" y="1660" on="0"/>
        <pt x="1001" y="1710" on="0"/>
        <pt x="896" y="1772" on="0"/>
        <pt x="857" y="1797" on="1"/>
        <pt x="802" y="1757" on="0"/>
        <pt x="622" y="1660" on="0"/>
        <pt x="602" y="1660" on="1"/>
        <pt x="591" y="1660" on="0"/>
        <pt x="579" y="1690" on="0"/>
      </contour>
    </TTGlyph>
    <TTGlyph name="Odieresis" xMin="100" yMin="-23" xMax="1617" yMax="1924">
      <contour>
        <pt x="100" y="748" on="1"/>
        <pt x="100" y="852" on="0"/>
        <pt x="157" y="1053" on="0"/>
        <pt x="257" y="1222" on="0"/>
        <pt x="399" y="1366" on="0"/>
        <pt x="566" y="1465" on="0"/>
        <pt x="758" y="1521" on="0"/>
        <pt x="857" y="1521" on="1"/>
        <pt x="942" y="1521" on="0"/>
        <pt x="1109" y="1482" on="0"/>
        <pt x="1258" y="1407" on="0"/>
        <pt x="1391" y="1303" on="0"/>
        <pt x="1497" y="1170" on="0"/>
        <pt x="1575" y="1018" on="0"/>
        <pt x="1617" y="841" on="0"/>
        <pt x="1617" y="748" on="1"/>
        <pt x="1617" y="643" on="0"/>
        <pt x="1559" y="443" on="0"/>
        <pt x="1458" y="274" on="0"/>
        <pt x="1316" y="132" on="0"/>
        <pt x="1149" y="33" on="0"/>
        <pt x="956" y="-23" on="0"/>
        <pt x="857" y="-23" on="1"/>
        <pt x="758" y="-23" on="0"/>
        <pt x="566" y="31" on="0"/>
        <pt x="399" y="128" on="0"/>
        <pt x="258" y="269" on="0"/>
        <pt x="157" y="437" on="0"/>
        <pt x="100" y="640" on="0"/>
      </contour>
      <contour>
        <pt x="397" y="903" on="0"/>
        <pt x="397" y="812" on="1"/>
        <pt x="397" y="722" on="0"/>
        <pt x="424" y="547" on="0"/>
        <pt x="476" y="379" on="0"/>
        <pt x="561" y="237" on="0"/>
        <pt x="670" y="129" on="0"/>
        <pt x="816" y="68" on="0"/>
        <pt x="901" y="68" on="1"/>
        <pt x="989" y="68" on="0"/>
        <pt x="1133" y="141" on="0"/>
        <pt x="1228" y="261" on="0"/>
        <pt x="1292" y="422" on="0"/>
        <pt x="1320" y="593" on="0"/>
        <pt x="1320" y="684" on="1"/>
        <pt x="1320" y="773" on="0"/>
        <pt x="1293" y="949" on="0"/>
        <pt x="1240" y="1117" on="0"/>
        <pt x="1154" y="1260" on="0"/>
        <pt x="1045" y="1368" on="0"/>
        <pt x="898" y="1430" on="0"/>
        <pt x="814" y="1430" on="1"/>
        <pt x="726" y="1430" on="0"/>
        <pt x="582" y="1357" on="0"/>
        <pt x="488" y="1236" on="0"/>
        <pt x="424" y="1074" on="0"/>
      </contour>
      <contour>
        <pt x="481" y="1792" on="1"/>
        <pt x="481" y="1847" on="0"/>
        <pt x="561" y="1924" on="0"/>
        <pt x="671" y="1924" on="0"/>
        <pt x="750" y="1847" on="0"/>
        <pt x="750" y="1738" on="0"/>
        <pt x="671" y="1660" on="0"/>
        <pt x="616" y="1660" on="1"/>
        <pt x="580" y="1660" on="0"/>
        <pt x="518" y="1695" on="0"/>
        <pt x="481" y="1756" on="0"/>
      </contour>
      <contour>
        <pt x="967" y="1792" on="1"/>
        <pt x="967" y="1847" on="0"/>
        <pt x="1046" y="1924" on="0"/>
        <pt x="1101" y="1924" on="1"/>
        <pt x="1137" y="1924" on="0"/>
        <pt x="1199" y="1889" on="0"/>
        <pt x="1236" y="1828" on="0"/>
        <pt x="1236" y="1792" on="1"/>
        <pt x="1236" y="1738" on="0"/>
        <pt x="1154" y="1660" on="0"/>
        <pt x="1099" y="1660" on="1"/>
        <pt x="1044" y="1660" on="0"/>
        <pt x="967" y="1737" on="0"/>
      </contour>
    </TTGlyph>
    <TTGlyph name="Ograve" xMin="100" yMin="-23" xMax="1617" yMax="1972">
      <contour>
        <pt x="100" y="748" on="1"/>
        <pt x="100" y="852" on="0"/>
        <pt x="157" y="1053" on="0"/>
        <pt x="257" y="1222" on="0"/>
        <pt x="399" y="1366" on="0"/>
        <pt x="566" y="1465" on="0"/>
        <pt x="758" y="1521" on="0"/>
        <pt x="857" y="1521" on="1"/>
        <pt x="942" y="1521" on="0"/>
        <pt x="1109" y="1482" on="0"/>
        <pt x="1258" y="1407" on="0"/>
        <pt x="1391" y="1303" on="0"/>
        <pt x="1497" y="1170" on="0"/>
        <pt x="1575" y="1018" on="0"/>
        <pt x="1617" y="841" on="0"/>
        <pt x="1617" y="748" on="1"/>
        <pt x="1617" y="643" on="0"/>
        <pt x="1559" y="443" on="0"/>
        <pt x="1458" y="274" on="0"/>
        <pt x="1316" y="132" on="0"/>
        <pt x="1149" y="33" on="0"/>
        <pt x="956" y="-23" on="0"/>
        <pt x="857" y="-23" on="1"/>
        <pt x="758" y="-23" on="0"/>
        <pt x="566" y="31" on="0"/>
        <pt x="399" y="128" on="0"/>
        <pt x="258" y="269" on="0"/>
        <pt x="157" y="437" on="0"/>
        <pt x="100" y="640" on="0"/>
      </contour>
      <contour>
        <pt x="397" y="812" on="1"/>
        <pt x="397" y="722" on="0"/>
        <pt x="424" y="547" on="0"/>
        <pt x="476" y="379" on="0"/>
        <pt x="561" y="237" on="0"/>
        <pt x="670" y="129" on="0"/>
        <pt x="816" y="68" on="0"/>
        <pt x="901" y="68" on="1"/>
        <pt x="989" y="68" on="0"/>
        <pt x="1133" y="141" on="0"/>
        <pt x="1228" y="261" on="0"/>
        <pt x="1292" y="422" on="0"/>
        <pt x="1320" y="593" on="0"/>
        <pt x="1320" y="684" on="1"/>
        <pt x="1320" y="773" on="0"/>
        <pt x="1293" y="949" on="0"/>
        <pt x="1240" y="1117" on="0"/>
        <pt x="1154" y="1260" on="0"/>
        <pt x="1045" y="1368" on="0"/>
        <pt x="898" y="1430" on="0"/>
        <pt x="814" y="1430" on="1"/>
        <pt x="726" y="1430" on="0"/>
        <pt x="582" y="1357" on="0"/>
        <pt x="488" y="1236" on="0"/>
        <pt x="424" y="1074" on="0"/>
        <pt x="397" y="903" on="0"/>
      </contour>
      <contour>
        <pt x="534" y="1897" on="1"/>
        <pt x="534" y="1930" on="0"/>
        <pt x="607" y="1972" on="0"/>
        <pt x="657" y="1972" on="1"/>
        <pt x="684" y="1972" on="0"/>
        <pt x="698" y="1965" on="1"/>
        <pt x="765" y="1915" on="0"/>
        <pt x="971" y="1713" on="0"/>
        <pt x="971" y="1699" on="1"/>
        <pt x="971" y="1685" on="0"/>
        <pt x="952" y="1660" on="0"/>
        <pt x="942" y="1660" on="1"/>
        <pt x="927" y="1660" on="0"/>
        <pt x="798" y="1712" on="0"/>
        <pt x="650" y="1783" on="0"/>
        <pt x="534" y="1868" on="0"/>
      </contour>
    </TTGlyph>
    <TTGlyph name="Oslash" xMin="100" yMin="-36" xMax="1617" yMax="1532">
      <contour>
        <pt x="100" y="748" on="1"/>
        <pt x="100" y="852" on="0"/>
        <pt x="157" y="1053" on="0"/>
        <pt x="257" y="1222" on="0"/>
        <pt x="399" y="1366" on="0"/>
        <pt x="566" y="1465" on="0"/>
        <pt x="758" y="1521" on="0"/>
        <pt x="857" y="1521" on="1"/>
        <pt x="942" y="1521" on="0"/>
        <pt x="1109" y="1482" on="0"/>
        <pt x="1258" y="1407" on="0"/>
        <pt x="1391" y="1303" on="0"/>
        <pt x="1497" y="1170" on="0"/>
        <pt x="1575" y="1018" on="0"/>
        <pt x="1617" y="841" on="0"/>
        <pt x="1617" y="748" on="1"/>
        <pt x="1617" y="643" on="0"/>
        <pt x="1559" y="443" on="0"/>
        <pt x="1458" y="274" on="0"/>
        <pt x="1316" y="132" on="0"/>
        <pt x="1149" y="33" on="0"/>
        <pt x="956" y="-23" on="0"/>
        <pt x="857" y="-23" on="1"/>
        <pt x="758" y="-23" on="0"/>
        <pt x="566" y="31" on="0"/>
        <pt x="399" y="128" on="0"/>
        <pt x="258" y="269" on="0"/>
        <pt x="157" y="437" on="0"/>
        <pt x="100" y="640" on="0"/>
      </contour>
      <contour>
        <pt x="356" y="16" on="1"/>
        <pt x="1263" y="1532" on="1"/>
        <pt x="1281" y="1528" on="0"/>
        <pt x="1343" y="1491" on="0"/>
        <pt x="1338" y="1482" on="1"/>
        <pt x="433" y="-36" on="1"/>
        <pt x="422" y="-32" on="0"/>
        <pt x="385" y="-14" on="0"/>
        <pt x="353" y="10" on="0"/>
      </contour>
      <contour>
        <pt x="397" y="812" on="1"/>
        <pt x="397" y="722" on="0"/>
        <pt x="424" y="547" on="0"/>
        <pt x="476" y="379" on="0"/>
        <pt x="561" y="237" on="0"/>
        <pt x="670" y="129" on="0"/>
        <pt x="816" y="68" on="0"/>
        <pt x="901" y="68" on="1"/>
        <pt x="989" y="68" on="0"/>
        <pt x="1133" y="141" on="0"/>
        <pt x="1228" y="261" on="0"/>
        <pt x="1292" y="422" on="0"/>
        <pt x="1320" y="593" on="0"/>
        <pt x="1320" y="684" on="1"/>
        <pt x="1320" y="773" on="0"/>
        <pt x="1293" y="949" on="0"/>
        <pt x="1240" y="1117" on="0"/>
        <pt x="1154" y="1260" on="0"/>
        <pt x="1045" y="1368" on="0"/>
        <pt x="898" y="1430" on="0"/>
        <pt x="814" y="1430" on="1"/>
        <pt x="726" y="1430" on="0"/>
        <pt x="582" y="1357" on="0"/>
        <pt x="488" y="1236" on="0"/>
        <pt x="424" y="1074" on="0"/>
        <pt x="397" y="903" on="0"/>
      </contour>
    </TTGlyph>
    <TTGlyph name="Otilde" xMin="100" yMin="-23" xMax="1617" yMax="1899">
      <contour>
        <pt x="100" y="748" on="1"/>
        <pt x="100" y="852" on="0"/>
        <pt x="157" y="1053" on="0"/>
        <pt x="257" y="1222" on="0"/>
        <pt x="399" y="1366" on="0"/>
        <pt x="566" y="1465" on="0"/>
        <pt x="758" y="1521" on="0"/>
        <pt x="857" y="1521" on="1"/>
        <pt x="942" y="1521" on="0"/>
        <pt x="1109" y="1482" on="0"/>
        <pt x="1258" y="1407" on="0"/>
        <pt x="1391" y="1303" on="0"/>
        <pt x="1497" y="1170" on="0"/>
        <pt x="1575" y="1018" on="0"/>
        <pt x="1617" y="841" on="0"/>
        <pt x="1617" y="748" on="1"/>
        <pt x="1617" y="643" on="0"/>
        <pt x="1559" y="443" on="0"/>
        <pt x="1458" y="274" on="0"/>
        <pt x="1316" y="132" on="0"/>
        <pt x="1149" y="33" on="0"/>
        <pt x="956" y="-23" on="0"/>
        <pt x="857" y="-23" on="1"/>
        <pt x="758" y="-23" on="0"/>
        <pt x="566" y="31" on="0"/>
        <pt x="399" y="128" on="0"/>
        <pt x="258" y="269" on="0"/>
        <pt x="157" y="437" on="0"/>
        <pt x="100" y="640" on="0"/>
      </contour>
      <contour>
        <pt x="397" y="812" on="1"/>
        <pt x="397" y="722" on="0"/>
        <pt x="424" y="547" on="0"/>
        <pt x="476" y="379" on="0"/>
        <pt x="561" y="237" on="0"/>
        <pt x="670" y="129" on="0"/>
        <pt x="816" y="68" on="0"/>
        <pt x="901" y="68" on="1"/>
        <pt x="989" y="68" on="0"/>
        <pt x="1133" y="141" on="0"/>
        <pt x="1228" y="261" on="0"/>
        <pt x="1292" y="422" on="0"/>
        <pt x="1320" y="593" on="0"/>
        <pt x="1320" y="684" on="1"/>
        <pt x="1320" y="773" on="0"/>
        <pt x="1293" y="949" on="0"/>
        <pt x="1240" y="1117" on="0"/>
        <pt x="1154" y="1260" on="0"/>
        <pt x="1045" y="1368" on="0"/>
        <pt x="898" y="1430" on="0"/>
        <pt x="814" y="1430" on="1"/>
        <pt x="726" y="1430" on="0"/>
        <pt x="582" y="1357" on="0"/>
        <pt x="488" y="1236" on="0"/>
        <pt x="424" y="1074" on="0"/>
        <pt x="397" y="903" on="0"/>
      </contour>
      <contour>
        <pt x="486" y="1708" on="1"/>
        <pt x="486" y="1732" on="0"/>
        <pt x="507" y="1785" on="0"/>
        <pt x="522" y="1803" on="1"/>
        <pt x="600" y="1899" on="0"/>
        <pt x="707" y="1899" on="1"/>
        <pt x="741" y="1899" on="0"/>
        <pt x="809" y="1881" on="0"/>
        <pt x="852" y="1861" on="0"/>
        <pt x="887" y="1842" on="1"/>
        <pt x="1001" y="1778" on="0"/>
        <pt x="1051" y="1778" on="1"/>
        <pt x="1088" y="1778" on="0"/>
        <pt x="1152" y="1808" on="0"/>
        <pt x="1186" y="1842" on="0"/>
        <pt x="1217" y="1876" on="0"/>
        <pt x="1222" y="1879" on="1"/>
        <pt x="1226" y="1879" on="0"/>
        <pt x="1235" y="1869" on="0"/>
        <pt x="1240" y="1856" on="0"/>
        <pt x="1240" y="1851" on="1"/>
        <pt x="1240" y="1804" on="0"/>
        <pt x="1202" y="1756" on="1"/>
        <pt x="1124" y="1660" on="0"/>
        <pt x="1017" y="1660" on="1"/>
        <pt x="983" y="1660" on="0"/>
        <pt x="915" y="1678" on="0"/>
        <pt x="875" y="1697" on="0"/>
        <pt x="839" y="1717" on="1"/>
        <pt x="835" y="1719" on="0"/>
        <pt x="801" y="1738" on="0"/>
        <pt x="791" y="1744" on="0"/>
        <pt x="761" y="1759" on="0"/>
        <pt x="748" y="1765" on="0"/>
        <pt x="722" y="1775" on="0"/>
        <pt x="705" y="1779" on="0"/>
        <pt x="683" y="1783" on="0"/>
        <pt x="673" y="1783" on="1"/>
        <pt x="636" y="1783" on="0"/>
        <pt x="572" y="1752" on="0"/>
        <pt x="537" y="1716" on="0"/>
        <pt x="507" y="1680" on="0"/>
        <pt x="502" y="1678" on="1"/>
        <pt x="495" y="1678" on="0"/>
        <pt x="486" y="1700" on="0"/>
      </contour>
    </TTGlyph>
    <TTGlyph name="P" xMin="91" yMin="-9" xMax="1236" yMax="1507">
      <contour>
        <pt x="91" y="1" on="0"/>
        <pt x="91" y="56" on="0"/>
        <pt x="98" y="66" on="1"/>
        <pt x="116" y="66" on="0"/>
        <pt x="179" y="73" on="0"/>
        <pt x="244" y="92" on="0"/>
        <pt x="249" y="105" on="1"/>
        <pt x="264" y="153" on="0"/>
        <pt x="264" y="296" on="1"/>
        <pt x="264" y="1204" on="1"/>
        <pt x="264" y="1347" on="0"/>
        <pt x="249" y="1395" on="1"/>
        <pt x="244" y="1408" on="0"/>
        <pt x="178" y="1426" on="0"/>
        <pt x="117" y="1432" on="0"/>
        <pt x="98" y="1432" on="1"/>
        <pt x="91" y="1442" on="0"/>
        <pt x="91" y="1497" on="0"/>
        <pt x="98" y="1507" on="1"/>
        <pt x="294" y="1498" on="0"/>
        <pt x="399" y="1498" on="1"/>
        <pt x="439" y="1498" on="0"/>
        <pt x="664" y="1505" on="0"/>
        <pt x="736" y="1505" on="1"/>
        <pt x="811" y="1505" on="0"/>
        <pt x="955" y="1472" on="0"/>
        <pt x="1082" y="1404" on="0"/>
        <pt x="1179" y="1310" on="0"/>
        <pt x="1236" y="1179" on="0"/>
        <pt x="1236" y="1104" on="1"/>
        <pt x="1236" y="998" on="0"/>
        <pt x="1162" y="822" on="0"/>
        <pt x="1034" y="704" on="0"/>
        <pt x="860" y="638" on="0"/>
        <pt x="762" y="638" on="1"/>
        <pt x="680" y="638" on="0"/>
        <pt x="632" y="675" on="1"/>
        <pt x="625" y="682" on="0"/>
        <pt x="604" y="719" on="0"/>
        <pt x="604" y="730" on="1"/>
        <pt x="604" y="736" on="0"/>
        <pt x="610" y="748" on="0"/>
        <pt x="613" y="748" on="1"/>
        <pt x="644" y="739" on="0"/>
        <pt x="702" y="739" on="1"/>
        <pt x="815" y="739" on="0"/>
        <pt x="962" y="913" on="0"/>
        <pt x="962" y="1060" on="1"/>
        <pt x="962" y="1137" on="0"/>
        <pt x="920" y="1267" on="0"/>
        <pt x="842" y="1363" on="0"/>
        <pt x="722" y="1418" on="0"/>
        <pt x="648" y="1418" on="1"/>
        <pt x="544" y="1418" on="0"/>
        <pt x="534" y="1393" on="1"/>
        <pt x="531" y="1387" on="0"/>
        <pt x="528" y="1372" on="0"/>
        <pt x="526" y="1352" on="0"/>
        <pt x="525" y="1334" on="0"/>
        <pt x="524" y="1304" on="0"/>
        <pt x="524" y="1285" on="0"/>
        <pt x="524" y="1248" on="0"/>
        <pt x="524" y="1238" on="1"/>
        <pt x="524" y="296" on="1"/>
        <pt x="524" y="146" on="0"/>
        <pt x="538" y="105" on="1"/>
        <pt x="544" y="87" on="0"/>
        <pt x="655" y="66" on="0"/>
        <pt x="689" y="66" on="1"/>
        <pt x="695" y="56" on="0"/>
        <pt x="695" y="1" on="0"/>
        <pt x="689" y="-9" on="1"/>
        <pt x="506" y="5" on="0"/>
        <pt x="392" y="5" on="1"/>
        <pt x="280" y="5" on="0"/>
        <pt x="98" y="-9" on="1"/>
      </contour>
    </TTGlyph>
    <TTGlyph name="Q" xMin="100" yMin="-319" xMax="1794" yMax="1521">
      <contour>
        <pt x="100" y="748" on="1"/>
        <pt x="100" y="852" on="0"/>
        <pt x="157" y="1053" on="0"/>
        <pt x="257" y="1222" on="0"/>
        <pt x="399" y="1366" on="0"/>
        <pt x="566" y="1465" on="0"/>
        <pt x="758" y="1521" on="0"/>
        <pt x="857" y="1521" on="1"/>
        <pt x="942" y="1521" on="0"/>
        <pt x="1109" y="1482" on="0"/>
        <pt x="1258" y="1407" on="0"/>
        <pt x="1391" y="1303" on="0"/>
        <pt x="1497" y="1170" on="0"/>
        <pt x="1575" y="1018" on="0"/>
        <pt x="1617" y="841" on="0"/>
        <pt x="1617" y="748" on="1"/>
        <pt x="1617" y="621" on="0"/>
        <pt x="1533" y="382" on="0"/>
        <pt x="1388" y="193" on="0"/>
        <pt x="1191" y="50" on="0"/>
        <pt x="1078" y="14" on="1"/>
        <pt x="1131" y="-12" on="0"/>
        <pt x="1248" y="-80" on="0"/>
        <pt x="1320" y="-120" on="0"/>
        <pt x="1412" y="-160" on="0"/>
        <pt x="1518" y="-178" on="0"/>
        <pt x="1585" y="-178" on="1"/>
        <pt x="1616" y="-178" on="0"/>
        <pt x="1676" y="-173" on="0"/>
        <pt x="1709" y="-167" on="0"/>
        <pt x="1742" y="-160" on="0"/>
        <pt x="1744" y="-160" on="1"/>
        <pt x="1756" y="-160" on="0"/>
        <pt x="1786" y="-173" on="0"/>
        <pt x="1792" y="-182" on="1"/>
        <pt x="1794" y="-187" on="0"/>
        <pt x="1794" y="-192" on="1"/>
        <pt x="1552" y="-319" on="0"/>
        <pt x="1373" y="-319" on="1"/>
        <pt x="1304" y="-319" on="0"/>
        <pt x="1163" y="-268" on="0"/>
        <pt x="1033" y="-188" on="0"/>
        <pt x="906" y="-103" on="0"/>
        <pt x="751" y="-20" on="0"/>
        <pt x="677" y="0" on="1"/>
        <pt x="556" y="31" on="0"/>
        <pt x="345" y="169" on="0"/>
        <pt x="190" y="362" on="0"/>
        <pt x="100" y="612" on="0"/>
      </contour>
      <contour>
        <pt x="397" y="812" on="1"/>
        <pt x="397" y="722" on="0"/>
        <pt x="424" y="547" on="0"/>
        <pt x="476" y="379" on="0"/>
        <pt x="561" y="237" on="0"/>
        <pt x="670" y="129" on="0"/>
        <pt x="816" y="68" on="0"/>
        <pt x="901" y="68" on="1"/>
        <pt x="989" y="68" on="0"/>
        <pt x="1133" y="141" on="0"/>
        <pt x="1228" y="261" on="0"/>
        <pt x="1292" y="422" on="0"/>
        <pt x="1320" y="593" on="0"/>
        <pt x="1320" y="684" on="1"/>
        <pt x="1320" y="773" on="0"/>
        <pt x="1293" y="949" on="0"/>
        <pt x="1240" y="1117" on="0"/>
        <pt x="1154" y="1260" on="0"/>
        <pt x="1045" y="1368" on="0"/>
        <pt x="898" y="1430" on="0"/>
        <pt x="814" y="1430" on="1"/>
        <pt x="726" y="1430" on="0"/>
        <pt x="582" y="1357" on="0"/>
        <pt x="488" y="1236" on="0"/>
        <pt x="424" y="1074" on="0"/>
        <pt x="397" y="903" on="0"/>
      </contour>
    </TTGlyph>
    <TTGlyph name="R" xMin="91" yMin="-10" xMax="1576" yMax="1507">
      <contour>
        <pt x="91" y="1" on="0"/>
        <pt x="91" y="56" on="0"/>
        <pt x="98" y="66" on="1"/>
        <pt x="116" y="66" on="0"/>
        <pt x="179" y="73" on="0"/>
        <pt x="244" y="92" on="0"/>
        <pt x="249" y="105" on="1"/>
        <pt x="264" y="153" on="0"/>
        <pt x="264" y="296" on="1"/>
        <pt x="264" y="1204" on="1"/>
        <pt x="264" y="1347" on="0"/>
        <pt x="249" y="1395" on="1"/>
        <pt x="244" y="1408" on="0"/>
        <pt x="178" y="1426" on="0"/>
        <pt x="117" y="1432" on="0"/>
        <pt x="98" y="1432" on="1"/>
        <pt x="91" y="1442" on="0"/>
        <pt x="91" y="1497" on="0"/>
        <pt x="98" y="1507" on="1"/>
        <pt x="294" y="1498" on="0"/>
        <pt x="399" y="1498" on="1"/>
        <pt x="439" y="1498" on="0"/>
        <pt x="664" y="1505" on="0"/>
        <pt x="736" y="1505" on="1"/>
        <pt x="783" y="1505" on="0"/>
        <pt x="873" y="1492" on="0"/>
        <pt x="957" y="1466" on="0"/>
        <pt x="1034" y="1427" on="0"/>
        <pt x="1100" y="1377" on="0"/>
        <pt x="1154" y="1312" on="0"/>
        <pt x="1192" y="1238" on="0"/>
        <pt x="1213" y="1148" on="0"/>
        <pt x="1213" y="1099" on="1"/>
        <pt x="1213" y="1036" on="0"/>
        <pt x="1153" y="911" on="0"/>
        <pt x="1059" y="816" on="0"/>
        <pt x="952" y="745" on="0"/>
        <pt x="901" y="730" on="1"/>
        <pt x="941" y="669" on="0"/>
        <pt x="1025" y="551" on="0"/>
        <pt x="1108" y="437" on="0"/>
        <pt x="1162" y="366" on="0"/>
        <pt x="1243" y="258" on="0"/>
        <pt x="1252" y="246" on="1"/>
        <pt x="1384" y="78" on="0"/>
        <pt x="1571" y="66" on="1"/>
        <pt x="1576" y="56" on="0"/>
        <pt x="1576" y="40" on="1"/>
        <pt x="1576" y="33" on="0"/>
        <pt x="1575" y="25" on="1"/>
        <pt x="1572" y="-2" on="0"/>
        <pt x="1569" y="-9" on="1"/>
        <pt x="1522" y="-10" on="0"/>
        <pt x="1480" y="-10" on="1"/>
        <pt x="1345" y="-10" on="0"/>
        <pt x="1270" y="0" on="1"/>
        <pt x="1195" y="3" on="0"/>
        <pt x="1065" y="79" on="0"/>
        <pt x="1021" y="137" on="1"/>
        <pt x="1002" y="161" on="0"/>
        <pt x="703" y="581" on="0"/>
        <pt x="654" y="654" on="1"/>
        <pt x="647" y="664" on="0"/>
        <pt x="616" y="684" on="0"/>
        <pt x="600" y="684" on="1"/>
        <pt x="524" y="684" on="1"/>
        <pt x="524" y="296" on="1"/>
        <pt x="524" y="146" on="0"/>
        <pt x="538" y="105" on="1"/>
        <pt x="544" y="87" on="0"/>
        <pt x="655" y="66" on="0"/>
        <pt x="689" y="66" on="1"/>
        <pt x="695" y="56" on="0"/>
        <pt x="695" y="1" on="0"/>
        <pt x="689" y="-9" on="1"/>
        <pt x="506" y="5" on="0"/>
        <pt x="392" y="5" on="1"/>
        <pt x="280" y="5" on="0"/>
        <pt x="98" y="-9" on="1"/>
      </contour>
      <contour>
        <pt x="524" y="764" on="1"/>
        <pt x="636" y="764" on="1"/>
        <pt x="717" y="764" on="0"/>
        <pt x="855" y="838" on="0"/>
        <pt x="939" y="975" on="0"/>
        <pt x="939" y="1060" on="1"/>
        <pt x="939" y="1120" on="0"/>
        <pt x="921" y="1223" on="0"/>
        <pt x="878" y="1315" on="0"/>
        <pt x="812" y="1380" on="0"/>
        <pt x="711" y="1418" on="0"/>
        <pt x="648" y="1418" on="1"/>
        <pt x="544" y="1418" on="0"/>
        <pt x="534" y="1393" on="1"/>
        <pt x="531" y="1387" on="0"/>
        <pt x="528" y="1372" on="0"/>
        <pt x="526" y="1352" on="0"/>
        <pt x="525" y="1334" on="0"/>
        <pt x="524" y="1304" on="0"/>
        <pt x="524" y="1285" on="0"/>
        <pt x="524" y="1248" on="0"/>
        <pt x="524" y="1238" on="1"/>
      </contour>
    </TTGlyph>
    <TTGlyph name="S" xMin="109" yMin="-23" xMax="1069" yMax="1523">
      <contour>
        <pt x="109" y="410" on="1"/>
        <pt x="114" y="419" on="0"/>
        <pt x="162" y="440" on="0"/>
        <pt x="173" y="440" on="1"/>
        <pt x="197" y="440" on="0"/>
        <pt x="201" y="420" on="1"/>
        <pt x="207" y="384" on="0"/>
        <pt x="237" y="301" on="0"/>
        <pt x="298" y="201" on="0"/>
        <pt x="379" y="122" on="0"/>
        <pt x="503" y="68" on="0"/>
        <pt x="575" y="68" on="1"/>
        <pt x="607" y="68" on="0"/>
        <pt x="667" y="82" on="0"/>
        <pt x="723" y="108" on="0"/>
        <pt x="768" y="149" on="0"/>
        <pt x="802" y="202" on="0"/>
        <pt x="821" y="273" on="0"/>
        <pt x="821" y="315" on="1"/>
        <pt x="821" y="343" on="0"/>
        <pt x="809" y="396" on="0"/>
        <pt x="782" y="444" on="0"/>
        <pt x="756" y="484" on="0"/>
        <pt x="709" y="526" on="0"/>
        <pt x="674" y="555" on="0"/>
        <pt x="615" y="594" on="0"/>
        <pt x="580" y="616" on="0"/>
        <pt x="516" y="655" on="0"/>
        <pt x="502" y="663" on="1"/>
        <pt x="496" y="667" on="0"/>
        <pt x="486" y="673" on="1"/>
        <pt x="449" y="696" on="0"/>
        <pt x="410" y="721" on="0"/>
        <pt x="340" y="769" on="0"/>
        <pt x="301" y="801" on="0"/>
        <pt x="243" y="853" on="0"/>
        <pt x="210" y="895" on="0"/>
        <pt x="171" y="954" on="0"/>
        <pt x="151" y="1011" on="0"/>
        <pt x="137" y="1080" on="0"/>
        <pt x="137" y="1117" on="1"/>
        <pt x="137" y="1203" on="0"/>
        <pt x="217" y="1357" on="0"/>
        <pt x="347" y="1462" on="0"/>
        <pt x="515" y="1523" on="0"/>
        <pt x="602" y="1523" on="1"/>
        <pt x="650" y="1523" on="0"/>
        <pt x="747" y="1511" on="0"/>
        <pt x="810" y="1497" on="0"/>
        <pt x="929" y="1467" on="0"/>
        <pt x="967" y="1459" on="1"/>
        <pt x="982" y="1329" on="0"/>
        <pt x="992" y="1108" on="1"/>
        <pt x="989" y="1092" on="0"/>
        <pt x="967" y="1092" on="1"/>
        <pt x="907" y="1092" on="0"/>
        <pt x="903" y="1113" on="1"/>
        <pt x="898" y="1150" on="0"/>
        <pt x="867" y="1234" on="0"/>
        <pt x="813" y="1320" on="0"/>
        <pt x="745" y="1389" on="0"/>
        <pt x="651" y="1432" on="0"/>
        <pt x="600" y="1432" on="1"/>
        <pt x="493" y="1432" on="0"/>
        <pt x="378" y="1312" on="0"/>
        <pt x="378" y="1211" on="1"/>
        <pt x="378" y="1187" on="0"/>
        <pt x="390" y="1140" on="0"/>
        <pt x="405" y="1102" on="0"/>
        <pt x="438" y="1058" on="0"/>
        <pt x="462" y="1028" on="0"/>
        <pt x="511" y="986" on="0"/>
        <pt x="539" y="962" on="0"/>
        <pt x="598" y="920" on="0"/>
        <pt x="625" y="903" on="0"/>
        <pt x="691" y="860" on="0"/>
        <pt x="702" y="853" on="1"/>
        <pt x="717" y="843" on="0"/>
        <pt x="749" y="823" on="1"/>
        <pt x="778" y="805" on="0"/>
        <pt x="809" y="785" on="0"/>
        <pt x="866" y="746" on="0"/>
        <pt x="899" y="719" on="0"/>
        <pt x="949" y="677" on="0"/>
        <pt x="979" y="641" on="0"/>
        <pt x="1017" y="594" on="0"/>
        <pt x="1039" y="546" on="0"/>
        <pt x="1060" y="491" on="0"/>
        <pt x="1069" y="430" on="0"/>
        <pt x="1069" y="397" on="1"/>
        <pt x="1069" y="306" on="0"/>
        <pt x="987" y="146" on="0"/>
        <pt x="851" y="39" on="0"/>
        <pt x="676" y="-23" on="0"/>
        <pt x="584" y="-23" on="1"/>
        <pt x="516" y="-23" on="0"/>
        <pt x="341" y="2" on="0"/>
        <pt x="257" y="19" on="0"/>
        <pt x="160" y="41" on="1"/>
        <pt x="143" y="120" on="0"/>
        <pt x="112" y="366" on="0"/>
      </contour>
    </TTGlyph>
    <TTGlyph name="T" xMin="23" yMin="-9" xMax="1411" yMax="1545">
      <contour>
        <pt x="23" y="1135" on="1"/>
        <pt x="40" y="1212" on="0"/>
        <pt x="84" y="1541" on="1"/>
        <pt x="92" y="1545" on="0"/>
        <pt x="112" y="1544" on="0"/>
        <pt x="123" y="1541" on="1"/>
        <pt x="132" y="1539" on="0"/>
        <pt x="188" y="1517" on="0"/>
        <pt x="261" y="1500" on="0"/>
        <pt x="306" y="1500" on="1"/>
        <pt x="1129" y="1500" on="1"/>
        <pt x="1173" y="1500" on="0"/>
        <pt x="1248" y="1517" on="0"/>
        <pt x="1306" y="1539" on="0"/>
        <pt x="1316" y="1541" on="1"/>
        <pt x="1328" y="1543" on="0"/>
        <pt x="1346" y="1544" on="0"/>
        <pt x="1352" y="1541" on="1"/>
        <pt x="1399" y="1188" on="0"/>
        <pt x="1411" y="1135" on="1"/>
        <pt x="1406" y="1130" on="0"/>
        <pt x="1371" y="1117" on="0"/>
        <pt x="1357" y="1117" on="1"/>
        <pt x="1336" y="1117" on="0"/>
        <pt x="1329" y="1131" on="1"/>
        <pt x="1319" y="1189" on="0"/>
        <pt x="1276" y="1290" on="0"/>
        <pt x="1217" y="1366" on="0"/>
        <pt x="1141" y="1409" on="0"/>
        <pt x="1099" y="1409" on="1"/>
        <pt x="850" y="1409" on="1"/>
        <pt x="850" y="296" on="1"/>
        <pt x="850" y="146" on="0"/>
        <pt x="864" y="105" on="1"/>
        <pt x="870" y="87" on="0"/>
        <pt x="981" y="66" on="0"/>
        <pt x="1015" y="66" on="1"/>
        <pt x="1021" y="56" on="0"/>
        <pt x="1021" y="1" on="0"/>
        <pt x="1015" y="-9" on="1"/>
        <pt x="832" y="5" on="0"/>
        <pt x="604" y="5" on="0"/>
        <pt x="422" y="-9" on="1"/>
        <pt x="415" y="1" on="0"/>
        <pt x="415" y="56" on="0"/>
        <pt x="422" y="66" on="1"/>
        <pt x="456" y="66" on="0"/>
        <pt x="569" y="87" on="0"/>
        <pt x="575" y="105" on="1"/>
        <pt x="591" y="153" on="0"/>
        <pt x="591" y="296" on="1"/>
        <pt x="591" y="1409" on="1"/>
        <pt x="335" y="1409" on="1"/>
        <pt x="252" y="1409" on="0"/>
        <pt x="126" y="1251" on="0"/>
        <pt x="105" y="1131" on="1"/>
        <pt x="98" y="1117" on="0"/>
        <pt x="80" y="1117" on="1"/>
        <pt x="65" y="1117" on="0"/>
        <pt x="28" y="1130" on="0"/>
      </contour>
    </TTGlyph>
    <TTGlyph name="Thorn" xMin="91" yMin="-9" xMax="1213" yMax="1509">
      <contour>
        <pt x="91" y="1" on="0"/>
        <pt x="91" y="56" on="0"/>
        <pt x="98" y="66" on="1"/>
        <pt x="116" y="66" on="0"/>
        <pt x="179" y="73" on="0"/>
        <pt x="244" y="92" on="0"/>
        <pt x="249" y="105" on="1"/>
        <pt x="264" y="153" on="0"/>
        <pt x="264" y="296" on="1"/>
        <pt x="264" y="1204" on="1"/>
        <pt x="264" y="1347" on="0"/>
        <pt x="249" y="1395" on="1"/>
        <pt x="245" y="1405" on="0"/>
        <pt x="205" y="1421" on="0"/>
        <pt x="154" y="1429" on="0"/>
        <pt x="110" y="1434" on="0"/>
        <pt x="98" y="1434" on="1"/>
        <pt x="91" y="1444" on="0"/>
        <pt x="91" y="1499" on="0"/>
        <pt x="98" y="1509" on="1"/>
        <pt x="280" y="1496" on="0"/>
        <pt x="394" y="1496" on="1"/>
        <pt x="506" y="1496" on="0"/>
        <pt x="689" y="1509" on="1"/>
        <pt x="695" y="1499" on="0"/>
        <pt x="695" y="1444" on="0"/>
        <pt x="689" y="1434" on="1"/>
        <pt x="655" y="1434" on="0"/>
        <pt x="544" y="1413" on="0"/>
        <pt x="538" y="1395" on="1"/>
        <pt x="522" y="1353" on="0"/>
        <pt x="522" y="1233" on="1"/>
        <pt x="522" y="1230" on="0"/>
        <pt x="524" y="1165" on="0"/>
        <pt x="524" y="1161" on="1"/>
        <pt x="587" y="1174" on="0"/>
        <pt x="709" y="1174" on="1"/>
        <pt x="809" y="1174" on="0"/>
        <pt x="993" y="1114" on="0"/>
        <pt x="1131" y="1007" on="0"/>
        <pt x="1213" y="852" on="0"/>
        <pt x="1213" y="762" on="1"/>
        <pt x="1213" y="636" on="0"/>
        <pt x="1092" y="427" on="0"/>
        <pt x="878" y="308" on="0"/>
        <pt x="748" y="308" on="1"/>
        <pt x="670" y="308" on="0"/>
        <pt x="618" y="347" on="1"/>
        <pt x="611" y="354" on="0"/>
        <pt x="591" y="388" on="0"/>
        <pt x="591" y="399" on="1"/>
        <pt x="591" y="406" on="0"/>
        <pt x="596" y="415" on="0"/>
        <pt x="600" y="415" on="1"/>
        <pt x="622" y="408" on="0"/>
        <pt x="689" y="408" on="1"/>
        <pt x="800" y="408" on="0"/>
        <pt x="946" y="581" on="0"/>
        <pt x="946" y="720" on="1"/>
        <pt x="946" y="795" on="0"/>
        <pt x="906" y="927" on="0"/>
        <pt x="831" y="1028" on="0"/>
        <pt x="713" y="1088" on="0"/>
        <pt x="641" y="1088" on="1"/>
        <pt x="618" y="1088" on="0"/>
        <pt x="575" y="1083" on="0"/>
        <pt x="538" y="1069" on="0"/>
        <pt x="534" y="1058" on="1"/>
        <pt x="524" y="1036" on="0"/>
        <pt x="524" y="903" on="1"/>
        <pt x="524" y="296" on="1"/>
        <pt x="524" y="146" on="0"/>
        <pt x="538" y="105" on="1"/>
        <pt x="544" y="87" on="0"/>
        <pt x="655" y="66" on="0"/>
        <pt x="689" y="66" on="1"/>
        <pt x="695" y="56" on="0"/>
        <pt x="695" y="1" on="0"/>
        <pt x="689" y="-9" on="1"/>
        <pt x="506" y="5" on="0"/>
        <pt x="392" y="5" on="1"/>
        <pt x="280" y="5" on="0"/>
        <pt x="98" y="-9" on="1"/>
      </contour>
    </TTGlyph>
    <TTGlyph name="U" xMin="55" yMin="-14" xMax="1645" yMax="1509">
      <contour>
        <pt x="55" y="1444" on="0"/>
        <pt x="55" y="1499" on="0"/>
        <pt x="62" y="1509" on="1"/>
        <pt x="244" y="1496" on="0"/>
        <pt x="360" y="1496" on="1"/>
        <pt x="472" y="1496" on="0"/>
        <pt x="654" y="1509" on="1"/>
        <pt x="661" y="1499" on="0"/>
        <pt x="661" y="1444" on="0"/>
        <pt x="654" y="1434" on="1"/>
        <pt x="620" y="1434" on="0"/>
        <pt x="508" y="1413" on="0"/>
        <pt x="502" y="1395" on="1"/>
        <pt x="488" y="1354" on="0"/>
        <pt x="488" y="1204" on="1"/>
        <pt x="488" y="714" on="1"/>
        <pt x="488" y="578" on="0"/>
        <pt x="526" y="386" on="0"/>
        <pt x="572" y="310" on="1"/>
        <pt x="668" y="135" on="0"/>
        <pt x="901" y="135" on="1"/>
        <pt x="966" y="135" on="0"/>
        <pt x="1080" y="168" on="0"/>
        <pt x="1185" y="247" on="0"/>
        <pt x="1260" y="367" on="0"/>
        <pt x="1305" y="550" on="0"/>
        <pt x="1306" y="666" on="1"/>
        <pt x="1306" y="1167" on="1"/>
        <pt x="1306" y="1332" on="0"/>
        <pt x="1279" y="1386" on="1"/>
        <pt x="1272" y="1401" on="0"/>
        <pt x="1201" y="1425" on="0"/>
        <pt x="1132" y="1436" on="0"/>
        <pt x="1113" y="1436" on="1"/>
        <pt x="1105" y="1448" on="0"/>
        <pt x="1105" y="1498" on="0"/>
        <pt x="1110" y="1509" on="1"/>
        <pt x="1129" y="1508" on="0"/>
        <pt x="1226" y="1501" on="0"/>
        <pt x="1268" y="1498" on="0"/>
        <pt x="1343" y="1496" on="0"/>
        <pt x="1379" y="1496" on="1"/>
        <pt x="1439" y="1496" on="0"/>
        <pt x="1608" y="1508" on="0"/>
        <pt x="1637" y="1509" on="1"/>
        <pt x="1645" y="1498" on="0"/>
        <pt x="1645" y="1473" on="1"/>
        <pt x="1645" y="1451" on="0"/>
        <pt x="1637" y="1436" on="1"/>
        <pt x="1600" y="1436" on="0"/>
        <pt x="1471" y="1410" on="0"/>
        <pt x="1459" y="1386" on="1"/>
        <pt x="1432" y="1325" on="0"/>
        <pt x="1432" y="1170" on="1"/>
        <pt x="1432" y="641" on="1"/>
        <pt x="1432" y="506" on="0"/>
        <pt x="1370" y="287" on="0"/>
        <pt x="1261" y="135" on="0"/>
        <pt x="1106" y="33" on="0"/>
        <pt x="925" y="-14" on="0"/>
        <pt x="821" y="-14" on="1"/>
        <pt x="684" y="-14" on="0"/>
        <pt x="453" y="74" on="0"/>
        <pt x="376" y="160" on="1"/>
        <pt x="228" y="322" on="0"/>
        <pt x="228" y="629" on="1"/>
        <pt x="228" y="1204" on="1"/>
        <pt x="228" y="1213" on="0"/>
        <pt x="228" y="1248" on="0"/>
        <pt x="228" y="1266" on="0"/>
        <pt x="228" y="1295" on="0"/>
        <pt x="227" y="1313" on="0"/>
        <pt x="226" y="1338" on="0"/>
        <pt x="224" y="1354" on="0"/>
        <pt x="221" y="1373" on="0"/>
        <pt x="217" y="1389" on="0"/>
        <pt x="214" y="1395" on="1"/>
        <pt x="208" y="1413" on="0"/>
        <pt x="96" y="1434" on="0"/>
        <pt x="62" y="1434" on="1"/>
      </contour>
    </TTGlyph>
    <TTGlyph name="Uacute" xMin="55" yMin="-14" xMax="1645" yMax="1972">
      <contour>
        <pt x="55" y="1444" on="0"/>
        <pt x="55" y="1499" on="0"/>
        <pt x="62" y="1509" on="1"/>
        <pt x="244" y="1496" on="0"/>
        <pt x="360" y="1496" on="1"/>
        <pt x="472" y="1496" on="0"/>
        <pt x="654" y="1509" on="1"/>
        <pt x="661" y="1499" on="0"/>
        <pt x="661" y="1444" on="0"/>
        <pt x="654" y="1434" on="1"/>
        <pt x="620" y="1434" on="0"/>
        <pt x="508" y="1413" on="0"/>
        <pt x="502" y="1395" on="1"/>
        <pt x="488" y="1354" on="0"/>
        <pt x="488" y="1204" on="1"/>
        <pt x="488" y="714" on="1"/>
        <pt x="488" y="578" on="0"/>
        <pt x="526" y="386" on="0"/>
        <pt x="572" y="310" on="1"/>
        <pt x="668" y="135" on="0"/>
        <pt x="901" y="135" on="1"/>
        <pt x="966" y="135" on="0"/>
        <pt x="1080" y="168" on="0"/>
        <pt x="1185" y="247" on="0"/>
        <pt x="1260" y="367" on="0"/>
        <pt x="1305" y="550" on="0"/>
        <pt x="1306" y="666" on="1"/>
        <pt x="1306" y="1167" on="1"/>
        <pt x="1306" y="1332" on="0"/>
        <pt x="1279" y="1386" on="1"/>
        <pt x="1272" y="1401" on="0"/>
        <pt x="1201" y="1425" on="0"/>
        <pt x="1132" y="1436" on="0"/>
        <pt x="1113" y="1436" on="1"/>
        <pt x="1105" y="1448" on="0"/>
        <pt x="1105" y="1498" on="0"/>
        <pt x="1110" y="1509" on="1"/>
        <pt x="1129" y="1508" on="0"/>
        <pt x="1226" y="1501" on="0"/>
        <pt x="1268" y="1498" on="0"/>
        <pt x="1343" y="1496" on="0"/>
        <pt x="1379" y="1496" on="1"/>
        <pt x="1439" y="1496" on="0"/>
        <pt x="1608" y="1508" on="0"/>
        <pt x="1637" y="1509" on="1"/>
        <pt x="1644" y="1499" on="0"/>
        <pt x="1645" y="1452" on="0"/>
        <pt x="1637" y="1436" on="1"/>
        <pt x="1600" y="1436" on="0"/>
        <pt x="1471" y="1410" on="0"/>
        <pt x="1459" y="1386" on="1"/>
        <pt x="1432" y="1325" on="0"/>
        <pt x="1432" y="1170" on="1"/>
        <pt x="1432" y="641" on="1"/>
        <pt x="1432" y="506" on="0"/>
        <pt x="1370" y="287" on="0"/>
        <pt x="1261" y="135" on="0"/>
        <pt x="1106" y="33" on="0"/>
        <pt x="925" y="-14" on="0"/>
        <pt x="821" y="-14" on="1"/>
        <pt x="684" y="-14" on="0"/>
        <pt x="453" y="74" on="0"/>
        <pt x="376" y="160" on="1"/>
        <pt x="228" y="322" on="0"/>
        <pt x="228" y="629" on="1"/>
        <pt x="228" y="1204" on="1"/>
        <pt x="228" y="1213" on="0"/>
        <pt x="228" y="1248" on="0"/>
        <pt x="228" y="1266" on="0"/>
        <pt x="228" y="1295" on="0"/>
        <pt x="227" y="1313" on="0"/>
        <pt x="226" y="1338" on="0"/>
        <pt x="224" y="1354" on="0"/>
        <pt x="221" y="1373" on="0"/>
        <pt x="217" y="1389" on="0"/>
        <pt x="214" y="1395" on="1"/>
        <pt x="208" y="1413" on="0"/>
        <pt x="96" y="1434" on="0"/>
        <pt x="62" y="1434" on="1"/>
      </contour>
      <contour>
        <pt x="857" y="1699" on="1"/>
        <pt x="857" y="1713" on="0"/>
        <pt x="1062" y="1915" on="0"/>
        <pt x="1129" y="1965" on="1"/>
        <pt x="1142" y="1972" on="0"/>
        <pt x="1170" y="1972" on="1"/>
        <pt x="1220" y="1972" on="0"/>
        <pt x="1295" y="1930" on="0"/>
        <pt x="1295" y="1897" on="1"/>
        <pt x="1295" y="1868" on="0"/>
        <pt x="1177" y="1783" on="0"/>
        <pt x="1029" y="1712" on="0"/>
        <pt x="899" y="1660" on="0"/>
        <pt x="885" y="1660" on="1"/>
        <pt x="875" y="1660" on="0"/>
        <pt x="857" y="1685" on="0"/>
      </contour>
    </TTGlyph>
    <TTGlyph name="Ucircumflex" xMin="55" yMin="-14" xMax="1645" yMax="1970">
      <contour>
        <pt x="55" y="1444" on="0"/>
        <pt x="55" y="1499" on="0"/>
        <pt x="62" y="1509" on="1"/>
        <pt x="244" y="1496" on="0"/>
        <pt x="360" y="1496" on="1"/>
        <pt x="472" y="1496" on="0"/>
        <pt x="654" y="1509" on="1"/>
        <pt x="661" y="1499" on="0"/>
        <pt x="661" y="1444" on="0"/>
        <pt x="654" y="1434" on="1"/>
        <pt x="620" y="1434" on="0"/>
        <pt x="508" y="1413" on="0"/>
        <pt x="502" y="1395" on="1"/>
        <pt x="488" y="1354" on="0"/>
        <pt x="488" y="1204" on="1"/>
        <pt x="488" y="714" on="1"/>
        <pt x="488" y="578" on="0"/>
        <pt x="526" y="386" on="0"/>
        <pt x="572" y="310" on="1"/>
        <pt x="668" y="135" on="0"/>
        <pt x="901" y="135" on="1"/>
        <pt x="966" y="135" on="0"/>
        <pt x="1080" y="168" on="0"/>
        <pt x="1185" y="247" on="0"/>
        <pt x="1260" y="367" on="0"/>
        <pt x="1305" y="550" on="0"/>
        <pt x="1306" y="666" on="1"/>
        <pt x="1306" y="1167" on="1"/>
        <pt x="1306" y="1332" on="0"/>
        <pt x="1279" y="1386" on="1"/>
        <pt x="1272" y="1401" on="0"/>
        <pt x="1201" y="1425" on="0"/>
        <pt x="1132" y="1436" on="0"/>
        <pt x="1113" y="1436" on="1"/>
        <pt x="1105" y="1448" on="0"/>
        <pt x="1105" y="1498" on="0"/>
        <pt x="1110" y="1509" on="1"/>
        <pt x="1129" y="1508" on="0"/>
        <pt x="1226" y="1501" on="0"/>
        <pt x="1268" y="1498" on="0"/>
        <pt x="1343" y="1496" on="0"/>
        <pt x="1379" y="1496" on="1"/>
        <pt x="1439" y="1496" on="0"/>
        <pt x="1608" y="1508" on="0"/>
        <pt x="1637" y="1509" on="1"/>
        <pt x="1644" y="1499" on="0"/>
        <pt x="1645" y="1452" on="0"/>
        <pt x="1637" y="1436" on="1"/>
        <pt x="1600" y="1436" on="0"/>
        <pt x="1471" y="1410" on="0"/>
        <pt x="1459" y="1386" on="1"/>
        <pt x="1432" y="1325" on="0"/>
        <pt x="1432" y="1170" on="1"/>
        <pt x="1432" y="641" on="1"/>
        <pt x="1432" y="506" on="0"/>
        <pt x="1370" y="287" on="0"/>
        <pt x="1261" y="135" on="0"/>
        <pt x="1106" y="33" on="0"/>
        <pt x="925" y="-14" on="0"/>
        <pt x="821" y="-14" on="1"/>
        <pt x="684" y="-14" on="0"/>
        <pt x="453" y="74" on="0"/>
        <pt x="376" y="160" on="1"/>
        <pt x="228" y="322" on="0"/>
        <pt x="228" y="629" on="1"/>
        <pt x="228" y="1204" on="1"/>
        <pt x="228" y="1213" on="0"/>
        <pt x="228" y="1248" on="0"/>
        <pt x="228" y="1266" on="0"/>
        <pt x="228" y="1295" on="0"/>
        <pt x="227" y="1313" on="0"/>
        <pt x="226" y="1338" on="0"/>
        <pt x="224" y="1354" on="0"/>
        <pt x="221" y="1373" on="0"/>
        <pt x="217" y="1389" on="0"/>
        <pt x="214" y="1395" on="1"/>
        <pt x="208" y="1413" on="0"/>
        <pt x="96" y="1434" on="0"/>
        <pt x="62" y="1434" on="1"/>
      </contour>
      <contour>
        <pt x="609" y="1703" on="1"/>
        <pt x="610" y="1704" on="0"/>
        <pt x="712" y="1793" on="0"/>
        <pt x="762" y="1842" on="1"/>
        <pt x="828" y="1906" on="0"/>
        <pt x="860" y="1949" on="1"/>
        <pt x="861" y="1951" on="0"/>
        <pt x="865" y="1956" on="0"/>
        <pt x="867" y="1959" on="0"/>
        <pt x="871" y="1963" on="0"/>
        <pt x="873" y="1964" on="0"/>
        <pt x="876" y="1967" on="0"/>
        <pt x="878" y="1968" on="0"/>
        <pt x="880" y="1970" on="0"/>
        <pt x="883" y="1970" on="0"/>
        <pt x="885" y="1970" on="1"/>
        <pt x="898" y="1970" on="0"/>
        <pt x="914" y="1949" on="1"/>
        <pt x="922" y="1940" on="0"/>
        <pt x="956" y="1898" on="0"/>
        <pt x="987" y="1863" on="0"/>
        <pt x="1005" y="1845" on="1"/>
        <pt x="1035" y="1815" on="0"/>
        <pt x="1096" y="1760" on="0"/>
        <pt x="1134" y="1729" on="0"/>
        <pt x="1163" y="1705" on="0"/>
        <pt x="1165" y="1703" on="1"/>
        <pt x="1165" y="1688" on="0"/>
        <pt x="1152" y="1660" on="0"/>
        <pt x="1142" y="1660" on="1"/>
        <pt x="1124" y="1660" on="0"/>
        <pt x="951" y="1755" on="0"/>
        <pt x="887" y="1797" on="1"/>
        <pt x="832" y="1757" on="0"/>
        <pt x="651" y="1660" on="0"/>
        <pt x="632" y="1660" on="1"/>
        <pt x="621" y="1660" on="0"/>
        <pt x="609" y="1690" on="0"/>
      </contour>
    </TTGlyph>
    <TTGlyph name="Udieresis" xMin="55" yMin="-14" xMax="1645" yMax="1924">
      <contour>
        <pt x="55" y="1444" on="0"/>
        <pt x="55" y="1499" on="0"/>
        <pt x="62" y="1509" on="1"/>
        <pt x="244" y="1496" on="0"/>
        <pt x="360" y="1496" on="1"/>
        <pt x="472" y="1496" on="0"/>
        <pt x="654" y="1509" on="1"/>
        <pt x="661" y="1499" on="0"/>
        <pt x="661" y="1444" on="0"/>
        <pt x="654" y="1434" on="1"/>
        <pt x="620" y="1434" on="0"/>
        <pt x="508" y="1413" on="0"/>
        <pt x="502" y="1395" on="1"/>
        <pt x="488" y="1354" on="0"/>
        <pt x="488" y="1204" on="1"/>
        <pt x="488" y="714" on="1"/>
        <pt x="488" y="578" on="0"/>
        <pt x="526" y="386" on="0"/>
        <pt x="572" y="310" on="1"/>
        <pt x="668" y="135" on="0"/>
        <pt x="901" y="135" on="1"/>
        <pt x="966" y="135" on="0"/>
        <pt x="1080" y="168" on="0"/>
        <pt x="1185" y="247" on="0"/>
        <pt x="1260" y="367" on="0"/>
        <pt x="1305" y="550" on="0"/>
        <pt x="1306" y="666" on="1"/>
        <pt x="1306" y="1167" on="1"/>
        <pt x="1306" y="1332" on="0"/>
        <pt x="1279" y="1386" on="1"/>
        <pt x="1272" y="1401" on="0"/>
        <pt x="1201" y="1425" on="0"/>
        <pt x="1132" y="1436" on="0"/>
        <pt x="1113" y="1436" on="1"/>
        <pt x="1105" y="1448" on="0"/>
        <pt x="1105" y="1498" on="0"/>
        <pt x="1110" y="1509" on="1"/>
        <pt x="1129" y="1508" on="0"/>
        <pt x="1226" y="1501" on="0"/>
        <pt x="1268" y="1498" on="0"/>
        <pt x="1343" y="1496" on="0"/>
        <pt x="1379" y="1496" on="1"/>
        <pt x="1439" y="1496" on="0"/>
        <pt x="1608" y="1508" on="0"/>
        <pt x="1637" y="1509" on="1"/>
        <pt x="1644" y="1499" on="0"/>
        <pt x="1645" y="1452" on="0"/>
        <pt x="1637" y="1436" on="1"/>
        <pt x="1600" y="1436" on="0"/>
        <pt x="1471" y="1410" on="0"/>
        <pt x="1459" y="1386" on="1"/>
        <pt x="1432" y="1325" on="0"/>
        <pt x="1432" y="1170" on="1"/>
        <pt x="1432" y="641" on="1"/>
        <pt x="1432" y="506" on="0"/>
        <pt x="1370" y="287" on="0"/>
        <pt x="1261" y="135" on="0"/>
        <pt x="1106" y="33" on="0"/>
        <pt x="925" y="-14" on="0"/>
        <pt x="821" y="-14" on="1"/>
        <pt x="684" y="-14" on="0"/>
        <pt x="453" y="74" on="0"/>
        <pt x="376" y="160" on="1"/>
        <pt x="228" y="322" on="0"/>
        <pt x="228" y="629" on="1"/>
        <pt x="228" y="1204" on="1"/>
        <pt x="228" y="1213" on="0"/>
        <pt x="228" y="1248" on="0"/>
        <pt x="228" y="1266" on="0"/>
        <pt x="228" y="1295" on="0"/>
        <pt x="227" y="1313" on="0"/>
        <pt x="226" y="1338" on="0"/>
        <pt x="224" y="1354" on="0"/>
        <pt x="221" y="1373" on="0"/>
        <pt x="217" y="1389" on="0"/>
        <pt x="214" y="1395" on="1"/>
        <pt x="208" y="1413" on="0"/>
        <pt x="96" y="1434" on="0"/>
        <pt x="62" y="1434" on="1"/>
      </contour>
      <contour>
        <pt x="518" y="1792" on="1"/>
        <pt x="518" y="1847" on="0"/>
        <pt x="597" y="1924" on="0"/>
        <pt x="707" y="1924" on="0"/>
        <pt x="787" y="1847" on="0"/>
        <pt x="787" y="1738" on="0"/>
        <pt x="707" y="1660" on="0"/>
        <pt x="652" y="1660" on="1"/>
        <pt x="616" y="1660" on="0"/>
        <pt x="554" y="1695" on="0"/>
        <pt x="518" y="1756" on="0"/>
      </contour>
      <contour>
        <pt x="1003" y="1792" on="1"/>
        <pt x="1003" y="1847" on="0"/>
        <pt x="1083" y="1924" on="0"/>
        <pt x="1193" y="1924" on="0"/>
        <pt x="1272" y="1847" on="0"/>
        <pt x="1272" y="1792" on="1"/>
        <pt x="1272" y="1738" on="0"/>
        <pt x="1191" y="1660" on="0"/>
        <pt x="1135" y="1660" on="1"/>
        <pt x="1081" y="1660" on="0"/>
        <pt x="1003" y="1737" on="0"/>
      </contour>
    </TTGlyph>
    <TTGlyph name="Ugrave" xMin="55" yMin="-14" xMax="1645" yMax="1972">
      <contour>
        <pt x="55" y="1444" on="0"/>
        <pt x="55" y="1499" on="0"/>
        <pt x="62" y="1509" on="1"/>
        <pt x="244" y="1496" on="0"/>
        <pt x="360" y="1496" on="1"/>
        <pt x="472" y="1496" on="0"/>
        <pt x="654" y="1509" on="1"/>
        <pt x="661" y="1499" on="0"/>
        <pt x="661" y="1444" on="0"/>
        <pt x="654" y="1434" on="1"/>
        <pt x="620" y="1434" on="0"/>
        <pt x="508" y="1413" on="0"/>
        <pt x="502" y="1395" on="1"/>
        <pt x="488" y="1354" on="0"/>
        <pt x="488" y="1204" on="1"/>
        <pt x="488" y="714" on="1"/>
        <pt x="488" y="578" on="0"/>
        <pt x="526" y="386" on="0"/>
        <pt x="572" y="310" on="1"/>
        <pt x="668" y="135" on="0"/>
        <pt x="901" y="135" on="1"/>
        <pt x="966" y="135" on="0"/>
        <pt x="1080" y="168" on="0"/>
        <pt x="1185" y="247" on="0"/>
        <pt x="1260" y="367" on="0"/>
        <pt x="1305" y="550" on="0"/>
        <pt x="1306" y="666" on="1"/>
        <pt x="1306" y="1167" on="1"/>
        <pt x="1306" y="1332" on="0"/>
        <pt x="1279" y="1386" on="1"/>
        <pt x="1272" y="1401" on="0"/>
        <pt x="1201" y="1425" on="0"/>
        <pt x="1132" y="1436" on="0"/>
        <pt x="1113" y="1436" on="1"/>
        <pt x="1105" y="1448" on="0"/>
        <pt x="1105" y="1498" on="0"/>
        <pt x="1110" y="1509" on="1"/>
        <pt x="1129" y="1508" on="0"/>
        <pt x="1226" y="1501" on="0"/>
        <pt x="1268" y="1498" on="0"/>
        <pt x="1343" y="1496" on="0"/>
        <pt x="1379" y="1496" on="1"/>
        <pt x="1439" y="1496" on="0"/>
        <pt x="1608" y="1508" on="0"/>
        <pt x="1637" y="1509" on="1"/>
        <pt x="1644" y="1499" on="0"/>
        <pt x="1645" y="1452" on="0"/>
        <pt x="1637" y="1436" on="1"/>
        <pt x="1600" y="1436" on="0"/>
        <pt x="1471" y="1410" on="0"/>
        <pt x="1459" y="1386" on="1"/>
        <pt x="1432" y="1325" on="0"/>
        <pt x="1432" y="1170" on="1"/>
        <pt x="1432" y="641" on="1"/>
        <pt x="1432" y="506" on="0"/>
        <pt x="1370" y="287" on="0"/>
        <pt x="1261" y="135" on="0"/>
        <pt x="1106" y="33" on="0"/>
        <pt x="925" y="-14" on="0"/>
        <pt x="821" y="-14" on="1"/>
        <pt x="684" y="-14" on="0"/>
        <pt x="453" y="74" on="0"/>
        <pt x="376" y="160" on="1"/>
        <pt x="228" y="322" on="0"/>
        <pt x="228" y="629" on="1"/>
        <pt x="228" y="1204" on="1"/>
        <pt x="228" y="1213" on="0"/>
        <pt x="228" y="1248" on="0"/>
        <pt x="228" y="1266" on="0"/>
        <pt x="228" y="1295" on="0"/>
        <pt x="227" y="1313" on="0"/>
        <pt x="226" y="1338" on="0"/>
        <pt x="224" y="1354" on="0"/>
        <pt x="221" y="1373" on="0"/>
        <pt x="217" y="1389" on="0"/>
        <pt x="214" y="1395" on="1"/>
        <pt x="208" y="1413" on="0"/>
        <pt x="96" y="1434" on="0"/>
        <pt x="62" y="1434" on="1"/>
      </contour>
      <contour>
        <pt x="522" y="1897" on="1"/>
        <pt x="522" y="1930" on="0"/>
        <pt x="595" y="1972" on="0"/>
        <pt x="645" y="1972" on="1"/>
        <pt x="673" y="1972" on="0"/>
        <pt x="686" y="1965" on="1"/>
        <pt x="753" y="1915" on="0"/>
        <pt x="960" y="1713" on="0"/>
        <pt x="960" y="1699" on="1"/>
        <pt x="960" y="1685" on="0"/>
        <pt x="941" y="1660" on="0"/>
        <pt x="930" y="1660" on="1"/>
        <pt x="921" y="1660" on="0"/>
        <pt x="854" y="1684" on="0"/>
        <pt x="763" y="1722" on="0"/>
        <pt x="662" y="1773" on="0"/>
        <pt x="577" y="1825" on="0"/>
        <pt x="522" y="1877" on="0"/>
      </contour>
    </TTGlyph>
    <TTGlyph name="V" xMin="-12" yMin="-14" xMax="1547" yMax="1509">
      <contour>
        <pt x="-12" y="1441" on="0"/>
        <pt x="-12" y="1503" on="0"/>
        <pt x="-7" y="1509" on="1"/>
        <pt x="185" y="1496" on="0"/>
        <pt x="287" y="1496" on="1"/>
        <pt x="408" y="1496" on="0"/>
        <pt x="591" y="1509" on="1"/>
        <pt x="596" y="1499" on="0"/>
        <pt x="595" y="1441" on="0"/>
        <pt x="588" y="1434" on="1"/>
        <pt x="576" y="1434" on="0"/>
        <pt x="537" y="1429" on="0"/>
        <pt x="485" y="1416" on="0"/>
        <pt x="449" y="1386" on="0"/>
        <pt x="449" y="1366" on="1"/>
        <pt x="449" y="1328" on="0"/>
        <pt x="497" y="1204" on="1"/>
        <pt x="540" y="1096" on="0"/>
        <pt x="709" y="671" on="0"/>
        <pt x="830" y="366" on="0"/>
        <pt x="832" y="363" on="1"/>
        <pt x="835" y="369" on="0"/>
        <pt x="889" y="499" on="0"/>
        <pt x="972" y="704" on="0"/>
        <pt x="1061" y="922" on="0"/>
        <pt x="1145" y="1132" on="0"/>
        <pt x="1167" y="1190" on="1"/>
        <pt x="1213" y="1312" on="0"/>
        <pt x="1213" y="1363" on="1"/>
        <pt x="1213" y="1383" on="0"/>
        <pt x="1170" y="1413" on="0"/>
        <pt x="1109" y="1428" on="0"/>
        <pt x="1061" y="1434" on="0"/>
        <pt x="1047" y="1434" on="1"/>
        <pt x="1038" y="1441" on="0"/>
        <pt x="1039" y="1499" on="0"/>
        <pt x="1047" y="1509" on="1"/>
        <pt x="1064" y="1508" on="0"/>
        <pt x="1157" y="1501" on="0"/>
        <pt x="1197" y="1498" on="0"/>
        <pt x="1268" y="1496" on="0"/>
        <pt x="1302" y="1496" on="1"/>
        <pt x="1362" y="1496" on="0"/>
        <pt x="1518" y="1508" on="0"/>
        <pt x="1541" y="1509" on="1"/>
        <pt x="1547" y="1500" on="0"/>
        <pt x="1547" y="1477" on="1"/>
        <pt x="1547" y="1474" on="0"/>
        <pt x="1547" y="1470" on="1"/>
        <pt x="1546" y="1441" on="0"/>
        <pt x="1539" y="1434" on="1"/>
        <pt x="1507" y="1434" on="0"/>
        <pt x="1407" y="1410" on="0"/>
        <pt x="1386" y="1384" on="1"/>
        <pt x="1346" y="1336" on="0"/>
        <pt x="1284" y="1174" on="1"/>
        <pt x="1145" y="832" on="0"/>
        <pt x="825" y="71" on="1"/>
        <pt x="814" y="47" on="0"/>
        <pt x="778" y="7" on="0"/>
        <pt x="741" y="-14" on="0"/>
        <pt x="727" y="-14" on="1"/>
        <pt x="721" y="-14" on="0"/>
        <pt x="713" y="-5" on="0"/>
        <pt x="702" y="15" on="0"/>
        <pt x="700" y="18" on="1"/>
        <pt x="656" y="132" on="0"/>
        <pt x="268" y="1084" on="0"/>
        <pt x="235" y="1167" on="1"/>
        <pt x="172" y="1320" on="0"/>
        <pt x="144" y="1370" on="1"/>
        <pt x="126" y="1402" on="0"/>
        <pt x="25" y="1434" on="0"/>
        <pt x="-7" y="1434" on="1"/>
      </contour>
    </TTGlyph>
    <TTGlyph name="W" xMin="-9" yMin="-14" xMax="2140" yMax="1509">
      <contour>
        <pt x="-2" y="1509" on="1"/>
        <pt x="194" y="1496" on="0"/>
        <pt x="299" y="1496" on="1"/>
        <pt x="401" y="1496" on="0"/>
        <pt x="584" y="1509" on="1"/>
        <pt x="589" y="1499" on="0"/>
        <pt x="588" y="1441" on="0"/>
        <pt x="581" y="1434" on="1"/>
        <pt x="572" y="1434" on="0"/>
        <pt x="544" y="1431" on="0"/>
        <pt x="502" y="1423" on="0"/>
        <pt x="467" y="1409" on="0"/>
        <pt x="442" y="1382" on="0"/>
        <pt x="442" y="1366" on="1"/>
        <pt x="442" y="1359" on="0"/>
        <pt x="447" y="1336" on="0"/>
        <pt x="457" y="1302" on="0"/>
        <pt x="467" y="1272" on="0"/>
        <pt x="483" y="1223" on="0"/>
        <pt x="488" y="1206" on="1"/>
        <pt x="511" y="1135" on="0"/>
        <pt x="589" y="896" on="0"/>
        <pt x="648" y="712" on="0"/>
        <pt x="711" y="516" on="0"/>
        <pt x="727" y="461" on="1"/>
        <pt x="752" y="540" on="0"/>
        <pt x="878" y="924" on="0"/>
        <pt x="1031" y="1381" on="0"/>
        <pt x="1047" y="1430" on="1"/>
        <pt x="1057" y="1461" on="0"/>
        <pt x="1103" y="1509" on="0"/>
        <pt x="1122" y="1509" on="1"/>
        <pt x="1136" y="1509" on="0"/>
        <pt x="1149" y="1473" on="1"/>
        <pt x="1221" y="1283" on="0"/>
        <pt x="1481" y="572" on="0"/>
        <pt x="1534" y="415" on="1"/>
        <pt x="1554" y="483" on="0"/>
        <pt x="1650" y="796" on="0"/>
        <pt x="1743" y="1106" on="0"/>
        <pt x="1767" y="1190" on="1"/>
        <pt x="1803" y="1320" on="0"/>
        <pt x="1803" y="1363" on="1"/>
        <pt x="1803" y="1383" on="0"/>
        <pt x="1760" y="1413" on="0"/>
        <pt x="1699" y="1428" on="0"/>
        <pt x="1651" y="1434" on="0"/>
        <pt x="1637" y="1434" on="1"/>
        <pt x="1629" y="1441" on="0"/>
        <pt x="1630" y="1499" on="0"/>
        <pt x="1637" y="1509" on="1"/>
        <pt x="1829" y="1496" on="0"/>
        <pt x="1895" y="1496" on="1"/>
        <pt x="1955" y="1496" on="0"/>
        <pt x="2111" y="1508" on="0"/>
        <pt x="2134" y="1509" on="1"/>
        <pt x="2140" y="1500" on="0"/>
        <pt x="2140" y="1477" on="1"/>
        <pt x="2140" y="1474" on="0"/>
        <pt x="2140" y="1470" on="1"/>
        <pt x="2139" y="1441" on="0"/>
        <pt x="2132" y="1434" on="1"/>
        <pt x="2105" y="1434" on="0"/>
        <pt x="2003" y="1408" on="0"/>
        <pt x="1979" y="1384" on="1"/>
        <pt x="1932" y="1331" on="0"/>
        <pt x="1892" y="1204" on="1"/>
        <pt x="1786" y="858" on="0"/>
        <pt x="1539" y="82" on="1"/>
        <pt x="1527" y="45" on="0"/>
        <pt x="1471" y="-14" on="0"/>
        <pt x="1450" y="-14" on="1"/>
        <pt x="1432" y="-14" on="0"/>
        <pt x="1416" y="18" on="1"/>
        <pt x="1378" y="130" on="0"/>
        <pt x="1074" y="942" on="0"/>
        <pt x="1037" y="1049" on="1"/>
        <pt x="1010" y="959" on="0"/>
        <pt x="906" y="642" on="0"/>
        <pt x="772" y="234" on="0"/>
        <pt x="725" y="87" on="1"/>
        <pt x="717" y="59" on="0"/>
        <pt x="662" y="-14" on="0"/>
        <pt x="643" y="-14" on="1"/>
        <pt x="625" y="-14" on="0"/>
        <pt x="609" y="18" on="1"/>
        <pt x="576" y="123" on="0"/>
        <pt x="257" y="1076" on="0"/>
        <pt x="221" y="1188" on="1"/>
        <pt x="179" y="1321" on="0"/>
        <pt x="141" y="1373" on="1"/>
        <pt x="122" y="1403" on="0"/>
        <pt x="29" y="1434" on="0"/>
        <pt x="-2" y="1434" on="1"/>
        <pt x="-9" y="1441" on="0"/>
        <pt x="-9" y="1468" on="1"/>
        <pt x="-9" y="1501" on="0"/>
      </contour>
    </TTGlyph>
</ttFont>
